<?xml version="1.0" standalone="no"?>
 <!DOCTYPE svg PUBLIC "-//W3C//DTD SVG 1.1//EN" 
 "http://www.w3.org/Graphics/SVG/1.1/DTD/svg11.dtd"> 
<svg xmlns="http://www.w3.org/2000/svg" version="1.1" 
    width="29.7002cm" height="21.0007cm" viewBox="0 0 116930 82680 ">
<title>SVG Picture created as optojig-F.SilkS.svg date 2018/05/23 17:20:35 </title>
  <desc>Picture generated by PCBNEW </desc>
<g style="fill:#000000; fill-opacity:1;stroke:#000000; stroke-opacity:1;
stroke-linecap:round; stroke-linejoin:round; "
 transform="translate(0 0) scale(1 1)">
</g>
<g style="fill:#000000; fill-opacity:0.0; 
stroke:#000000; stroke-width:-0.000393701; stroke-opacity:1; 
stroke-linecap:round; stroke-linejoin:round;">
</g>
<g style="fill:#000000; fill-opacity:0.0; 
stroke:#000000; stroke-width:39.3701; stroke-opacity:1; 
stroke-linecap:round; stroke-linejoin:round;">
</g>
<g style="fill:#000000; fill-opacity:0.0; 
stroke:#000000; stroke-width:59.0551; stroke-opacity:1; 
stroke-linecap:round; stroke-linejoin:round;">
<rect x="69685.9" y="65357.2" width="42519.7" height="12598.4" rx="0" />
</g>
<g style="fill:#000000; fill-opacity:0.0; 
stroke:#000000; stroke-width:39.3701; stroke-opacity:1; 
stroke-linecap:round; stroke-linejoin:round;">
</g>
<g style="fill:#000000; fill-opacity:0.0; 
stroke:#000000; stroke-width:59.0551; stroke-opacity:1; 
stroke-linecap:round; stroke-linejoin:round;">
<rect x="3937.01" y="3937.01" width="109056" height="74806" rx="0" />
</g>
<g style="fill:#000000; fill-opacity:0.0; 
stroke:#000000; stroke-width:39.3701; stroke-opacity:1; 
stroke-linecap:round; stroke-linejoin:round;">
</g>
<g style="fill:#000000; fill-opacity:0.0; 
stroke:#000000; stroke-width:59.0551; stroke-opacity:1; 
stroke-linecap:round; stroke-linejoin:round;">
<rect x="4724.41" y="4724.41" width="107481" height="73231.2" rx="0" />
</g>
<g style="fill:#000000; fill-opacity:0.0; 
stroke:#000000; stroke-width:39.3701; stroke-opacity:1; 
stroke-linecap:round; stroke-linejoin:round;">
</g>
<g style="fill:#000000; fill-opacity:0.0; 
stroke:#000000; stroke-width:59.0551; stroke-opacity:1; 
stroke-linecap:round; stroke-linejoin:round;">
<path d="M23622 4724
L23622 3937
" />
</g>
<g style="fill:#000000; fill-opacity:0.0; 
stroke:#000000; stroke-width:39.3701; stroke-opacity:1; 
stroke-linecap:round; stroke-linejoin:round;">
</g>
<g style="fill:#000000; fill-opacity:0.0; 
stroke:#000000; stroke-width:59.0551; stroke-opacity:1; 
stroke-linecap:round; stroke-linejoin:round;">
<path d="M43307 4724
L43307 3937
" />
</g>
<g style="fill:#000000; fill-opacity:0.0; 
stroke:#000000; stroke-width:39.3701; stroke-opacity:1; 
stroke-linecap:round; stroke-linejoin:round;">
</g>
<g style="fill:#000000; fill-opacity:0.0; 
stroke:#000000; stroke-width:59.0551; stroke-opacity:1; 
stroke-linecap:round; stroke-linejoin:round;">
<path d="M62992 4724
L62992 3937
" />
</g>
<g style="fill:#000000; fill-opacity:0.0; 
stroke:#000000; stroke-width:39.3701; stroke-opacity:1; 
stroke-linecap:round; stroke-linejoin:round;">
</g>
<g style="fill:#000000; fill-opacity:0.0; 
stroke:#000000; stroke-width:59.0551; stroke-opacity:1; 
stroke-linecap:round; stroke-linejoin:round;">
<path d="M82677 4724
L82677 3937
" />
</g>
<g style="fill:#000000; fill-opacity:0.0; 
stroke:#000000; stroke-width:39.3701; stroke-opacity:1; 
stroke-linecap:round; stroke-linejoin:round;">
</g>
<g style="fill:#000000; fill-opacity:0.0; 
stroke:#000000; stroke-width:59.0551; stroke-opacity:1; 
stroke-linecap:round; stroke-linejoin:round;">
<path d="M102362 4724
L102362 3937
" />
</g>
<g style="fill:#000000; fill-opacity:0.0; 
stroke:#000000; stroke-width:39.3701; stroke-opacity:1; 
stroke-linecap:round; stroke-linejoin:round;">
</g>
<g style="fill:#000000; fill-opacity:0.0; 
stroke:#000000; stroke-width:59.0551; stroke-opacity:1; 
stroke-linecap:round; stroke-linejoin:round;">
<path d="M14169 4562
L13877 4562
" />
<path d="M14023 4562
L14023 4050
L13974 4123
L13925 4172
L13877 4196
" />
</g>
<g style="fill:#000000; fill-opacity:0.0; 
stroke:#000000; stroke-width:39.3701; stroke-opacity:1; 
stroke-linecap:round; stroke-linejoin:round;">
</g>
<g style="fill:#000000; fill-opacity:0.0; 
stroke:#000000; stroke-width:59.0551; stroke-opacity:1; 
stroke-linecap:round; stroke-linejoin:round;">
<path d="M33562 4099
L33586 4074
L33635 4050
L33757 4050
L33805 4074
L33830 4099
L33854 4147
L33854 4196
L33830 4269
L33537 4562
L33854 4562
" />
</g>
<g style="fill:#000000; fill-opacity:0.0; 
stroke:#000000; stroke-width:39.3701; stroke-opacity:1; 
stroke-linecap:round; stroke-linejoin:round;">
</g>
<g style="fill:#000000; fill-opacity:0.0; 
stroke:#000000; stroke-width:59.0551; stroke-opacity:1; 
stroke-linecap:round; stroke-linejoin:round;">
<path d="M53222 4050
L53539 4050
L53368 4245
L53442 4245
L53490 4269
L53515 4294
L53539 4342
L53539 4464
L53515 4513
L53490 4537
L53442 4562
L53295 4562
L53247 4537
L53222 4513
" />
</g>
<g style="fill:#000000; fill-opacity:0.0; 
stroke:#000000; stroke-width:39.3701; stroke-opacity:1; 
stroke-linecap:round; stroke-linejoin:round;">
</g>
<g style="fill:#000000; fill-opacity:0.0; 
stroke:#000000; stroke-width:59.0551; stroke-opacity:1; 
stroke-linecap:round; stroke-linejoin:round;">
<path d="M73175 4221
L73175 4562
" />
<path d="M73053 4026
L72932 4391
L73248 4391
" />
</g>
<g style="fill:#000000; fill-opacity:0.0; 
stroke:#000000; stroke-width:39.3701; stroke-opacity:1; 
stroke-linecap:round; stroke-linejoin:round;">
</g>
<g style="fill:#000000; fill-opacity:0.0; 
stroke:#000000; stroke-width:59.0551; stroke-opacity:1; 
stroke-linecap:round; stroke-linejoin:round;">
<path d="M92885 4050
L92641 4050
L92617 4294
L92641 4269
L92690 4245
L92812 4245
L92860 4269
L92885 4294
L92909 4342
L92909 4464
L92885 4513
L92860 4537
L92812 4562
L92690 4562
L92641 4537
L92617 4513
" />
</g>
<g style="fill:#000000; fill-opacity:0.0; 
stroke:#000000; stroke-width:39.3701; stroke-opacity:1; 
stroke-linecap:round; stroke-linejoin:round;">
</g>
<g style="fill:#000000; fill-opacity:0.0; 
stroke:#000000; stroke-width:59.0551; stroke-opacity:1; 
stroke-linecap:round; stroke-linejoin:round;">
<path d="M112545 4050
L112448 4050
L112399 4074
L112375 4099
L112326 4172
L112302 4269
L112302 4464
L112326 4513
L112350 4537
L112399 4562
L112497 4562
L112545 4537
L112570 4513
L112594 4464
L112594 4342
L112570 4294
L112545 4269
L112497 4245
L112399 4245
L112350 4269
L112326 4294
L112302 4342
" />
</g>
<g style="fill:#000000; fill-opacity:0.0; 
stroke:#000000; stroke-width:39.3701; stroke-opacity:1; 
stroke-linecap:round; stroke-linejoin:round;">
</g>
<g style="fill:#000000; fill-opacity:0.0; 
stroke:#000000; stroke-width:59.0551; stroke-opacity:1; 
stroke-linecap:round; stroke-linejoin:round;">
<path d="M23622 77955
L23622 78742
" />
</g>
<g style="fill:#000000; fill-opacity:0.0; 
stroke:#000000; stroke-width:39.3701; stroke-opacity:1; 
stroke-linecap:round; stroke-linejoin:round;">
</g>
<g style="fill:#000000; fill-opacity:0.0; 
stroke:#000000; stroke-width:59.0551; stroke-opacity:1; 
stroke-linecap:round; stroke-linejoin:round;">
<path d="M43307 77955
L43307 78742
" />
</g>
<g style="fill:#000000; fill-opacity:0.0; 
stroke:#000000; stroke-width:39.3701; stroke-opacity:1; 
stroke-linecap:round; stroke-linejoin:round;">
</g>
<g style="fill:#000000; fill-opacity:0.0; 
stroke:#000000; stroke-width:59.0551; stroke-opacity:1; 
stroke-linecap:round; stroke-linejoin:round;">
<path d="M62992 77955
L62992 78742
" />
</g>
<g style="fill:#000000; fill-opacity:0.0; 
stroke:#000000; stroke-width:39.3701; stroke-opacity:1; 
stroke-linecap:round; stroke-linejoin:round;">
</g>
<g style="fill:#000000; fill-opacity:0.0; 
stroke:#000000; stroke-width:59.0551; stroke-opacity:1; 
stroke-linecap:round; stroke-linejoin:round;">
<path d="M82677 77955
L82677 78742
" />
</g>
<g style="fill:#000000; fill-opacity:0.0; 
stroke:#000000; stroke-width:39.3701; stroke-opacity:1; 
stroke-linecap:round; stroke-linejoin:round;">
</g>
<g style="fill:#000000; fill-opacity:0.0; 
stroke:#000000; stroke-width:59.0551; stroke-opacity:1; 
stroke-linecap:round; stroke-linejoin:round;">
<path d="M102362 77955
L102362 78742
" />
</g>
<g style="fill:#000000; fill-opacity:0.0; 
stroke:#000000; stroke-width:39.3701; stroke-opacity:1; 
stroke-linecap:round; stroke-linejoin:round;">
</g>
<g style="fill:#000000; fill-opacity:0.0; 
stroke:#000000; stroke-width:59.0551; stroke-opacity:1; 
stroke-linecap:round; stroke-linejoin:round;">
<path d="M14169 78580
L13877 78580
" />
<path d="M14023 78580
L14023 78069
L13974 78142
L13925 78190
L13877 78215
" />
</g>
<g style="fill:#000000; fill-opacity:0.0; 
stroke:#000000; stroke-width:39.3701; stroke-opacity:1; 
stroke-linecap:round; stroke-linejoin:round;">
</g>
<g style="fill:#000000; fill-opacity:0.0; 
stroke:#000000; stroke-width:59.0551; stroke-opacity:1; 
stroke-linecap:round; stroke-linejoin:round;">
<path d="M33562 78117
L33586 78093
L33635 78069
L33757 78069
L33805 78093
L33830 78117
L33854 78166
L33854 78215
L33830 78288
L33537 78580
L33854 78580
" />
</g>
<g style="fill:#000000; fill-opacity:0.0; 
stroke:#000000; stroke-width:39.3701; stroke-opacity:1; 
stroke-linecap:round; stroke-linejoin:round;">
</g>
<g style="fill:#000000; fill-opacity:0.0; 
stroke:#000000; stroke-width:59.0551; stroke-opacity:1; 
stroke-linecap:round; stroke-linejoin:round;">
<path d="M53222 78069
L53539 78069
L53368 78263
L53442 78263
L53490 78288
L53515 78312
L53539 78361
L53539 78483
L53515 78532
L53490 78556
L53442 78580
L53295 78580
L53247 78556
L53222 78532
" />
</g>
<g style="fill:#000000; fill-opacity:0.0; 
stroke:#000000; stroke-width:39.3701; stroke-opacity:1; 
stroke-linecap:round; stroke-linejoin:round;">
</g>
<g style="fill:#000000; fill-opacity:0.0; 
stroke:#000000; stroke-width:59.0551; stroke-opacity:1; 
stroke-linecap:round; stroke-linejoin:round;">
<path d="M73175 78239
L73175 78580
" />
<path d="M73053 78044
L72932 78410
L73248 78410
" />
</g>
<g style="fill:#000000; fill-opacity:0.0; 
stroke:#000000; stroke-width:39.3701; stroke-opacity:1; 
stroke-linecap:round; stroke-linejoin:round;">
</g>
<g style="fill:#000000; fill-opacity:0.0; 
stroke:#000000; stroke-width:59.0551; stroke-opacity:1; 
stroke-linecap:round; stroke-linejoin:round;">
<path d="M92885 78069
L92641 78069
L92617 78312
L92641 78288
L92690 78263
L92812 78263
L92860 78288
L92885 78312
L92909 78361
L92909 78483
L92885 78532
L92860 78556
L92812 78580
L92690 78580
L92641 78556
L92617 78532
" />
</g>
<g style="fill:#000000; fill-opacity:0.0; 
stroke:#000000; stroke-width:39.3701; stroke-opacity:1; 
stroke-linecap:round; stroke-linejoin:round;">
</g>
<g style="fill:#000000; fill-opacity:0.0; 
stroke:#000000; stroke-width:59.0551; stroke-opacity:1; 
stroke-linecap:round; stroke-linejoin:round;">
<path d="M112545 78069
L112448 78069
L112399 78093
L112375 78117
L112326 78190
L112302 78288
L112302 78483
L112326 78532
L112350 78556
L112399 78580
L112497 78580
L112545 78556
L112570 78532
L112594 78483
L112594 78361
L112570 78312
L112545 78288
L112497 78263
L112399 78263
L112350 78288
L112326 78312
L112302 78361
" />
</g>
<g style="fill:#000000; fill-opacity:0.0; 
stroke:#000000; stroke-width:39.3701; stroke-opacity:1; 
stroke-linecap:round; stroke-linejoin:round;">
</g>
<g style="fill:#000000; fill-opacity:0.0; 
stroke:#000000; stroke-width:59.0551; stroke-opacity:1; 
stroke-linecap:round; stroke-linejoin:round;">
<path d="M3937 23622
L4724 23622
" />
</g>
<g style="fill:#000000; fill-opacity:0.0; 
stroke:#000000; stroke-width:39.3701; stroke-opacity:1; 
stroke-linecap:round; stroke-linejoin:round;">
</g>
<g style="fill:#000000; fill-opacity:0.0; 
stroke:#000000; stroke-width:59.0551; stroke-opacity:1; 
stroke-linecap:round; stroke-linejoin:round;">
<path d="M3937 43307
L4724 43307
" />
</g>
<g style="fill:#000000; fill-opacity:0.0; 
stroke:#000000; stroke-width:39.3701; stroke-opacity:1; 
stroke-linecap:round; stroke-linejoin:round;">
</g>
<g style="fill:#000000; fill-opacity:0.0; 
stroke:#000000; stroke-width:59.0551; stroke-opacity:1; 
stroke-linecap:round; stroke-linejoin:round;">
<path d="M3937 62992
L4724 62992
" />
</g>
<g style="fill:#000000; fill-opacity:0.0; 
stroke:#000000; stroke-width:39.3701; stroke-opacity:1; 
stroke-linecap:round; stroke-linejoin:round;">
</g>
<g style="fill:#000000; fill-opacity:0.0; 
stroke:#000000; stroke-width:59.0551; stroke-opacity:1; 
stroke-linecap:round; stroke-linejoin:round;">
<path d="M4208 13864
L4452 13864
" />
<path d="M4160 14011
L4330 13499
L4501 14011
" />
</g>
<g style="fill:#000000; fill-opacity:0.0; 
stroke:#000000; stroke-width:39.3701; stroke-opacity:1; 
stroke-linecap:round; stroke-linejoin:round;">
</g>
<g style="fill:#000000; fill-opacity:0.0; 
stroke:#000000; stroke-width:59.0551; stroke-opacity:1; 
stroke-linecap:round; stroke-linejoin:round;">
<path d="M4367 33428
L4440 33452
L4464 33476
L4489 33525
L4489 33598
L4464 33647
L4440 33671
L4391 33696
L4196 33696
L4196 33184
L4367 33184
L4416 33208
L4440 33233
L4464 33281
L4464 33330
L4440 33379
L4416 33403
L4367 33428
L4196 33428
" />
</g>
<g style="fill:#000000; fill-opacity:0.0; 
stroke:#000000; stroke-width:39.3701; stroke-opacity:1; 
stroke-linecap:round; stroke-linejoin:round;">
</g>
<g style="fill:#000000; fill-opacity:0.0; 
stroke:#000000; stroke-width:59.0551; stroke-opacity:1; 
stroke-linecap:round; stroke-linejoin:round;">
<path d="M4489 53332
L4464 53356
L4391 53381
L4342 53381
L4269 53356
L4221 53308
L4196 53259
L4172 53161
L4172 53088
L4196 52991
L4221 52942
L4269 52893
L4342 52869
L4391 52869
L4464 52893
L4489 52918
" />
</g>
<g style="fill:#000000; fill-opacity:0.0; 
stroke:#000000; stroke-width:39.3701; stroke-opacity:1; 
stroke-linecap:round; stroke-linejoin:round;">
</g>
<g style="fill:#000000; fill-opacity:0.0; 
stroke:#000000; stroke-width:59.0551; stroke-opacity:1; 
stroke-linecap:round; stroke-linejoin:round;">
<path d="M4196 73066
L4196 72554
L4318 72554
L4391 72578
L4440 72627
L4464 72676
L4489 72773
L4489 72846
L4464 72944
L4440 72993
L4391 73041
L4318 73066
L4196 73066
" />
</g>
<g style="fill:#000000; fill-opacity:0.0; 
stroke:#000000; stroke-width:39.3701; stroke-opacity:1; 
stroke-linecap:round; stroke-linejoin:round;">
</g>
<g style="fill:#000000; fill-opacity:0.0; 
stroke:#000000; stroke-width:59.0551; stroke-opacity:1; 
stroke-linecap:round; stroke-linejoin:round;">
<path d="M112992 23622
L112205 23622
" />
</g>
<g style="fill:#000000; fill-opacity:0.0; 
stroke:#000000; stroke-width:39.3701; stroke-opacity:1; 
stroke-linecap:round; stroke-linejoin:round;">
</g>
<g style="fill:#000000; fill-opacity:0.0; 
stroke:#000000; stroke-width:59.0551; stroke-opacity:1; 
stroke-linecap:round; stroke-linejoin:round;">
<path d="M112992 43307
L112205 43307
" />
</g>
<g style="fill:#000000; fill-opacity:0.0; 
stroke:#000000; stroke-width:39.3701; stroke-opacity:1; 
stroke-linecap:round; stroke-linejoin:round;">
</g>
<g style="fill:#000000; fill-opacity:0.0; 
stroke:#000000; stroke-width:59.0551; stroke-opacity:1; 
stroke-linecap:round; stroke-linejoin:round;">
<path d="M112992 62992
L112205 62992
" />
</g>
<g style="fill:#000000; fill-opacity:0.0; 
stroke:#000000; stroke-width:39.3701; stroke-opacity:1; 
stroke-linecap:round; stroke-linejoin:round;">
</g>
<g style="fill:#000000; fill-opacity:0.0; 
stroke:#000000; stroke-width:59.0551; stroke-opacity:1; 
stroke-linecap:round; stroke-linejoin:round;">
<path d="M112477 13864
L112721 13864
" />
<path d="M112428 14011
L112599 13499
L112769 14011
" />
</g>
<g style="fill:#000000; fill-opacity:0.0; 
stroke:#000000; stroke-width:39.3701; stroke-opacity:1; 
stroke-linecap:round; stroke-linejoin:round;">
</g>
<g style="fill:#000000; fill-opacity:0.0; 
stroke:#000000; stroke-width:59.0551; stroke-opacity:1; 
stroke-linecap:round; stroke-linejoin:round;">
<path d="M112635 33428
L112708 33452
L112733 33476
L112757 33525
L112757 33598
L112733 33647
L112708 33671
L112660 33696
L112465 33696
L112465 33184
L112635 33184
L112684 33208
L112708 33233
L112733 33281
L112733 33330
L112708 33379
L112684 33403
L112635 33428
L112465 33428
" />
</g>
<g style="fill:#000000; fill-opacity:0.0; 
stroke:#000000; stroke-width:39.3701; stroke-opacity:1; 
stroke-linecap:round; stroke-linejoin:round;">
</g>
<g style="fill:#000000; fill-opacity:0.0; 
stroke:#000000; stroke-width:59.0551; stroke-opacity:1; 
stroke-linecap:round; stroke-linejoin:round;">
<path d="M112757 53332
L112733 53356
L112660 53381
L112611 53381
L112538 53356
L112489 53308
L112465 53259
L112440 53161
L112440 53088
L112465 52991
L112489 52942
L112538 52893
L112611 52869
L112660 52869
L112733 52893
L112757 52918
" />
</g>
<g style="fill:#000000; fill-opacity:0.0; 
stroke:#000000; stroke-width:39.3701; stroke-opacity:1; 
stroke-linecap:round; stroke-linejoin:round;">
</g>
<g style="fill:#000000; fill-opacity:0.0; 
stroke:#000000; stroke-width:59.0551; stroke-opacity:1; 
stroke-linecap:round; stroke-linejoin:round;">
<path d="M112465 73066
L112465 72554
L112587 72554
L112660 72578
L112708 72627
L112733 72676
L112757 72773
L112757 72846
L112733 72944
L112708 72993
L112660 73041
L112587 73066
L112465 73066
" />
</g>
<g style="fill:#000000; fill-opacity:0.0; 
stroke:#000000; stroke-width:39.3701; stroke-opacity:1; 
stroke-linecap:round; stroke-linejoin:round;">
</g>
<g style="fill:#000000; fill-opacity:0.0; 
stroke:#000000; stroke-width:59.0551; stroke-opacity:1; 
stroke-linecap:round; stroke-linejoin:round;">
<path d="M78881 76293
L78881 75703
L79022 75703
L79106 75731
L79162 75787
L79190 75843
L79219 75956
L79219 76040
L79190 76153
L79162 76209
L79106 76265
L79022 76293
L78881 76293
" />
<path d="M79725 76293
L79725 75984
L79697 75928
L79640 75899
L79528 75899
L79472 75928
" />
<path d="M79725 76265
L79669 76293
L79528 76293
L79472 76265
L79444 76209
L79444 76153
L79472 76096
L79528 76068
L79669 76068
L79725 76040
" />
<path d="M79922 75899
L80147 75899
" />
<path d="M80006 75703
L80006 76209
L80034 76265
L80090 76293
L80147 76293
" />
<path d="M80568 76265
L80512 76293
L80400 76293
L80343 76265
L80315 76209
L80315 75984
L80343 75928
L80400 75899
L80512 75899
L80568 75928
L80597 75984
L80597 76040
L80315 76096
" />
<path d="M80850 76237
L80878 76265
L80850 76293
L80822 76265
L80850 76237
L80850 76293
" />
<path d="M80850 75928
L80878 75956
L80850 75984
L80822 75956
L80850 75928
L80850 75984
" />
</g>
<g style="fill:#000000; fill-opacity:0.0; 
stroke:#000000; stroke-width:39.3701; stroke-opacity:1; 
stroke-linecap:round; stroke-linejoin:round;">
</g>
<g style="fill:#000000; fill-opacity:0.0; 
stroke:#000000; stroke-width:59.0551; stroke-opacity:1; 
stroke-linecap:round; stroke-linejoin:round;">
<path d="M69685 76577
L112205 76577
" />
</g>
<g style="fill:#000000; fill-opacity:0.0; 
stroke:#000000; stroke-width:39.3701; stroke-opacity:1; 
stroke-linecap:round; stroke-linejoin:round;">
</g>
<g style="fill:#000000; fill-opacity:0.0; 
stroke:#000000; stroke-width:59.0551; stroke-opacity:1; 
stroke-linecap:round; stroke-linejoin:round;">
<path d="M70220 77395
L70220 76805
" />
<path d="M70557 77395
L70304 77058
" />
<path d="M70557 76805
L70220 77142
" />
<path d="M70810 77395
L70810 77002
" />
<path d="M70810 76805
L70782 76833
L70810 76861
L70838 76833
L70810 76805
L70810 76861
" />
<path d="M71429 77339
L71401 77367
L71316 77395
L71260 77395
L71176 77367
L71120 77311
L71091 77255
L71063 77142
L71063 77058
L71091 76946
L71120 76889
L71176 76833
L71260 76805
L71316 76805
L71401 76833
L71429 76861
" />
<path d="M71935 77395
L71935 77086
L71907 77030
L71851 77002
L71738 77002
L71682 77030
" />
<path d="M71935 77367
L71879 77395
L71738 77395
L71682 77367
L71654 77311
L71654 77255
L71682 77199
L71738 77171
L71879 77171
L71935 77142
" />
<path d="M72469 77395
L72469 76805
" />
<path d="M72469 77367
L72413 77395
L72301 77395
L72244 77367
L72216 77339
L72188 77283
L72188 77114
L72216 77058
L72244 77030
L72301 77002
L72413 77002
L72469 77030
" />
<path d="M73201 77086
L73397 77086
" />
<path d="M73482 77395
L73201 77395
L73201 76805
L73482 76805
" />
<path d="M73735 77339
L73763 77367
L73735 77395
L73707 77367
L73735 77339
L73735 77395
" />
<path d="M74016 77395
L74016 76805
L74157 76805
L74241 76833
L74297 76889
L74325 76946
L74354 77058
L74354 77142
L74325 77255
L74297 77311
L74241 77367
L74157 77395
L74016 77395
" />
<path d="M74607 77339
L74635 77367
L74607 77395
L74579 77367
L74607 77339
L74607 77395
" />
<path d="M74860 77227
L75141 77227
" />
<path d="M74804 77395
L75000 76805
L75197 77395
" />
<path d="M75394 77339
L75422 77367
L75394 77395
L75366 77367
L75394 77339
L75394 77395
" />
<path d="M76575 77395
L76575 76805
" />
<path d="M76631 77171
L76800 77395
" />
<path d="M76800 77002
L76575 77227
" />
<path d="M77053 77395
L77053 77002
" />
<path d="M77053 76805
L77025 76833
L77053 76861
L77081 76833
L77053 76805
L77053 76861
" />
<path d="M77588 77367
L77531 77395
L77419 77395
L77363 77367
L77334 77339
L77306 77283
L77306 77114
L77334 77058
L77363 77030
L77419 77002
L77531 77002
L77588 77030
" />
<path d="M78094 77395
L78094 77086
L78066 77030
L78009 77002
L77897 77002
L77841 77030
" />
<path d="M78094 77367
L78037 77395
L77897 77395
L77841 77367
L77813 77311
L77813 77255
L77841 77199
L77897 77171
L78037 77171
L78094 77142
" />
<path d="M78628 77395
L78628 76805
" />
<path d="M78628 77367
L78572 77395
L78459 77395
L78403 77367
L78375 77339
L78347 77283
L78347 77114
L78375 77058
L78403 77030
L78459 77002
L78572 77002
L78628 77030
" />
<path d="M79612 77002
L79612 77395
" />
<path d="M79472 76777
L79331 77199
L79697 77199
" />
<path d="M79922 77339
L79950 77367
L79922 77395
L79894 77367
L79922 77339
L79922 77395
" />
<path d="M80315 76805
L80372 76805
L80428 76833
L80456 76861
L80484 76917
L80512 77030
L80512 77171
L80484 77283
L80456 77339
L80428 77367
L80372 77395
L80315 77395
L80259 77367
L80231 77339
L80203 77283
L80175 77171
L80175 77030
L80203 76917
L80231 76861
L80259 76833
L80315 76805
" />
<path d="M80765 77339
L80793 77367
L80765 77395
L80737 77367
L80765 77339
L80765 77395
" />
<path d="M81018 76861
L81046 76833
L81103 76805
L81243 76805
L81300 76833
L81328 76861
L81356 76917
L81356 76974
L81328 77058
L80990 77395
L81356 77395
" />
<path d="M81609 77171
L82059 77171
" />
<path d="M81834 77395
L81834 76946
" />
<path d="M82593 77395
L82593 76805
" />
<path d="M82593 77367
L82537 77395
L82424 77395
L82368 77367
L82340 77339
L82312 77283
L82312 77114
L82340 77058
L82368 77030
L82424 77002
L82537 77002
L82593 77030
" />
<path d="M82790 77002
L83015 77002
" />
<path d="M82874 77395
L82874 76889
L82903 76833
L82959 76805
L83015 76805
" />
<path d="M83184 77367
L83240 77395
L83352 77395
L83409 77367
L83437 77311
L83437 77283
L83409 77227
L83352 77199
L83268 77199
L83212 77171
L83184 77114
L83184 77086
L83212 77030
L83268 77002
L83352 77002
L83409 77030
" />
<path d="M83943 77002
L83943 77480
L83915 77536
L83887 77564
L83831 77592
L83746 77592
L83690 77564
" />
<path d="M83943 77367
L83887 77395
L83774 77395
L83718 77367
L83690 77339
L83662 77283
L83662 77114
L83690 77058
L83718 77030
L83774 77002
L83887 77002
L83943 77030
" />
<path d="M84534 77395
L84196 77395
" />
<path d="M84365 77395
L84365 76805
L84309 76889
L84252 76946
L84196 76974
" />
<path d="M84787 77171
L85237 77171
" />
<path d="M85490 77367
L85546 77395
L85658 77395
L85715 77367
L85743 77311
L85743 77283
L85715 77227
L85658 77199
L85574 77199
L85518 77171
L85490 77114
L85490 77086
L85518 77030
L85574 77002
L85658 77002
L85715 77030
" />
<path d="M85912 77002
L86136 77002
" />
<path d="M85996 76805
L85996 77311
L86024 77367
L86080 77395
L86136 77395
" />
<path d="M86586 77395
L86586 77086
L86558 77030
L86502 77002
L86390 77002
L86333 77030
" />
<path d="M86586 77367
L86530 77395
L86390 77395
L86333 77367
L86305 77311
L86305 77255
L86333 77199
L86390 77171
L86530 77171
L86586 77142
" />
<path d="M86868 77395
L86868 76805
" />
<path d="M86868 77030
L86924 77002
L87036 77002
L87093 77030
L87121 77058
L87149 77114
L87149 77283
L87121 77339
L87093 77367
L87036 77395
L86924 77395
L86868 77367
" />
<path d="M87486 77395
L87430 77367
L87402 77311
L87402 76805
" />
<path d="M87936 77367
L87880 77395
L87768 77395
L87711 77367
L87683 77311
L87683 77086
L87711 77030
L87768 77002
L87880 77002
L87936 77030
L87964 77086
L87964 77142
L87683 77199
" />
</g>
<g style="fill:#000000; fill-opacity:0.0; 
stroke:#000000; stroke-width:39.3701; stroke-opacity:1; 
stroke-linecap:round; stroke-linejoin:round;">
</g>
<g style="fill:#000000; fill-opacity:0.0; 
stroke:#000000; stroke-width:59.0551; stroke-opacity:1; 
stroke-linecap:round; stroke-linejoin:round;">
<path d="M69685 75396
L112205 75396
" />
</g>
<g style="fill:#000000; fill-opacity:0.0; 
stroke:#000000; stroke-width:39.3701; stroke-opacity:1; 
stroke-linecap:round; stroke-linejoin:round;">
</g>
<g style="fill:#000000; fill-opacity:0.0; 
stroke:#000000; stroke-width:118.11; stroke-opacity:1; 
stroke-linecap:round; stroke-linejoin:round;">
<path d="M104022 76293
L103825 76012
" />
<path d="M103684 76293
L103684 75703
L103909 75703
L103965 75731
L103994 75759
L104022 75815
L104022 75899
L103994 75956
L103965 75984
L103909 76012
L103684 76012
" />
<path d="M104500 76265
L104444 76293
L104331 76293
L104275 76265
L104247 76209
L104247 75984
L104275 75928
L104331 75899
L104444 75899
L104500 75928
L104528 75984
L104528 76040
L104247 76096
" />
<path d="M104725 75899
L104865 76293
L105006 75899
" />
<path d="M105231 76237
L105259 76265
L105231 76293
L105203 76265
L105231 76237
L105231 76293
" />
<path d="M105231 75928
L105259 75956
L105231 75984
L105203 75956
L105231 75928
L105231 75984
" />
</g>
<g style="fill:#000000; fill-opacity:0.0; 
stroke:#000000; stroke-width:39.3701; stroke-opacity:1; 
stroke-linecap:round; stroke-linejoin:round;">
</g>
<g style="fill:#000000; fill-opacity:0.0; 
stroke:#000000; stroke-width:59.0551; stroke-opacity:1; 
stroke-linecap:round; stroke-linejoin:round;">
<path d="M70192 76265
L70276 76293
L70417 76293
L70473 76265
L70501 76237
L70529 76181
L70529 76124
L70501 76068
L70473 76040
L70417 76012
L70304 75984
L70248 75956
L70220 75928
L70192 75871
L70192 75815
L70220 75759
L70248 75731
L70304 75703
L70445 75703
L70529 75731
" />
<path d="M70782 76293
L70782 75899
" />
<path d="M70782 75703
L70754 75731
L70782 75759
L70810 75731
L70782 75703
L70782 75759
" />
<path d="M71007 75899
L71316 75899
L71007 76293
L71316 76293
" />
<path d="M71766 76265
L71710 76293
L71598 76293
L71541 76265
L71513 76209
L71513 75984
L71541 75928
L71598 75899
L71710 75899
L71766 75928
L71795 75984
L71795 76040
L71513 76096
" />
<path d="M72048 76237
L72076 76265
L72048 76293
L72019 76265
L72048 76237
L72048 76293
" />
<path d="M72048 75928
L72076 75956
L72048 75984
L72019 75956
L72048 75928
L72048 75984
" />
<path d="M72751 76124
L73032 76124
" />
<path d="M72694 76293
L72891 75703
L73088 76293
" />
<path d="M73538 75899
L73538 76293
" />
<path d="M73397 75674
L73257 76096
L73622 76096
" />
</g>
<g style="fill:#000000; fill-opacity:0.0; 
stroke:#000000; stroke-width:39.3701; stroke-opacity:1; 
stroke-linecap:round; stroke-linejoin:round;">
</g>
<g style="fill:#000000; fill-opacity:0.0; 
stroke:#000000; stroke-width:59.0551; stroke-opacity:1; 
stroke-linecap:round; stroke-linejoin:round;">
<path d="M103684 77395
L103684 76805
" />
<path d="M104219 77395
L104219 76805
" />
<path d="M104219 77367
L104162 77395
L104050 77395
L103994 77367
L103965 77339
L103937 77283
L103937 77114
L103965 77058
L103994 77030
L104050 77002
L104162 77002
L104219 77030
" />
<path d="M104500 77339
L104528 77367
L104500 77395
L104472 77367
L104500 77339
L104500 77395
" />
<path d="M104500 77030
L104528 77058
L104500 77086
L104472 77058
L104500 77030
L104500 77086
" />
<path d="M105540 77395
L105203 77395
" />
<path d="M105372 77395
L105372 76805
L105315 76889
L105259 76946
L105203 76974
" />
<path d="M106215 76777
L105709 77536
" />
<path d="M106721 77395
L106384 77395
" />
<path d="M106553 77395
L106553 76805
L106496 76889
L106440 76946
L106384 76974
" />
</g>
<g style="fill:#000000; fill-opacity:0.0; 
stroke:#000000; stroke-width:39.3701; stroke-opacity:1; 
stroke-linecap:round; stroke-linejoin:round;">
</g>
<g style="fill:#000000; fill-opacity:0.0; 
stroke:#000000; stroke-width:59.0551; stroke-opacity:1; 
stroke-linecap:round; stroke-linejoin:round;">
<path d="M69685 73821
L112205 73821
" />
</g>
<g style="fill:#000000; fill-opacity:0.0; 
stroke:#000000; stroke-width:39.3701; stroke-opacity:1; 
stroke-linecap:round; stroke-linejoin:round;">
</g>
<g style="fill:#000000; fill-opacity:0.0; 
stroke:#000000; stroke-width:157.48; stroke-opacity:1; 
stroke-linecap:round; stroke-linejoin:round;">
<path d="M70257 74099
L70707 74099
" />
<path d="M70384 74886
L70482 74099
" />
<path d="M70871 74886
L70937 74361
" />
<path d="M70970 74099
L70927 74136
L70960 74174
L71002 74136
L70970 74099
L70960 74174
" />
<path d="M71199 74361
L71499 74361
" />
<path d="M71345 74099
L71260 74774
L71288 74849
L71359 74886
L71434 74886
" />
<path d="M71809 74886
L71738 74849
L71710 74774
L71795 74099
" />
<path d="M72413 74849
L72334 74886
L72184 74886
L72113 74849
L72085 74774
L72123 74474
L72169 74399
L72249 74361
L72399 74361
L72469 74399
L72498 74474
L72488 74549
L72104 74624
" />
<path d="M72793 74811
L72826 74849
L72783 74886
L72751 74849
L72793 74811
L72783 74886
" />
<path d="M72844 74399
L72877 74436
L72835 74474
L72802 74436
L72844 74399
L72835 74474
" />
</g>
<g style="fill:#000000; fill-opacity:0.0; 
stroke:#000000; stroke-width:39.3701; stroke-opacity:1; 
stroke-linecap:round; stroke-linejoin:round;">
</g>
<g style="fill:#000000; fill-opacity:0.0; 
stroke:#000000; stroke-width:59.0551; stroke-opacity:1; 
stroke-linecap:round; stroke-linejoin:round;">
<path d="M70417 73070
L70220 73070
" />
<path d="M70220 73380
L70220 72789
L70501 72789
" />
<path d="M70726 73380
L70726 72986
" />
<path d="M70726 72789
L70698 72817
L70726 72845
L70754 72817
L70726 72789
L70726 72845
" />
<path d="M71091 73380
L71035 73352
L71007 73295
L71007 72789
" />
<path d="M71541 73352
L71485 73380
L71373 73380
L71316 73352
L71288 73295
L71288 73070
L71316 73014
L71373 72986
L71485 72986
L71541 73014
L71570 73070
L71570 73127
L71288 73183
" />
<path d="M71823 73323
L71851 73352
L71823 73380
L71795 73352
L71823 73323
L71823 73380
" />
<path d="M71823 73014
L71851 73042
L71823 73070
L71795 73042
L71823 73014
L71823 73070
" />
<path d="M72638 73380
L72582 73352
L72554 73323
L72526 73267
L72526 73099
L72554 73042
L72582 73014
L72638 72986
L72723 72986
L72779 73014
L72807 73042
L72835 73099
L72835 73267
L72807 73323
L72779 73352
L72723 73380
L72638 73380
" />
<path d="M73088 72986
L73088 73577
" />
<path d="M73088 73014
L73144 72986
L73257 72986
L73313 73014
L73341 73042
L73369 73099
L73369 73267
L73341 73323
L73313 73352
L73257 73380
L73144 73380
L73088 73352
" />
<path d="M73538 72986
L73763 72986
" />
<path d="M73622 72789
L73622 73295
L73651 73352
L73707 73380
L73763 73380
" />
<path d="M74044 73380
L73988 73352
L73960 73323
L73932 73267
L73932 73099
L73960 73042
L73988 73014
L74044 72986
L74129 72986
L74185 73014
L74213 73042
L74241 73099
L74241 73267
L74213 73323
L74185 73352
L74129 73380
L74044 73380
" />
<path d="M74494 72986
L74494 73492
L74466 73548
L74410 73577
L74382 73577
" />
<path d="M74494 72789
L74466 72817
L74494 72845
L74522 72817
L74494 72789
L74494 72845
" />
<path d="M74775 73380
L74775 72986
" />
<path d="M74775 72789
L74747 72817
L74775 72845
L74804 72817
L74775 72789
L74775 72845
" />
<path d="M75310 72986
L75310 73464
L75282 73520
L75253 73548
L75197 73577
L75113 73577
L75057 73548
" />
<path d="M75310 73352
L75253 73380
L75141 73380
L75085 73352
L75057 73323
L75028 73267
L75028 73099
L75057 73042
L75085 73014
L75141 72986
L75253 72986
L75310 73014
" />
<path d="M75591 73323
L75619 73352
L75591 73380
L75563 73352
L75591 73323
L75591 73380
" />
<path d="M75872 73380
L75872 72789
" />
<path d="M75928 73155
L76097 73380
" />
<path d="M76097 72986
L75872 73211
" />
<path d="M76350 73380
L76350 72986
" />
<path d="M76350 72789
L76322 72817
L76350 72845
L76378 72817
L76350 72789
L76350 72845
" />
<path d="M76885 73352
L76828 73380
L76716 73380
L76660 73352
L76631 73323
L76603 73267
L76603 73099
L76631 73042
L76660 73014
L76716 72986
L76828 72986
L76885 73014
" />
<path d="M77391 73380
L77391 73070
L77363 73014
L77306 72986
L77194 72986
L77138 73014
" />
<path d="M77391 73352
L77334 73380
L77194 73380
L77138 73352
L77109 73295
L77109 73239
L77138 73183
L77194 73155
L77334 73155
L77391 73127
" />
<path d="M77925 73380
L77925 72789
" />
<path d="M77925 73352
L77869 73380
L77756 73380
L77700 73352
L77672 73323
L77644 73267
L77644 73099
L77672 73042
L77700 73014
L77756 72986
L77869 72986
L77925 73014
" />
<path d="M78066 73436
L78516 73436
" />
<path d="M78656 72986
L78656 73577
" />
<path d="M78656 73014
L78712 72986
L78825 72986
L78881 73014
L78909 73042
L78937 73099
L78937 73267
L78909 73323
L78881 73352
L78825 73380
L78712 73380
L78656 73352
" />
<path d="M79444 73352
L79387 73380
L79275 73380
L79219 73352
L79190 73323
L79162 73267
L79162 73099
L79190 73042
L79219 73014
L79275 72986
L79387 72986
L79444 73014
" />
<path d="M79697 73380
L79697 72789
" />
<path d="M79697 73014
L79753 72986
L79865 72986
L79922 73014
L79950 73042
L79978 73099
L79978 73267
L79950 73323
L79922 73352
L79865 73380
L79753 73380
L79697 73352
" />
</g>
<g style="fill:#000000; fill-opacity:0.0; 
stroke:#000000; stroke-width:39.3701; stroke-opacity:1; 
stroke-linecap:round; stroke-linejoin:round;">
</g>
<g style="fill:#000000; fill-opacity:0.0; 
stroke:#000000; stroke-width:59.0551; stroke-opacity:1; 
stroke-linecap:round; stroke-linejoin:round;">
<path d="M69685 71459
L112205 71459
" />
</g>
<g style="fill:#000000; fill-opacity:0.0; 
stroke:#000000; stroke-width:39.3701; stroke-opacity:1; 
stroke-linecap:round; stroke-linejoin:round;">
</g>
<g style="fill:#000000; fill-opacity:0.0; 
stroke:#000000; stroke-width:59.0551; stroke-opacity:1; 
stroke-linecap:round; stroke-linejoin:round;">
<path d="M70192 72289
L70276 72317
L70417 72317
L70473 72289
L70501 72260
L70529 72204
L70529 72148
L70501 72092
L70473 72064
L70417 72036
L70304 72007
L70248 71979
L70220 71951
L70192 71895
L70192 71839
L70220 71782
L70248 71754
L70304 71726
L70445 71726
L70529 71754
" />
<path d="M70782 72317
L70782 71726
" />
<path d="M71035 72317
L71035 72007
L71007 71951
L70951 71923
L70867 71923
L70810 71951
L70782 71979
" />
<path d="M71541 72289
L71485 72317
L71373 72317
L71316 72289
L71288 72232
L71288 72007
L71316 71951
L71373 71923
L71485 71923
L71541 71951
L71570 72007
L71570 72064
L71288 72120
" />
<path d="M72048 72289
L71991 72317
L71879 72317
L71823 72289
L71795 72232
L71795 72007
L71823 71951
L71879 71923
L71991 71923
L72048 71951
L72076 72007
L72076 72064
L71795 72120
" />
<path d="M72244 71923
L72469 71923
" />
<path d="M72329 71726
L72329 72232
L72357 72289
L72413 72317
L72469 72317
" />
<path d="M72666 72260
L72694 72289
L72666 72317
L72638 72289
L72666 72260
L72666 72317
" />
<path d="M72666 71951
L72694 71979
L72666 72007
L72638 71979
L72666 71951
L72666 72007
" />
</g>
<g style="fill:#000000; fill-opacity:0.0; 
stroke:#000000; stroke-width:39.3701; stroke-opacity:1; 
stroke-linecap:round; stroke-linejoin:round;">
</g>
<g style="fill:#000000; fill-opacity:0.0; 
stroke:#000000; stroke-width:59.0551; stroke-opacity:1; 
stroke-linecap:round; stroke-linejoin:round;">
<path d="M77559 75396
L77559 76577
" />
</g>
<g style="fill:#000000; fill-opacity:0.0; 
stroke:#000000; stroke-width:39.3701; stroke-opacity:1; 
stroke-linecap:round; stroke-linejoin:round;">
</g>
<g style="fill:#000000; fill-opacity:0.0; 
stroke:#000000; stroke-width:59.0551; stroke-opacity:1; 
stroke-linecap:round; stroke-linejoin:round;">
<path d="M102756 75396
L102756 77955
" />
</g>
<g style="fill:#008484; fill-opacity:0.0; 
stroke:#008484; stroke-width:59.0551; stroke-opacity:1; 
stroke-linecap:round; stroke-linejoin:round;">
</g>
<g style="fill:#008484; fill-opacity:0.0; 
stroke:#008484; stroke-width:275.591; stroke-opacity:1; 
stroke-linecap:round; stroke-linejoin:round;">
<path d="M51771 19094
L51771 20669
" />
<path d="M50984 19881
L52559 19881
" />
<path d="M61220 53937
L61220 55511
" />
<path d="M60433 54724
L62007 54724
" />
<path d="M74606 27952
L76181 27952
" />
<path d="M69881 27952
L71456 27952
" />
<path d="M70669 27165
L70669 28740
" />
<path d="M39566 27952
L41141 27952
" />
<path d="M35629 27165
L35629 28740
" />
<path d="M34842 27952
L36417 27952
" />
</g>
<g style="fill:#008484; fill-opacity:0.0; 
stroke:#008484; stroke-width:118.11; stroke-opacity:1; 
stroke-linecap:round; stroke-linejoin:round;">
<path d="M30933 19164
L31046 19164
L31102 19192
L31158 19249
L31186 19361
L31186 19558
L31158 19670
L31102 19727
L31046 19755
L30933 19755
L30877 19727
L30821 19670
L30793 19558
L30793 19361
L30821 19249
L30877 19192
L30933 19164
" />
<path d="M31636 19446
L31439 19446
" />
<path d="M31439 19755
L31439 19164
L31721 19164
" />
<path d="M32142 19446
L31946 19446
" />
<path d="M31946 19755
L31946 19164
L32227 19164
" />
<path d="M35067 19164
L35179 19164
L35236 19192
L35292 19249
L35320 19361
L35320 19558
L35292 19670
L35236 19727
L35179 19755
L35067 19755
L35011 19727
L34955 19670
L34926 19558
L34926 19361
L34955 19249
L35011 19192
L35067 19164
" />
<path d="M35573 19755
L35573 19164
L35911 19755
L35911 19164
" />
</g>
<g style="fill:#008484; fill-opacity:0.0; 
stroke:#008484; stroke-width:275.591; stroke-opacity:1; 
stroke-linecap:round; stroke-linejoin:round;">
<path d="M66929 35039
L66141 35039
" />
<path d="M66141 35039
L66141 37007
" />
<path d="M66141 37007
L65748 37007
" />
<path d="M65748 37007
L66535 37795
" />
<path d="M66535 37795
L67322 37007
" />
<path d="M67322 37007
L66929 37007
" />
<path d="M66929 37007
L66929 35039
" />
<path d="M44094 35826
L44094 37795
" />
<path d="M43700 35826
L44094 35826
" />
<path d="M44488 35039
L43700 35826
" />
<path d="M45275 35826
L44488 35039
" />
<path d="M44881 35826
L45275 35826
" />
<path d="M44881 37795
L44881 35826
" />
<path d="M44094 37795
L44881 37795
" />
</g>
<g style="fill:#C2C200; fill-opacity:0.0; 
stroke:#C2C200; stroke-width:275.591; stroke-opacity:1; 
stroke-linecap:round; stroke-linejoin:round;">
</g>
<g style="fill:#C2C200; fill-opacity:0.0; 
stroke:#C2C200; stroke-width:39.3701; stroke-opacity:1; 
stroke-linecap:round; stroke-linejoin:round;">
<path d="M27019 33513
L27019 17765
" />
<path d="M17176 33513
L27019 33513
" />
<path d="M17176 41387
L17176 33513
" />
<path d="M27019 41387
L17176 41387
" />
<path d="M27019 57135
L27019 41387
" />
<path d="M86074 57135
L27019 57135
" />
<path d="M86074 41387
L86074 57135
" />
<path d="M95916 41387
L86074 41387
" />
<path d="M95916 33513
L95916 41387
" />
<path d="M86074 33513
L95916 33513
" />
<path d="M86074 17765
L86074 33513
" />
<path d="M27019 17765
L86074 17765
" />
</g>
<g style="fill:#C2C200; fill-opacity:0.0; 
stroke:#C2C200; stroke-width:59.0551; stroke-opacity:1; 
stroke-linecap:round; stroke-linejoin:round;">
<path d="M73996 55877
L74052 55896
L74071 55914
L74090 55952
L74090 56008
L74071 56046
L74052 56064
L74015 56083
L73865 56083
L73865 55689
L73996 55689
L74034 55708
L74052 55727
L74071 55764
L74071 55802
L74052 55839
L74034 55858
L73996 55877
L73865 55877
" />
<path d="M74427 56083
L74427 55877
L74409 55839
L74371 55821
L74296 55821
L74259 55839
" />
<path d="M74427 56064
L74390 56083
L74296 56083
L74259 56064
L74240 56027
L74240 55989
L74259 55952
L74296 55933
L74390 55933
L74427 55914
" />
<path d="M74559 55821
L74709 55821
" />
<path d="M74615 55689
L74615 56027
L74634 56064
L74671 56083
L74709 56083
" />
<path d="M74784 55821
L74934 55821
" />
<path d="M74840 55689
L74840 56027
L74859 56064
L74896 56083
L74934 56083
" />
<path d="M75215 56064
L75177 56083
L75102 56083
L75065 56064
L75046 56027
L75046 55877
L75065 55839
L75102 55821
L75177 55821
L75215 55839
L75233 55877
L75233 55914
L75046 55952
" />
<path d="M75402 56083
L75402 55821
" />
<path d="M75402 55896
L75421 55858
L75440 55839
L75477 55821
L75515 55821
" />
<path d="M75608 55821
L75702 56083
" />
<path d="M75796 55821
L75702 56083
L75665 56177
L75646 56196
L75608 56214
" />
<path d="M76227 55727
L76246 55708
L76283 55689
L76377 55689
L76415 55708
L76433 55727
L76452 55764
L76452 55802
L76433 55858
L76208 56083
L76452 56083
" />
<path d="M72631 26152
L72687 26171
L72706 26190
L72725 26227
L72725 26283
L72706 26321
L72687 26340
L72650 26358
L72500 26358
L72500 25965
L72631 25965
L72669 25983
L72687 26002
L72706 26040
L72706 26077
L72687 26115
L72669 26133
L72631 26152
L72500 26152
" />
<path d="M72837 25965
L73062 25965
" />
<path d="M72950 26358
L72950 25965
" />
<path d="M73400 26358
L73175 26358
" />
<path d="M73287 26358
L73287 25965
L73250 26021
L73212 26058
L73175 26077
" />
<path d="M37592 26152
L37648 26171
L37667 26190
L37685 26227
L37685 26283
L37667 26321
L37648 26340
L37610 26358
L37461 26358
L37461 25965
L37592 25965
L37629 25983
L37648 26002
L37667 26040
L37667 26077
L37648 26115
L37629 26133
L37592 26152
L37461 26152
" />
<path d="M37798 25965
L38023 25965
" />
<path d="M37910 26358
L37910 25965
" />
<path d="M38135 26002
L38154 25983
L38192 25965
L38285 25965
L38323 25983
L38342 26002
L38360 26040
L38360 26077
L38342 26133
L38117 26358
L38360 26358
" />
<path d="M53583 53130
L53396 53130
L53396 52736
" />
<path d="M53715 53130
L53715 52736
L53808 52736
L53865 52755
L53902 52793
L53921 52830
L53940 52905
L53940 52961
L53921 53036
L53902 53074
L53865 53111
L53808 53130
L53715 53130
" />
<path d="M54333 53130
L54202 52943
" />
<path d="M54108 53130
L54108 52736
L54258 52736
L54296 52755
L54315 52774
L54333 52811
L54333 52868
L54315 52905
L54296 52924
L54258 52943
L54108 52943
" />
<path d="M54708 53130
L54483 53130
" />
<path d="M54596 53130
L54596 52736
L54558 52793
L54521 52830
L54483 52849
" />
<path d="M58095 22028
L57908 22028
L57908 21635
" />
<path d="M58227 22028
L58227 21635
L58320 21635
L58377 21653
L58414 21691
L58433 21728
L58452 21803
L58452 21860
L58433 21935
L58414 21972
L58377 22010
L58320 22028
L58227 22028
" />
<path d="M58845 22028
L58714 21841
" />
<path d="M58620 22028
L58620 21635
L58770 21635
L58808 21653
L58826 21672
L58845 21710
L58845 21766
L58826 21803
L58808 21822
L58770 21841
L58620 21841
" />
<path d="M58995 21672
L59014 21653
L59051 21635
L59145 21635
L59183 21653
L59201 21672
L59220 21710
L59220 21747
L59201 21803
L58976 22028
L59220 22028
" />
<path d="M53783 22028
L53596 22028
L53596 21635
" />
<path d="M53915 21822
L54046 21822
" />
<path d="M54102 22028
L53915 22028
L53915 21635
L54102 21635
" />
<path d="M54271 22028
L54271 21635
L54365 21635
L54421 21653
L54458 21691
L54477 21728
L54496 21803
L54496 21860
L54477 21935
L54458 21972
L54421 22010
L54365 22028
L54271 22028
" />
<path d="M54871 22028
L54646 22028
" />
<path d="M54758 22028
L54758 21635
L54721 21691
L54683 21728
L54646 21747
" />
<path d="M58327 53130
L58139 53130
L58139 52736
" />
<path d="M58458 52924
L58589 52924
" />
<path d="M58645 53130
L58458 53130
L58458 52736
L58645 52736
" />
<path d="M58814 53130
L58814 52736
L58908 52736
L58964 52755
L59002 52793
L59020 52830
L59039 52905
L59039 52961
L59020 53036
L59002 53074
L58964 53111
L58908 53130
L58814 53130
" />
<path d="M59189 52774
L59208 52755
L59245 52736
L59339 52736
L59377 52755
L59395 52774
L59414 52811
L59414 52849
L59395 52905
L59170 53130
L59414 53130
" />
<path d="M53899 28207
L53862 28188
L53824 28151
L53768 28095
L53730 28076
L53693 28076
" />
<path d="M53712 28170
L53674 28151
L53637 28113
L53618 28038
L53618 27907
L53637 27832
L53674 27795
L53712 27776
L53787 27776
L53824 27795
L53862 27832
L53880 27907
L53880 28038
L53862 28113
L53824 28151
L53787 28170
L53712 28170
" />
<path d="M54255 28170
L54030 28170
" />
<path d="M54143 28170
L54143 27776
L54105 27832
L54068 27870
L54030 27889
" />
<path d="M55474 50648
L55436 50629
L55399 50592
L55343 50536
L55305 50517
L55268 50517
" />
<path d="M55286 50611
L55249 50592
L55211 50554
L55193 50479
L55193 50348
L55211 50273
L55249 50236
L55286 50217
L55361 50217
L55399 50236
L55436 50273
L55455 50348
L55455 50479
L55436 50554
L55399 50592
L55361 50611
L55286 50611
" />
<path d="M55605 50254
L55624 50236
L55661 50217
L55755 50217
L55793 50236
L55811 50254
L55830 50292
L55830 50329
L55811 50386
L55586 50611
L55830 50611
" />
<path d="M55493 31100
L55305 31231
" />
<path d="M55493 31325
L55099 31325
L55099 31175
L55118 31138
L55136 31119
L55174 31100
L55230 31100
L55268 31119
L55286 31138
L55305 31175
L55305 31325
" />
<path d="M55286 30800
L55305 30744
L55324 30725
L55361 30706
L55418 30706
L55455 30725
L55474 30744
L55493 30781
L55493 30931
L55099 30931
L55099 30800
L55118 30763
L55136 30744
L55174 30725
L55211 30725
L55249 30744
L55268 30763
L55286 30800
L55286 30931
" />
<path d="M55493 30331
L55493 30556
" />
<path d="M55493 30444
L55099 30444
L55155 30481
L55193 30519
L55211 30556
" />
<path d="M54311 43046
L54124 43177
" />
<path d="M54311 43271
L53918 43271
L53918 43121
L53936 43083
L53955 43065
L53993 43046
L54049 43046
L54086 43065
L54105 43083
L54124 43121
L54124 43271
" />
<path d="M54105 42746
L54124 42690
L54143 42671
L54180 42652
L54236 42652
L54274 42671
L54293 42690
L54311 42727
L54311 42877
L53918 42877
L53918 42746
L53936 42708
L53955 42690
L53993 42671
L54030 42671
L54068 42690
L54086 42708
L54105 42746
L54105 42877
" />
<path d="M53955 42502
L53936 42483
L53918 42446
L53918 42352
L53936 42315
L53955 42296
L53993 42277
L54030 42277
L54086 42296
L54311 42521
L54311 42277
" />
<path d="M52343 39762
L52156 39893
" />
<path d="M52343 39987
L51949 39987
L51949 39837
L51968 39799
L51987 39780
L52024 39762
L52081 39762
L52118 39780
L52137 39799
L52156 39837
L52156 39987
" />
<path d="M52343 39593
L51949 39593
L51949 39499
L51968 39443
L52006 39405
L52043 39387
L52118 39368
L52174 39368
L52249 39387
L52287 39405
L52324 39443
L52343 39499
L52343 39593
" />
<path d="M52343 38993
L52343 39218
" />
<path d="M52343 39105
L51949 39105
L52006 39143
L52043 39180
L52062 39218
" />
<path d="M62186 40943
L61998 41074
" />
<path d="M62186 41168
L61792 41168
L61792 41018
L61811 40980
L61829 40961
L61867 40943
L61923 40943
L61961 40961
L61979 40980
L61998 41018
L61998 41168
" />
<path d="M62186 40774
L61792 40774
L61792 40680
L61811 40624
L61848 40586
L61886 40568
L61961 40549
L62017 40549
L62092 40568
L62129 40586
L62167 40624
L62186 40680
L62186 40774
" />
<path d="M61829 40399
L61811 40380
L61792 40343
L61792 40249
L61811 40211
L61829 40193
L61867 40174
L61904 40174
L61961 40193
L62186 40418
L62186 40174
" />
<path d="M51556 23217
L51368 23348
" />
<path d="M51556 23442
L51162 23442
L51162 23292
L51181 23254
L51199 23235
L51237 23217
L51293 23217
L51331 23235
L51349 23254
L51368 23292
L51368 23442
" />
<path d="M51537 23067
L51556 23011
L51556 22917
L51537 22879
L51518 22861
L51481 22842
L51443 22842
L51406 22861
L51387 22879
L51368 22917
L51349 22992
L51331 23029
L51312 23048
L51274 23067
L51237 23067
L51199 23048
L51181 23029
L51162 22992
L51162 22898
L51181 22842
" />
<path d="M51556 22467
L51556 22692
" />
<path d="M51556 22579
L51162 22579
L51218 22617
L51256 22654
L51274 22692
" />
<path d="M55916 53130
L55785 52943
" />
<path d="M55691 53130
L55691 52737
L55841 52737
L55879 52755
L55897 52774
L55916 52812
L55916 52868
L55897 52905
L55879 52924
L55841 52943
L55691 52943
" />
<path d="M56066 53112
L56122 53130
L56216 53130
L56254 53112
L56272 53093
L56291 53055
L56291 53018
L56272 52980
L56254 52962
L56216 52943
L56141 52924
L56104 52905
L56085 52887
L56066 52849
L56066 52812
L56085 52774
L56104 52755
L56141 52737
L56235 52737
L56291 52755
" />
<path d="M56441 52774
L56460 52755
L56497 52737
L56591 52737
L56629 52755
L56647 52774
L56666 52812
L56666 52849
L56647 52905
L56422 53130
L56666 53130
" />
<path d="M40256 23134
L40575 23134
L40613 23115
L40631 23097
L40650 23059
L40650 22984
L40631 22947
L40613 22928
L40575 22909
L40256 22909
" />
<path d="M40650 22515
L40650 22740
" />
<path d="M40650 22628
L40256 22628
L40313 22665
L40350 22703
L40369 22740
" />
<path d="M55369 39626
L55369 39945
L55388 39983
L55406 40001
L55444 40020
L55519 40020
L55556 40001
L55575 39983
L55594 39945
L55594 39626
" />
<path d="M55763 39664
L55781 39645
L55819 39626
L55913 39626
L55950 39645
L55969 39664
L55988 39701
L55988 39739
L55969 39795
L55744 40020
L55988 40020
" />
<path d="M48406 37064
L48012 37064
L48012 36914
L48031 36876
L48050 36857
L48087 36839
L48143 36839
L48181 36857
L48200 36876
L48218 36914
L48218 37064
" />
<path d="M48012 36595
L48012 36520
L48031 36482
L48068 36445
L48143 36426
L48275 36426
L48350 36445
L48387 36482
L48406 36520
L48406 36595
L48387 36632
L48350 36670
L48275 36689
L48143 36689
L48068 36670
L48031 36632
L48012 36595
" />
<path d="M48012 36314
L48012 36089
" />
<path d="M48406 36201
L48012 36201
" />
<path d="M48406 35751
L48406 35976
" />
<path d="M48406 35864
L48012 35864
L48068 35901
L48106 35939
L48125 35976
" />
<path d="M65729 37064
L65335 37064
L65335 36914
L65354 36876
L65373 36857
L65410 36839
L65466 36839
L65504 36857
L65523 36876
L65541 36914
L65541 37064
" />
<path d="M65335 36595
L65335 36520
L65354 36482
L65391 36445
L65466 36426
L65598 36426
L65673 36445
L65710 36482
L65729 36520
L65729 36595
L65710 36632
L65673 36670
L65598 36689
L65466 36689
L65391 36670
L65354 36632
L65335 36595
" />
<path d="M65335 36314
L65335 36089
" />
<path d="M65729 36201
L65335 36201
" />
<path d="M65373 35976
L65354 35958
L65335 35920
L65335 35826
L65354 35789
L65373 35770
L65410 35751
L65448 35751
L65504 35770
L65729 35995
L65729 35751
" />
<path d="M32939 19844
L32995 19863
L33089 19863
L33127 19844
L33145 19825
L33164 19788
L33164 19750
L33145 19713
L33127 19694
L33089 19675
L33014 19656
L32977 19638
L32958 19619
L32939 19581
L32939 19544
L32958 19506
L32977 19488
L33014 19469
L33108 19469
L33164 19488
" />
<path d="M33295 19469
L33389 19863
L33464 19581
L33539 19863
L33633 19469
" />
<path d="M33989 19863
L33764 19863
" />
<path d="M33877 19863
L33877 19469
L33839 19525
L33802 19563
L33764 19581
" />
<path d="M35410 55743
L35466 55762
L35485 55781
L35503 55818
L35503 55874
L35485 55912
L35466 55931
L35428 55949
L35278 55949
L35278 55556
L35410 55556
L35447 55574
L35466 55593
L35485 55631
L35485 55668
L35466 55706
L35447 55724
L35410 55743
L35278 55743
" />
<path d="M35841 55949
L35841 55743
L35822 55706
L35784 55687
L35709 55687
L35672 55706
" />
<path d="M35841 55931
L35803 55949
L35709 55949
L35672 55931
L35653 55893
L35653 55856
L35672 55818
L35709 55799
L35803 55799
L35841 55781
" />
<path d="M35972 55687
L36122 55687
" />
<path d="M36028 55556
L36028 55893
L36047 55931
L36084 55949
L36122 55949
" />
<path d="M36197 55687
L36347 55687
" />
<path d="M36253 55556
L36253 55893
L36272 55931
L36309 55949
L36347 55949
" />
<path d="M36628 55931
L36591 55949
L36516 55949
L36478 55931
L36459 55893
L36459 55743
L36478 55706
L36516 55687
L36591 55687
L36628 55706
L36647 55743
L36647 55781
L36459 55818
" />
<path d="M36816 55949
L36816 55687
" />
<path d="M36816 55762
L36834 55724
L36853 55706
L36891 55687
L36928 55687
" />
<path d="M37022 55687
L37116 55949
" />
<path d="M37209 55687
L37116 55949
L37078 56043
L37059 56062
L37022 56080
" />
<path d="M37865 55949
L37640 55949
" />
<path d="M37753 55949
L37753 55556
L37715 55612
L37678 55649
L37640 55668
" />
</g>
<g style="fill:#008484; fill-opacity:0.0; 
stroke:#008484; stroke-width:59.0551; stroke-opacity:1; 
stroke-linecap:round; stroke-linejoin:round;">
</g>
<g style="fill:#008484; fill-opacity:0.0; 
stroke:#008484; stroke-width:275.591; stroke-opacity:1; 
stroke-linecap:round; stroke-linejoin:round;">
<path d="M78988 35807
L78988 38169
" />
<path d="M77807 36988
L80169 36988
" />
<path d="M69125 34879
L80976 34879
" />
<path d="M69125 56419
L80976 56419
" />
<path d="M80976 34879
L80976 56419
" />
<path d="M69125 34879
L69125 56419
" />
</g>
<g style="fill:#008484; fill-opacity:0.0; 
stroke:#008484; stroke-width:59.0551; stroke-opacity:1; 
stroke-linecap:round; stroke-linejoin:round;">
<path d="M74042 28976
L71838 28976
" />
<path d="M71916 29172
L71916 28976
" />
<path d="M73964 28976
L73964 29172
" />
<path d="M72940 29172
L72940 28976
" />
<path d="M71838 26889
L74042 26889
" />
<path d="M71838 29172
L74042 29172
" />
<path d="M74042 29172
L74042 26732
" />
<path d="M74042 26732
L71838 26732
" />
<path d="M71838 26732
L71838 29172
" />
<path d="M39003 28976
L36799 28976
" />
<path d="M36877 29172
L36877 28976
" />
<path d="M38925 28976
L38925 29172
" />
<path d="M37901 29172
L37901 28976
" />
<path d="M36799 26889
L39003 26889
" />
<path d="M36799 29172
L39003 29172
" />
<path d="M39003 29172
L39003 26732
" />
<path d="M39003 26732
L36799 26732
" />
<path d="M36799 26732
L36799 29172
" />
<path d="M55145 55748
L52941 55748
" />
<path d="M53019 55944
L53019 55748
" />
<path d="M55067 55748
L55067 55944
" />
<path d="M54043 55944
L54043 55748
" />
<path d="M52941 53661
L55145 53661
" />
<path d="M52941 55944
L55145 55944
" />
<path d="M55145 55944
L55145 53504
" />
<path d="M55145 53504
L52941 53504
" />
<path d="M52941 53504
L52941 55944
" />
<path d="M57453 19054
L59657 19054
" />
<path d="M59579 18858
L59579 19054
" />
<path d="M57531 19054
L57531 18858
" />
<path d="M58555 18858
L58555 19054
" />
<path d="M59657 21141
L57453 21141
" />
<path d="M59657 18858
L57453 18858
" />
<path d="M57453 18858
L57453 21298
" />
<path d="M57453 21298
L59657 21298
" />
<path d="M59657 21298
L59657 18858
" />
<path d="M53122 19054
L55326 19054
" />
<path d="M55248 18858
L55248 19054
" />
<path d="M53200 19054
L53200 18858
" />
<path d="M54224 18858
L54224 19054
" />
<path d="M55326 21141
L53122 21141
" />
<path d="M55326 18858
L53122 18858
" />
<path d="M53122 18858
L53122 21298
" />
<path d="M53122 21298
L55326 21298
" />
<path d="M55326 21298
L55326 18858
" />
<path d="M59869 55748
L57665 55748
" />
<path d="M57743 55944
L57743 55748
" />
<path d="M59791 55748
L59791 55944
" />
<path d="M58767 55944
L58767 55748
" />
<path d="M57665 53661
L59869 53661
" />
<path d="M57665 55944
L59869 55944
" />
<path d="M59869 55944
L59869 53504
" />
<path d="M59869 53504
L57665 53504
" />
<path d="M57665 53504
L57665 55944
" />
</g>
<g style="fill:#008484; fill-opacity:0.0; 
stroke:#008484; stroke-width:196.85; stroke-opacity:1; 
stroke-linecap:round; stroke-linejoin:round;">
<circle cx="52480.3" cy="27047.2" r="88.0343" /> 
</g>
<g style="fill:#008484; fill-opacity:0.0; 
stroke:#008484; stroke-width:59.0551; stroke-opacity:1; 
stroke-linecap:round; stroke-linejoin:round;">
<path d="M55787 23740
L55787 27440
" />
<path d="M55787 27440
L52086 27440
" />
<path d="M52086 27440
L52086 23740
" />
<path d="M52086 23740
L55787 23740
" />
</g>
<g style="fill:#008484; fill-opacity:0.0; 
stroke:#008484; stroke-width:196.85; stroke-opacity:1; 
stroke-linecap:round; stroke-linejoin:round;">
<circle cx="54055.1" cy="49488.2" r="88.0343" /> 
</g>
<g style="fill:#008484; fill-opacity:0.0; 
stroke:#008484; stroke-width:59.0551; stroke-opacity:1; 
stroke-linecap:round; stroke-linejoin:round;">
<path d="M57362 46181
L57362 49881
" />
<path d="M57362 49881
L53661 49881
" />
<path d="M53661 49881
L53661 46181
" />
<path d="M53661 46181
L57362 46181
" />
<path d="M54437 29740
L54437 31740
" />
<path d="M54437 31740
L53437 31740
" />
<path d="M53437 31740
L53437 29740
" />
<path d="M53437 29740
L54437 29740
" />
<path d="M53937 29740
L53937 29240
" />
<path d="M53937 31740
L53937 32240
" />
<path d="M55011 43881
L55011 41881
" />
<path d="M55011 41881
L56011 41881
" />
<path d="M56011 41881
L56011 43881
" />
<path d="M56011 43881
L55011 43881
" />
<path d="M55511 43881
L55511 44381
" />
<path d="M55511 41881
L55511 41381
" />
<path d="M51287 38401
L51287 40401
" />
<path d="M51287 40401
L50287 40401
" />
<path d="M50287 40401
L50287 38401
" />
<path d="M50287 38401
L51287 38401
" />
<path d="M50787 38401
L50787 37901
" />
<path d="M50787 40401
L50787 40901
" />
<path d="M61129 39582
L61129 41582
" />
<path d="M61129 41582
L60129 41582
" />
<path d="M60129 41582
L60129 39582
" />
<path d="M60129 39582
L61129 39582
" />
<path d="M60629 39582
L60629 39082
" />
<path d="M60629 41582
L60629 42082
" />
<path d="M50500 21866
L50500 23866
" />
<path d="M50500 23866
L49500 23866
" />
<path d="M49500 23866
L49500 21866
" />
<path d="M49500 21866
L50500 21866
" />
<path d="M50000 21866
L50000 21366
" />
<path d="M50000 23866
L50000 24366
" />
<path d="M57267 52074
L55267 52074
" />
<path d="M55267 52074
L55267 51074
" />
<path d="M55267 51074
L57267 51074
" />
<path d="M57267 51074
L57267 52074
" />
<path d="M57267 51574
L57767 51574
" />
<path d="M55267 51574
L54767 51574
" />
<path d="M37007 20748
L40039 20748
" />
<path d="M37007 25236
L40039 25236
" />
<path d="M37007 25393
L37007 20590
" />
<path d="M37007 20590
L40039 20590
" />
<path d="M40039 20590
L40039 25393
" />
<path d="M40039 25393
L37007 25393
" />
</g>
<g style="fill:#008484; fill-opacity:0.0; 
stroke:#008484; stroke-width:196.85; stroke-opacity:1; 
stroke-linecap:round; stroke-linejoin:round;">
<circle cx="54330.7" cy="34842.5" r="98.4252" /> 
</g>
<g style="fill:#008484; fill-opacity:0.0; 
stroke:#008484; stroke-width:59.0551; stroke-opacity:1; 
stroke-linecap:round; stroke-linejoin:round;">
<path d="M53990 34529
L53990 35029
" />
<path d="M56883 34529
L56883 35029
" />
<path d="M56883 39336
L56883 38836
" />
<path d="M53990 39336
L53990 38836
" />
<path d="M53990 34529
L56883 34529
" />
<path d="M53990 39336
L56883 39336
" />
<path d="M53990 35029
L53484 35029
" />
<path d="M47834 34488
L47834 38346
" />
<path d="M47834 38346
L45866 38346
" />
<path d="M45866 38346
L45866 34488
" />
<path d="M47834 34488
L45866 34488
" />
<path d="M65157 34488
L65157 38346
" />
<path d="M65157 38346
L63188 38346
" />
<path d="M63188 38346
L63188 34488
" />
<path d="M65157 34488
L63188 34488
" />
<path d="M35078 22244
L31850 22244
" />
<path d="M31850 22244
L31850 21062
" />
<path d="M31850 21062
L35078 21062
" />
<path d="M35078 21062
L35078 22244
" />
<path d="M36220 23188
L30708 23188
" />
<path d="M30708 23188
L30708 20118
" />
<path d="M30708 20118
L36220 20118
" />
<path d="M36220 20118
L36220 23188
" />
</g>
<g style="fill:#008484; fill-opacity:0.0; 
stroke:#008484; stroke-width:275.591; stroke-opacity:1; 
stroke-linecap:round; stroke-linejoin:round;">
<path d="M40452 35803
L40452 38165
" />
<path d="M39271 36984
L41633 36984
" />
<path d="M30590 34875
L42440 34875
" />
<path d="M30590 56415
L42440 56415
" />
<path d="M42440 34875
L42440 56415
" />
<path d="M30590 34875
L30590 56415
" />
</g>
<g style="fill:#840000; fill-opacity:0.0; 
stroke:#840000; stroke-width:275.591; stroke-opacity:1; 
stroke-linecap:round; stroke-linejoin:round;">
</g>
<g style="fill:#840000; fill-opacity:1.0; 
stroke:#840000; stroke-width:0; stroke-opacity:1; 
stroke-linecap:round; stroke-linejoin:round;">
<circle cx="70728.3" cy="40399.6" r="984.252" /> 
</g>
<g style="fill:#840000; fill-opacity:1.0; 
stroke:#840000; stroke-width:39.3701; stroke-opacity:1; 
stroke-linecap:round; stroke-linejoin:round;">
</g>
<g style="fill:#840000; fill-opacity:1.0; 
stroke:#840000; stroke-width:0; stroke-opacity:1; 
stroke-linecap:round; stroke-linejoin:round;">
<circle cx="79378" cy="45828.7" r="984.252" /> 
</g>
<g style="fill:#840000; fill-opacity:1.0; 
stroke:#840000; stroke-width:39.3701; stroke-opacity:1; 
stroke-linecap:round; stroke-linejoin:round;">
</g>
<g style="fill:#840000; fill-opacity:1.0; 
stroke:#840000; stroke-width:0; stroke-opacity:1; 
stroke-linecap:round; stroke-linejoin:round;">
<circle cx="70728.3" cy="51458.7" r="984.252" /> 
</g>
<g style="fill:#840000; fill-opacity:1.0; 
stroke:#840000; stroke-width:39.3701; stroke-opacity:1; 
stroke-linecap:round; stroke-linejoin:round;">
</g>
<g style="fill:#840000; fill-opacity:1.0; 
stroke:#840000; stroke-width:787; stroke-opacity:1; 
stroke-linecap:round; stroke-linejoin:round;">
</g>
<g style="fill:#840000; fill-opacity:0.0; 
stroke:#840000; stroke-width:787; stroke-opacity:1; 
stroke-linecap:round; stroke-linejoin:round;">
<path d="M73440 27952
L73440 27952
" />
</g>
<g style="fill:#840000; fill-opacity:0.0; 
stroke:#840000; stroke-width:0; stroke-opacity:1; 
stroke-linecap:round; stroke-linejoin:round;">
</g>
<g style="fill:#840000; fill-opacity:1.0; 
stroke:#840000; stroke-width:0; stroke-opacity:1; 
stroke-linecap:round; stroke-linejoin:round;">
<polyline style="fill-rule:evenodd;"
points="72047,28346
72047,27559
72834,27559
72834,28346
72047,28346
" /> 
</g>
<g style="fill:#840000; fill-opacity:1.0; 
stroke:#840000; stroke-width:787; stroke-opacity:1; 
stroke-linecap:round; stroke-linejoin:round;">
</g>
<g style="fill:#840000; fill-opacity:0.0; 
stroke:#840000; stroke-width:787; stroke-opacity:1; 
stroke-linecap:round; stroke-linejoin:round;">
<path d="M38401 27952
L38401 27952
" />
</g>
<g style="fill:#840000; fill-opacity:0.0; 
stroke:#840000; stroke-width:0; stroke-opacity:1; 
stroke-linecap:round; stroke-linejoin:round;">
</g>
<g style="fill:#840000; fill-opacity:1.0; 
stroke:#840000; stroke-width:0; stroke-opacity:1; 
stroke-linecap:round; stroke-linejoin:round;">
<polyline style="fill-rule:evenodd;"
points="37008,28346
37008,27559
37795,27559
37795,28346
37008,28346
" /> 
</g>
<g style="fill:#840000; fill-opacity:1.0; 
stroke:#840000; stroke-width:787; stroke-opacity:1; 
stroke-linecap:round; stroke-linejoin:round;">
</g>
<g style="fill:#840000; fill-opacity:0.0; 
stroke:#840000; stroke-width:787; stroke-opacity:1; 
stroke-linecap:round; stroke-linejoin:round;">
<path d="M54543 54724
L54543 54724
" />
</g>
<g style="fill:#840000; fill-opacity:0.0; 
stroke:#840000; stroke-width:0; stroke-opacity:1; 
stroke-linecap:round; stroke-linejoin:round;">
</g>
<g style="fill:#840000; fill-opacity:1.0; 
stroke:#840000; stroke-width:0; stroke-opacity:1; 
stroke-linecap:round; stroke-linejoin:round;">
<polyline style="fill-rule:evenodd;"
points="53149,55117
53149,54330
53936,54330
53936,55117
53149,55117
" /> 
</g>
<g style="fill:#840000; fill-opacity:1.0; 
stroke:#840000; stroke-width:787; stroke-opacity:1; 
stroke-linecap:round; stroke-linejoin:round;">
</g>
<g style="fill:#840000; fill-opacity:0.0; 
stroke:#840000; stroke-width:787; stroke-opacity:1; 
stroke-linecap:round; stroke-linejoin:round;">
<path d="M58055 20078
L58055 20078
" />
</g>
<g style="fill:#840000; fill-opacity:0.0; 
stroke:#840000; stroke-width:0; stroke-opacity:1; 
stroke-linecap:round; stroke-linejoin:round;">
</g>
<g style="fill:#840000; fill-opacity:1.0; 
stroke:#840000; stroke-width:0; stroke-opacity:1; 
stroke-linecap:round; stroke-linejoin:round;">
<polyline style="fill-rule:evenodd;"
points="59448,19685
59448,20472
58661,20472
58661,19685
59448,19685
" /> 
</g>
<g style="fill:#840000; fill-opacity:1.0; 
stroke:#840000; stroke-width:787; stroke-opacity:1; 
stroke-linecap:round; stroke-linejoin:round;">
</g>
<g style="fill:#840000; fill-opacity:0.0; 
stroke:#840000; stroke-width:787; stroke-opacity:1; 
stroke-linecap:round; stroke-linejoin:round;">
<path d="M53724 20078
L53724 20078
" />
</g>
<g style="fill:#840000; fill-opacity:0.0; 
stroke:#840000; stroke-width:0; stroke-opacity:1; 
stroke-linecap:round; stroke-linejoin:round;">
</g>
<g style="fill:#840000; fill-opacity:1.0; 
stroke:#840000; stroke-width:0; stroke-opacity:1; 
stroke-linecap:round; stroke-linejoin:round;">
<polyline style="fill-rule:evenodd;"
points="55117,19685
55117,20472
54330,20472
54330,19685
55117,19685
" /> 
</g>
<g style="fill:#840000; fill-opacity:1.0; 
stroke:#840000; stroke-width:787; stroke-opacity:1; 
stroke-linecap:round; stroke-linejoin:round;">
</g>
<g style="fill:#840000; fill-opacity:0.0; 
stroke:#840000; stroke-width:787; stroke-opacity:1; 
stroke-linecap:round; stroke-linejoin:round;">
<path d="M59267 54724
L59267 54724
" />
</g>
<g style="fill:#840000; fill-opacity:0.0; 
stroke:#840000; stroke-width:0; stroke-opacity:1; 
stroke-linecap:round; stroke-linejoin:round;">
</g>
<g style="fill:#840000; fill-opacity:1.0; 
stroke:#840000; stroke-width:0; stroke-opacity:1; 
stroke-linecap:round; stroke-linejoin:round;">
<polyline style="fill-rule:evenodd;"
points="57874,55117
57874,54330
58661,54330
58661,55117
57874,55117
" /> 
<circle cx="52937" cy="25590.6" r="314.961" /> 
</g>
<g style="fill:#840000; fill-opacity:1.0; 
stroke:#840000; stroke-width:39.3701; stroke-opacity:1; 
stroke-linecap:round; stroke-linejoin:round;">
</g>
<g style="fill:#840000; fill-opacity:1.0; 
stroke:#840000; stroke-width:0; stroke-opacity:1; 
stroke-linecap:round; stroke-linejoin:round;">
<circle cx="53937" cy="24590.6" r="314.961" /> 
</g>
<g style="fill:#840000; fill-opacity:1.0; 
stroke:#840000; stroke-width:39.3701; stroke-opacity:1; 
stroke-linecap:round; stroke-linejoin:round;">
</g>
<g style="fill:#840000; fill-opacity:1.0; 
stroke:#840000; stroke-width:0; stroke-opacity:1; 
stroke-linecap:round; stroke-linejoin:round;">
<circle cx="54937" cy="25590.6" r="314.961" /> 
</g>
<g style="fill:#840000; fill-opacity:1.0; 
stroke:#840000; stroke-width:39.3701; stroke-opacity:1; 
stroke-linecap:round; stroke-linejoin:round;">
</g>
<g style="fill:#840000; fill-opacity:1.0; 
stroke:#840000; stroke-width:0; stroke-opacity:1; 
stroke-linecap:round; stroke-linejoin:round;">
<circle cx="54511.8" cy="48031.5" r="314.961" /> 
</g>
<g style="fill:#840000; fill-opacity:1.0; 
stroke:#840000; stroke-width:39.3701; stroke-opacity:1; 
stroke-linecap:round; stroke-linejoin:round;">
</g>
<g style="fill:#840000; fill-opacity:1.0; 
stroke:#840000; stroke-width:0; stroke-opacity:1; 
stroke-linecap:round; stroke-linejoin:round;">
<circle cx="55511.8" cy="47031.5" r="314.961" /> 
</g>
<g style="fill:#840000; fill-opacity:1.0; 
stroke:#840000; stroke-width:39.3701; stroke-opacity:1; 
stroke-linecap:round; stroke-linejoin:round;">
</g>
<g style="fill:#840000; fill-opacity:1.0; 
stroke:#840000; stroke-width:0; stroke-opacity:1; 
stroke-linecap:round; stroke-linejoin:round;">
<circle cx="56511.8" cy="48031.5" r="314.961" /> 
</g>
<g style="fill:#840000; fill-opacity:1.0; 
stroke:#840000; stroke-width:39.3701; stroke-opacity:1; 
stroke-linecap:round; stroke-linejoin:round;">
</g>
<g style="fill:#840000; fill-opacity:1.0; 
stroke:#840000; stroke-width:0; stroke-opacity:1; 
stroke-linecap:round; stroke-linejoin:round;">
<circle cx="53937" cy="28740.2" r="393.5" /> 
</g>
<g style="fill:#840000; fill-opacity:1.0; 
stroke:#840000; stroke-width:39.3701; stroke-opacity:1; 
stroke-linecap:round; stroke-linejoin:round;">
</g>
<g style="fill:#840000; fill-opacity:1.0; 
stroke:#840000; stroke-width:0; stroke-opacity:1; 
stroke-linecap:round; stroke-linejoin:round;">
<circle cx="53937" cy="32740.2" r="393.5" /> 
</g>
<g style="fill:#840000; fill-opacity:1.0; 
stroke:#840000; stroke-width:39.3701; stroke-opacity:1; 
stroke-linecap:round; stroke-linejoin:round;">
</g>
<g style="fill:#840000; fill-opacity:1.0; 
stroke:#840000; stroke-width:0; stroke-opacity:1; 
stroke-linecap:round; stroke-linejoin:round;">
<circle cx="55511.8" cy="44881.9" r="393.5" /> 
</g>
<g style="fill:#840000; fill-opacity:1.0; 
stroke:#840000; stroke-width:39.3701; stroke-opacity:1; 
stroke-linecap:round; stroke-linejoin:round;">
</g>
<g style="fill:#840000; fill-opacity:1.0; 
stroke:#840000; stroke-width:0; stroke-opacity:1; 
stroke-linecap:round; stroke-linejoin:round;">
<circle cx="55511.8" cy="40881.9" r="393.5" /> 
</g>
<g style="fill:#840000; fill-opacity:1.0; 
stroke:#840000; stroke-width:39.3701; stroke-opacity:1; 
stroke-linecap:round; stroke-linejoin:round;">
</g>
<g style="fill:#840000; fill-opacity:1.0; 
stroke:#840000; stroke-width:0; stroke-opacity:1; 
stroke-linecap:round; stroke-linejoin:round;">
<circle cx="50787.4" cy="37401.6" r="393.5" /> 
</g>
<g style="fill:#840000; fill-opacity:1.0; 
stroke:#840000; stroke-width:39.3701; stroke-opacity:1; 
stroke-linecap:round; stroke-linejoin:round;">
</g>
<g style="fill:#840000; fill-opacity:1.0; 
stroke:#840000; stroke-width:0; stroke-opacity:1; 
stroke-linecap:round; stroke-linejoin:round;">
<circle cx="50787.4" cy="41401.6" r="393.5" /> 
</g>
<g style="fill:#840000; fill-opacity:1.0; 
stroke:#840000; stroke-width:39.3701; stroke-opacity:1; 
stroke-linecap:round; stroke-linejoin:round;">
</g>
<g style="fill:#840000; fill-opacity:1.0; 
stroke:#840000; stroke-width:0; stroke-opacity:1; 
stroke-linecap:round; stroke-linejoin:round;">
<circle cx="60629.9" cy="38582.7" r="393.5" /> 
</g>
<g style="fill:#840000; fill-opacity:1.0; 
stroke:#840000; stroke-width:39.3701; stroke-opacity:1; 
stroke-linecap:round; stroke-linejoin:round;">
</g>
<g style="fill:#840000; fill-opacity:1.0; 
stroke:#840000; stroke-width:0; stroke-opacity:1; 
stroke-linecap:round; stroke-linejoin:round;">
<circle cx="60629.9" cy="42582.7" r="393.5" /> 
</g>
<g style="fill:#840000; fill-opacity:1.0; 
stroke:#840000; stroke-width:39.3701; stroke-opacity:1; 
stroke-linecap:round; stroke-linejoin:round;">
</g>
<g style="fill:#840000; fill-opacity:1.0; 
stroke:#840000; stroke-width:0; stroke-opacity:1; 
stroke-linecap:round; stroke-linejoin:round;">
<circle cx="50000" cy="20866.1" r="393.5" /> 
</g>
<g style="fill:#840000; fill-opacity:1.0; 
stroke:#840000; stroke-width:39.3701; stroke-opacity:1; 
stroke-linecap:round; stroke-linejoin:round;">
</g>
<g style="fill:#840000; fill-opacity:1.0; 
stroke:#840000; stroke-width:0; stroke-opacity:1; 
stroke-linecap:round; stroke-linejoin:round;">
<circle cx="50000" cy="24866.1" r="393.5" /> 
</g>
<g style="fill:#840000; fill-opacity:1.0; 
stroke:#840000; stroke-width:39.3701; stroke-opacity:1; 
stroke-linecap:round; stroke-linejoin:round;">
</g>
<g style="fill:#840000; fill-opacity:1.0; 
stroke:#840000; stroke-width:0; stroke-opacity:1; 
stroke-linecap:round; stroke-linejoin:round;">
<circle cx="58267.7" cy="51574.8" r="393.5" /> 
</g>
<g style="fill:#840000; fill-opacity:1.0; 
stroke:#840000; stroke-width:39.3701; stroke-opacity:1; 
stroke-linecap:round; stroke-linejoin:round;">
</g>
<g style="fill:#840000; fill-opacity:1.0; 
stroke:#840000; stroke-width:0; stroke-opacity:1; 
stroke-linecap:round; stroke-linejoin:round;">
<circle cx="54267.7" cy="51574.8" r="393.5" /> 
</g>
<g style="fill:#840000; fill-opacity:1.0; 
stroke:#840000; stroke-width:39.3701; stroke-opacity:1; 
stroke-linecap:round; stroke-linejoin:round;">
</g>
<g style="fill:#840000; fill-opacity:1.0; 
stroke:#840000; stroke-width:0; stroke-opacity:1; 
stroke-linecap:round; stroke-linejoin:round;">
<circle cx="38582.7" cy="24724.4" r="314.961" /> 
</g>
<g style="fill:#840000; fill-opacity:1.0; 
stroke:#840000; stroke-width:39.3701; stroke-opacity:1; 
stroke-linecap:round; stroke-linejoin:round;">
</g>
<g style="fill:#840000; fill-opacity:1.0; 
stroke:#840000; stroke-width:0; stroke-opacity:1; 
stroke-linecap:round; stroke-linejoin:round;">
<circle cx="38582.7" cy="23937" r="314.961" /> 
</g>
<g style="fill:#840000; fill-opacity:1.0; 
stroke:#840000; stroke-width:39.3701; stroke-opacity:1; 
stroke-linecap:round; stroke-linejoin:round;">
</g>
<g style="fill:#840000; fill-opacity:1.0; 
stroke:#840000; stroke-width:0; stroke-opacity:1; 
stroke-linecap:round; stroke-linejoin:round;">
<circle cx="38582.7" cy="22834.6" r="314.961" /> 
</g>
<g style="fill:#840000; fill-opacity:1.0; 
stroke:#840000; stroke-width:39.3701; stroke-opacity:1; 
stroke-linecap:round; stroke-linejoin:round;">
</g>
<g style="fill:#840000; fill-opacity:1.0; 
stroke:#840000; stroke-width:0; stroke-opacity:1; 
stroke-linecap:round; stroke-linejoin:round;">
<circle cx="38582.7" cy="21259.8" r="314.961" /> 
</g>
<g style="fill:#840000; fill-opacity:1.0; 
stroke:#840000; stroke-width:39.3701; stroke-opacity:1; 
stroke-linecap:round; stroke-linejoin:round;">
</g>
<g style="fill:#840000; fill-opacity:1.0; 
stroke:#840000; stroke-width:629.921; stroke-opacity:1; 
stroke-linecap:round; stroke-linejoin:round;">
</g>
<g style="fill:#840000; fill-opacity:0.0; 
stroke:#840000; stroke-width:629.921; stroke-opacity:1; 
stroke-linecap:round; stroke-linejoin:round;">
<path d="M53799 35433
L54074 35433
" />
<path d="M53799 36433
L54074 36433
" />
<path d="M53799 37433
L54074 37433
" />
<path d="M53799 38433
L54074 38433
" />
<path d="M56799 38433
L57074 38433
" />
<path d="M56799 37433
L57074 37433
" />
<path d="M56799 36433
L57074 36433
" />
<path d="M56799 35433
L57074 35433
" />
</g>
<g style="fill:#840000; fill-opacity:1.0; 
stroke:#840000; stroke-width:0; stroke-opacity:1; 
stroke-linecap:round; stroke-linejoin:round;">
<circle cx="46850.4" cy="37433.1" r="297.244" /> 
</g>
<g style="fill:#840000; fill-opacity:1.0; 
stroke:#840000; stroke-width:39.3701; stroke-opacity:1; 
stroke-linecap:round; stroke-linejoin:round;">
</g>
<g style="fill:#840000; fill-opacity:1.0; 
stroke:#840000; stroke-width:0; stroke-opacity:1; 
stroke-linecap:round; stroke-linejoin:round;">
<polyline style="fill-rule:evenodd;"
points="46553,35135
47147,35135
47147,35730
46553,35730
46553,35135
" /> 
<circle cx="46850.4" cy="36433.1" r="297.244" /> 
</g>
<g style="fill:#840000; fill-opacity:1.0; 
stroke:#840000; stroke-width:39.3701; stroke-opacity:1; 
stroke-linecap:round; stroke-linejoin:round;">
</g>
<g style="fill:#840000; fill-opacity:1.0; 
stroke:#840000; stroke-width:0; stroke-opacity:1; 
stroke-linecap:round; stroke-linejoin:round;">
<circle cx="64173.2" cy="37433.1" r="297.244" /> 
</g>
<g style="fill:#840000; fill-opacity:1.0; 
stroke:#840000; stroke-width:39.3701; stroke-opacity:1; 
stroke-linecap:round; stroke-linejoin:round;">
</g>
<g style="fill:#840000; fill-opacity:1.0; 
stroke:#840000; stroke-width:0; stroke-opacity:1; 
stroke-linecap:round; stroke-linejoin:round;">
<polyline style="fill-rule:evenodd;"
points="63875,35135
64470,35135
64470,35730
63875,35730
63875,35135
" /> 
<circle cx="64173.2" cy="36433.1" r="297.244" /> 
</g>
<g style="fill:#840000; fill-opacity:1.0; 
stroke:#840000; stroke-width:39.3701; stroke-opacity:1; 
stroke-linecap:round; stroke-linejoin:round;">
</g>
<g style="fill:#840000; fill-opacity:1.0; 
stroke:#840000; stroke-width:0; stroke-opacity:1; 
stroke-linecap:round; stroke-linejoin:round;">
<circle cx="34464.6" cy="21653.5" r="374.016" /> 
</g>
<g style="fill:#840000; fill-opacity:1.0; 
stroke:#840000; stroke-width:39.3701; stroke-opacity:1; 
stroke-linecap:round; stroke-linejoin:round;">
</g>
<g style="fill:#840000; fill-opacity:1.0; 
stroke:#840000; stroke-width:0; stroke-opacity:1; 
stroke-linecap:round; stroke-linejoin:round;">
<circle cx="33464.6" cy="21653.5" r="374.016" /> 
</g>
<g style="fill:#840000; fill-opacity:1.0; 
stroke:#840000; stroke-width:39.3701; stroke-opacity:1; 
stroke-linecap:round; stroke-linejoin:round;">
</g>
<g style="fill:#840000; fill-opacity:1.0; 
stroke:#840000; stroke-width:0; stroke-opacity:1; 
stroke-linecap:round; stroke-linejoin:round;">
<circle cx="32464.6" cy="21653.5" r="374.016" /> 
</g>
<g style="fill:#840000; fill-opacity:1.0; 
stroke:#840000; stroke-width:39.3701; stroke-opacity:1; 
stroke-linecap:round; stroke-linejoin:round;">
</g>
<g style="fill:#840000; fill-opacity:1.0; 
stroke:#840000; stroke-width:0; stroke-opacity:1; 
stroke-linecap:round; stroke-linejoin:round;">
<circle cx="32192.9" cy="40395.7" r="984.252" /> 
</g>
<g style="fill:#840000; fill-opacity:1.0; 
stroke:#840000; stroke-width:39.3701; stroke-opacity:1; 
stroke-linecap:round; stroke-linejoin:round;">
</g>
<g style="fill:#840000; fill-opacity:1.0; 
stroke:#840000; stroke-width:0; stroke-opacity:1; 
stroke-linecap:round; stroke-linejoin:round;">
<circle cx="40842.5" cy="45824.8" r="984.252" /> 
</g>
<g style="fill:#840000; fill-opacity:1.0; 
stroke:#840000; stroke-width:39.3701; stroke-opacity:1; 
stroke-linecap:round; stroke-linejoin:round;">
</g>
<g style="fill:#840000; fill-opacity:1.0; 
stroke:#840000; stroke-width:0; stroke-opacity:1; 
stroke-linecap:round; stroke-linejoin:round;">
<circle cx="32192.9" cy="51454.7" r="984.252" /> 
</g>
<g style="fill:#840000; fill-opacity:1.0; 
stroke:#840000; stroke-width:39.3701; stroke-opacity:1; 
stroke-linecap:round; stroke-linejoin:round;">
</g> 
</svg>
