G04 #@! TF.FileFunction,Legend,Top*
%FSLAX46Y46*%
G04 Gerber Fmt 4.6, Leading zero omitted, Abs format (unit mm)*
G04 Created by KiCad (PCBNEW 4.0.2+dfsg1-stable) date Fri 18 May 2018 12:16:33 BST*
%MOMM*%
G01*
G04 APERTURE LIST*
%ADD10C,0.100000*%
%ADD11C,0.700000*%
%ADD12C,0.300000*%
%ADD13C,0.500000*%
%ADD14C,0.150000*%
G04 APERTURE END LIST*
D10*
D11*
X132000000Y-49000000D02*
X132000000Y-53000000D01*
X130000000Y-51000000D02*
X134000000Y-51000000D01*
X155500000Y-137000000D02*
X155500000Y-141000000D01*
X153500000Y-139000000D02*
X157500000Y-139000000D01*
X189500000Y-71000000D02*
X193500000Y-71000000D01*
X177500000Y-71000000D02*
X181500000Y-71000000D01*
X179500000Y-69000000D02*
X179500000Y-73000000D01*
X100500000Y-71000000D02*
X104500000Y-71000000D01*
X90500000Y-69000000D02*
X90500000Y-73000000D01*
X88500000Y-71000000D02*
X92500000Y-71000000D01*
D12*
X78571429Y-48678571D02*
X78857143Y-48678571D01*
X79000001Y-48750000D01*
X79142858Y-48892857D01*
X79214286Y-49178571D01*
X79214286Y-49678571D01*
X79142858Y-49964286D01*
X79000001Y-50107143D01*
X78857143Y-50178571D01*
X78571429Y-50178571D01*
X78428572Y-50107143D01*
X78285715Y-49964286D01*
X78214286Y-49678571D01*
X78214286Y-49178571D01*
X78285715Y-48892857D01*
X78428572Y-48750000D01*
X78571429Y-48678571D01*
X80357144Y-49392857D02*
X79857144Y-49392857D01*
X79857144Y-50178571D02*
X79857144Y-48678571D01*
X80571430Y-48678571D01*
X81642858Y-49392857D02*
X81142858Y-49392857D01*
X81142858Y-50178571D02*
X81142858Y-48678571D01*
X81857144Y-48678571D01*
X89071428Y-48678571D02*
X89357142Y-48678571D01*
X89500000Y-48750000D01*
X89642857Y-48892857D01*
X89714285Y-49178571D01*
X89714285Y-49678571D01*
X89642857Y-49964286D01*
X89500000Y-50107143D01*
X89357142Y-50178571D01*
X89071428Y-50178571D01*
X88928571Y-50107143D01*
X88785714Y-49964286D01*
X88714285Y-49678571D01*
X88714285Y-49178571D01*
X88785714Y-48892857D01*
X88928571Y-48750000D01*
X89071428Y-48678571D01*
X90357143Y-50178571D02*
X90357143Y-48678571D01*
X91214286Y-50178571D01*
X91214286Y-48678571D01*
D11*
X170000000Y-89000000D02*
X168000000Y-89000000D01*
X168000000Y-89000000D02*
X168000000Y-94000000D01*
X168000000Y-94000000D02*
X167000000Y-94000000D01*
X167000000Y-94000000D02*
X169000000Y-96000000D01*
X169000000Y-96000000D02*
X171000000Y-94000000D01*
X171000000Y-94000000D02*
X170000000Y-94000000D01*
X170000000Y-94000000D02*
X170000000Y-89000000D01*
X112000000Y-91000000D02*
X112000000Y-96000000D01*
X111000000Y-91000000D02*
X112000000Y-91000000D01*
X113000000Y-89000000D02*
X111000000Y-91000000D01*
X115000000Y-91000000D02*
X113000000Y-89000000D01*
X114000000Y-91000000D02*
X115000000Y-91000000D01*
X114000000Y-96000000D02*
X114000000Y-91000000D01*
X112000000Y-96000000D02*
X114000000Y-96000000D01*
D13*
X79000000Y-88000000D02*
X106000000Y-88000000D01*
X79000000Y-138000000D02*
X106000000Y-138000000D01*
X79000000Y-88000000D02*
X79000000Y-138000000D01*
X106000000Y-138000000D02*
X106000000Y-88000000D01*
X204000000Y-138000000D02*
X204000000Y-88000000D01*
X177000000Y-88000000D02*
X177000000Y-138000000D01*
X177000000Y-138000000D02*
X204000000Y-138000000D01*
X177000000Y-88000000D02*
X204000000Y-88000000D01*
D14*
X188069080Y-73600960D02*
X182470920Y-73600960D01*
X182669040Y-74098800D02*
X182669040Y-73600960D01*
X187870960Y-73600960D02*
X187870960Y-74098800D01*
X185270000Y-74098800D02*
X185270000Y-73600960D01*
X182470920Y-68299980D02*
X188069080Y-68299980D01*
X182470920Y-74098800D02*
X188069080Y-74098800D01*
X188069080Y-74098800D02*
X188069080Y-67901200D01*
X188069080Y-67901200D02*
X182470920Y-67901200D01*
X182470920Y-67901200D02*
X182470920Y-74098800D01*
X99069080Y-73600960D02*
X93470920Y-73600960D01*
X93669040Y-74098800D02*
X93669040Y-73600960D01*
X98870960Y-73600960D02*
X98870960Y-74098800D01*
X96270000Y-74098800D02*
X96270000Y-73600960D01*
X93470920Y-68299980D02*
X99069080Y-68299980D01*
X93470920Y-74098800D02*
X99069080Y-74098800D01*
X99069080Y-74098800D02*
X99069080Y-67901200D01*
X99069080Y-67901200D02*
X93470920Y-67901200D01*
X93470920Y-67901200D02*
X93470920Y-74098800D01*
X140069080Y-141600960D02*
X134470920Y-141600960D01*
X134669040Y-142098800D02*
X134669040Y-141600960D01*
X139870960Y-141600960D02*
X139870960Y-142098800D01*
X137270000Y-142098800D02*
X137270000Y-141600960D01*
X134470920Y-136299980D02*
X140069080Y-136299980D01*
X134470920Y-142098800D02*
X140069080Y-142098800D01*
X140069080Y-142098800D02*
X140069080Y-135901200D01*
X140069080Y-135901200D02*
X134470920Y-135901200D01*
X134470920Y-135901200D02*
X134470920Y-142098800D01*
X145930920Y-48399040D02*
X151529080Y-48399040D01*
X151330960Y-47901200D02*
X151330960Y-48399040D01*
X146129040Y-48399040D02*
X146129040Y-47901200D01*
X148730000Y-47901200D02*
X148730000Y-48399040D01*
X151529080Y-53700020D02*
X145930920Y-53700020D01*
X151529080Y-47901200D02*
X145930920Y-47901200D01*
X145930920Y-47901200D02*
X145930920Y-54098800D01*
X145930920Y-54098800D02*
X151529080Y-54098800D01*
X151529080Y-54098800D02*
X151529080Y-47901200D01*
X134930920Y-48399040D02*
X140529080Y-48399040D01*
X140330960Y-47901200D02*
X140330960Y-48399040D01*
X135129040Y-48399040D02*
X135129040Y-47901200D01*
X137730000Y-47901200D02*
X137730000Y-48399040D01*
X140529080Y-53700020D02*
X134930920Y-53700020D01*
X140529080Y-47901200D02*
X134930920Y-47901200D01*
X134930920Y-47901200D02*
X134930920Y-54098800D01*
X134930920Y-54098800D02*
X140529080Y-54098800D01*
X140529080Y-54098800D02*
X140529080Y-47901200D01*
X152069080Y-141600960D02*
X146470920Y-141600960D01*
X146669040Y-142098800D02*
X146669040Y-141600960D01*
X151870960Y-141600960D02*
X151870960Y-142098800D01*
X149270000Y-142098800D02*
X149270000Y-141600960D01*
X146470920Y-136299980D02*
X152069080Y-136299980D01*
X146470920Y-142098800D02*
X152069080Y-142098800D01*
X152069080Y-142098800D02*
X152069080Y-135901200D01*
X152069080Y-135901200D02*
X146470920Y-135901200D01*
X146470920Y-135901200D02*
X146470920Y-142098800D01*
D13*
X133523607Y-68700000D02*
G75*
G03X133523607Y-68700000I-223607J0D01*
G01*
D14*
X141700000Y-60300000D02*
X141700000Y-69700000D01*
X141700000Y-69700000D02*
X132300000Y-69700000D01*
X132300000Y-69700000D02*
X132300000Y-60300000D01*
X132300000Y-60300000D02*
X141700000Y-60300000D01*
D13*
X137523607Y-125700000D02*
G75*
G03X137523607Y-125700000I-223607J0D01*
G01*
D14*
X145700000Y-117300000D02*
X145700000Y-126700000D01*
X145700000Y-126700000D02*
X136300000Y-126700000D01*
X136300000Y-126700000D02*
X136300000Y-117300000D01*
X136300000Y-117300000D02*
X145700000Y-117300000D01*
X138270000Y-75540000D02*
X138270000Y-80620000D01*
X138270000Y-80620000D02*
X135730000Y-80620000D01*
X135730000Y-80620000D02*
X135730000Y-75540000D01*
X135730000Y-75540000D02*
X138270000Y-75540000D01*
X137000000Y-75540000D02*
X137000000Y-74270000D01*
X137000000Y-80620000D02*
X137000000Y-81890000D01*
X139730000Y-111460000D02*
X139730000Y-106380000D01*
X139730000Y-106380000D02*
X142270000Y-106380000D01*
X142270000Y-106380000D02*
X142270000Y-111460000D01*
X142270000Y-111460000D02*
X139730000Y-111460000D01*
X141000000Y-111460000D02*
X141000000Y-112730000D01*
X141000000Y-106380000D02*
X141000000Y-105110000D01*
X130270000Y-97540000D02*
X130270000Y-102620000D01*
X130270000Y-102620000D02*
X127730000Y-102620000D01*
X127730000Y-102620000D02*
X127730000Y-97540000D01*
X127730000Y-97540000D02*
X130270000Y-97540000D01*
X129000000Y-97540000D02*
X129000000Y-96270000D01*
X129000000Y-102620000D02*
X129000000Y-103890000D01*
X155270000Y-100540000D02*
X155270000Y-105620000D01*
X155270000Y-105620000D02*
X152730000Y-105620000D01*
X152730000Y-105620000D02*
X152730000Y-100540000D01*
X152730000Y-100540000D02*
X155270000Y-100540000D01*
X154000000Y-100540000D02*
X154000000Y-99270000D01*
X154000000Y-105620000D02*
X154000000Y-106890000D01*
X128270000Y-55540000D02*
X128270000Y-60620000D01*
X128270000Y-60620000D02*
X125730000Y-60620000D01*
X125730000Y-60620000D02*
X125730000Y-55540000D01*
X125730000Y-55540000D02*
X128270000Y-55540000D01*
X127000000Y-55540000D02*
X127000000Y-54270000D01*
X127000000Y-60620000D02*
X127000000Y-61890000D01*
X145460000Y-132270000D02*
X140380000Y-132270000D01*
X140380000Y-132270000D02*
X140380000Y-129730000D01*
X140380000Y-129730000D02*
X145460000Y-129730000D01*
X145460000Y-129730000D02*
X145460000Y-132270000D01*
X145460000Y-131000000D02*
X146730000Y-131000000D01*
X140380000Y-131000000D02*
X139110000Y-131000000D01*
X94000000Y-52700000D02*
X101700000Y-52700000D01*
X94000000Y-64100000D02*
X101700000Y-64100000D01*
X94000000Y-64500000D02*
X94000000Y-52300000D01*
X94000000Y-52300000D02*
X101700000Y-52300000D01*
X101700000Y-52300000D02*
X101700000Y-64500000D01*
X101700000Y-64500000D02*
X94000000Y-64500000D01*
D13*
X138250000Y-88500000D02*
G75*
G03X138250000Y-88500000I-250000J0D01*
G01*
D14*
X137135000Y-87705000D02*
X137135000Y-88975000D01*
X144485000Y-87705000D02*
X144485000Y-88975000D01*
X144485000Y-99915000D02*
X144485000Y-98645000D01*
X137135000Y-99915000D02*
X137135000Y-98645000D01*
X137135000Y-87705000D02*
X144485000Y-87705000D01*
X137135000Y-99915000D02*
X144485000Y-99915000D01*
X137135000Y-88975000D02*
X135850000Y-88975000D01*
X121500000Y-87600000D02*
X121500000Y-97400000D01*
X121500000Y-97400000D02*
X116500000Y-97400000D01*
X116500000Y-97400000D02*
X116500000Y-87600000D01*
X121500000Y-87600000D02*
X116500000Y-87600000D01*
X165500000Y-87600000D02*
X165500000Y-97400000D01*
X165500000Y-97400000D02*
X160500000Y-97400000D01*
X160500000Y-97400000D02*
X160500000Y-87600000D01*
X165500000Y-87600000D02*
X160500000Y-87600000D01*
X89100000Y-56500000D02*
X80900000Y-56500000D01*
X80900000Y-56500000D02*
X80900000Y-53500000D01*
X80900000Y-53500000D02*
X89100000Y-53500000D01*
X89100000Y-53500000D02*
X89100000Y-56500000D01*
X92000000Y-58900000D02*
X78000000Y-58900000D01*
X78000000Y-58900000D02*
X78000000Y-51100000D01*
X78000000Y-51100000D02*
X92000000Y-51100000D01*
X92000000Y-51100000D02*
X92000000Y-58900000D01*
X184484286Y-66427691D02*
X184627143Y-66475310D01*
X184674762Y-66522930D01*
X184722381Y-66618168D01*
X184722381Y-66761025D01*
X184674762Y-66856263D01*
X184627143Y-66903882D01*
X184531905Y-66951501D01*
X184150952Y-66951501D01*
X184150952Y-65951501D01*
X184484286Y-65951501D01*
X184579524Y-65999120D01*
X184627143Y-66046739D01*
X184674762Y-66141977D01*
X184674762Y-66237215D01*
X184627143Y-66332453D01*
X184579524Y-66380072D01*
X184484286Y-66427691D01*
X184150952Y-66427691D01*
X185008095Y-65951501D02*
X185579524Y-65951501D01*
X185293809Y-66951501D02*
X185293809Y-65951501D01*
X186436667Y-66951501D02*
X185865238Y-66951501D01*
X186150952Y-66951501D02*
X186150952Y-65951501D01*
X186055714Y-66094358D01*
X185960476Y-66189596D01*
X185865238Y-66237215D01*
X95484286Y-66427691D02*
X95627143Y-66475310D01*
X95674762Y-66522930D01*
X95722381Y-66618168D01*
X95722381Y-66761025D01*
X95674762Y-66856263D01*
X95627143Y-66903882D01*
X95531905Y-66951501D01*
X95150952Y-66951501D01*
X95150952Y-65951501D01*
X95484286Y-65951501D01*
X95579524Y-65999120D01*
X95627143Y-66046739D01*
X95674762Y-66141977D01*
X95674762Y-66237215D01*
X95627143Y-66332453D01*
X95579524Y-66380072D01*
X95484286Y-66427691D01*
X95150952Y-66427691D01*
X96008095Y-65951501D02*
X96579524Y-65951501D01*
X96293809Y-66951501D02*
X96293809Y-65951501D01*
X96865238Y-66046739D02*
X96912857Y-65999120D01*
X97008095Y-65951501D01*
X97246191Y-65951501D01*
X97341429Y-65999120D01*
X97389048Y-66046739D01*
X97436667Y-66141977D01*
X97436667Y-66237215D01*
X97389048Y-66380072D01*
X96817619Y-66951501D01*
X97436667Y-66951501D01*
X136103334Y-134951501D02*
X135627143Y-134951501D01*
X135627143Y-133951501D01*
X136436667Y-134951501D02*
X136436667Y-133951501D01*
X136674762Y-133951501D01*
X136817620Y-133999120D01*
X136912858Y-134094358D01*
X136960477Y-134189596D01*
X137008096Y-134380072D01*
X137008096Y-134522930D01*
X136960477Y-134713406D01*
X136912858Y-134808644D01*
X136817620Y-134903882D01*
X136674762Y-134951501D01*
X136436667Y-134951501D01*
X138008096Y-134951501D02*
X137674762Y-134475310D01*
X137436667Y-134951501D02*
X137436667Y-133951501D01*
X137817620Y-133951501D01*
X137912858Y-133999120D01*
X137960477Y-134046739D01*
X138008096Y-134141977D01*
X138008096Y-134284834D01*
X137960477Y-134380072D01*
X137912858Y-134427691D01*
X137817620Y-134475310D01*
X137436667Y-134475310D01*
X138960477Y-134951501D02*
X138389048Y-134951501D01*
X138674762Y-134951501D02*
X138674762Y-133951501D01*
X138579524Y-134094358D01*
X138484286Y-134189596D01*
X138389048Y-134237215D01*
X147563334Y-55953261D02*
X147087143Y-55953261D01*
X147087143Y-54953261D01*
X147896667Y-55953261D02*
X147896667Y-54953261D01*
X148134762Y-54953261D01*
X148277620Y-55000880D01*
X148372858Y-55096118D01*
X148420477Y-55191356D01*
X148468096Y-55381832D01*
X148468096Y-55524690D01*
X148420477Y-55715166D01*
X148372858Y-55810404D01*
X148277620Y-55905642D01*
X148134762Y-55953261D01*
X147896667Y-55953261D01*
X149468096Y-55953261D02*
X149134762Y-55477070D01*
X148896667Y-55953261D02*
X148896667Y-54953261D01*
X149277620Y-54953261D01*
X149372858Y-55000880D01*
X149420477Y-55048499D01*
X149468096Y-55143737D01*
X149468096Y-55286594D01*
X149420477Y-55381832D01*
X149372858Y-55429451D01*
X149277620Y-55477070D01*
X148896667Y-55477070D01*
X149849048Y-55048499D02*
X149896667Y-55000880D01*
X149991905Y-54953261D01*
X150230001Y-54953261D01*
X150325239Y-55000880D01*
X150372858Y-55048499D01*
X150420477Y-55143737D01*
X150420477Y-55238975D01*
X150372858Y-55381832D01*
X149801429Y-55953261D01*
X150420477Y-55953261D01*
X136610953Y-55953261D02*
X136134762Y-55953261D01*
X136134762Y-54953261D01*
X136944286Y-55429451D02*
X137277620Y-55429451D01*
X137420477Y-55953261D02*
X136944286Y-55953261D01*
X136944286Y-54953261D01*
X137420477Y-54953261D01*
X137849048Y-55953261D02*
X137849048Y-54953261D01*
X138087143Y-54953261D01*
X138230001Y-55000880D01*
X138325239Y-55096118D01*
X138372858Y-55191356D01*
X138420477Y-55381832D01*
X138420477Y-55524690D01*
X138372858Y-55715166D01*
X138325239Y-55810404D01*
X138230001Y-55905642D01*
X138087143Y-55953261D01*
X137849048Y-55953261D01*
X139372858Y-55953261D02*
X138801429Y-55953261D01*
X139087143Y-55953261D02*
X139087143Y-54953261D01*
X138991905Y-55096118D01*
X138896667Y-55191356D01*
X138801429Y-55238975D01*
X148150953Y-134951501D02*
X147674762Y-134951501D01*
X147674762Y-133951501D01*
X148484286Y-134427691D02*
X148817620Y-134427691D01*
X148960477Y-134951501D02*
X148484286Y-134951501D01*
X148484286Y-133951501D01*
X148960477Y-133951501D01*
X149389048Y-134951501D02*
X149389048Y-133951501D01*
X149627143Y-133951501D01*
X149770001Y-133999120D01*
X149865239Y-134094358D01*
X149912858Y-134189596D01*
X149960477Y-134380072D01*
X149960477Y-134522930D01*
X149912858Y-134713406D01*
X149865239Y-134808644D01*
X149770001Y-134903882D01*
X149627143Y-134951501D01*
X149389048Y-134951501D01*
X150341429Y-134046739D02*
X150389048Y-133999120D01*
X150484286Y-133951501D01*
X150722382Y-133951501D01*
X150817620Y-133999120D01*
X150865239Y-134046739D01*
X150912858Y-134141977D01*
X150912858Y-134237215D01*
X150865239Y-134380072D01*
X150293810Y-134951501D01*
X150912858Y-134951501D01*
X136904762Y-71647619D02*
X136809524Y-71600000D01*
X136714286Y-71504762D01*
X136571429Y-71361905D01*
X136476190Y-71314286D01*
X136380952Y-71314286D01*
X136428571Y-71552381D02*
X136333333Y-71504762D01*
X136238095Y-71409524D01*
X136190476Y-71219048D01*
X136190476Y-70885714D01*
X136238095Y-70695238D01*
X136333333Y-70600000D01*
X136428571Y-70552381D01*
X136619048Y-70552381D01*
X136714286Y-70600000D01*
X136809524Y-70695238D01*
X136857143Y-70885714D01*
X136857143Y-71219048D01*
X136809524Y-71409524D01*
X136714286Y-71504762D01*
X136619048Y-71552381D01*
X136428571Y-71552381D01*
X137809524Y-71552381D02*
X137238095Y-71552381D01*
X137523809Y-71552381D02*
X137523809Y-70552381D01*
X137428571Y-70695238D01*
X137333333Y-70790476D01*
X137238095Y-70838095D01*
X140904762Y-128647619D02*
X140809524Y-128600000D01*
X140714286Y-128504762D01*
X140571429Y-128361905D01*
X140476190Y-128314286D01*
X140380952Y-128314286D01*
X140428571Y-128552381D02*
X140333333Y-128504762D01*
X140238095Y-128409524D01*
X140190476Y-128219048D01*
X140190476Y-127885714D01*
X140238095Y-127695238D01*
X140333333Y-127600000D01*
X140428571Y-127552381D01*
X140619048Y-127552381D01*
X140714286Y-127600000D01*
X140809524Y-127695238D01*
X140857143Y-127885714D01*
X140857143Y-128219048D01*
X140809524Y-128409524D01*
X140714286Y-128504762D01*
X140619048Y-128552381D01*
X140428571Y-128552381D01*
X141238095Y-127647619D02*
X141285714Y-127600000D01*
X141380952Y-127552381D01*
X141619048Y-127552381D01*
X141714286Y-127600000D01*
X141761905Y-127647619D01*
X141809524Y-127742857D01*
X141809524Y-127838095D01*
X141761905Y-127980952D01*
X141190476Y-128552381D01*
X141809524Y-128552381D01*
X140952501Y-78995586D02*
X140476310Y-79328920D01*
X140952501Y-79567015D02*
X139952501Y-79567015D01*
X139952501Y-79186062D01*
X140000120Y-79090824D01*
X140047739Y-79043205D01*
X140142977Y-78995586D01*
X140285834Y-78995586D01*
X140381072Y-79043205D01*
X140428691Y-79090824D01*
X140476310Y-79186062D01*
X140476310Y-79567015D01*
X140428691Y-78233681D02*
X140476310Y-78090824D01*
X140523930Y-78043205D01*
X140619168Y-77995586D01*
X140762025Y-77995586D01*
X140857263Y-78043205D01*
X140904882Y-78090824D01*
X140952501Y-78186062D01*
X140952501Y-78567015D01*
X139952501Y-78567015D01*
X139952501Y-78233681D01*
X140000120Y-78138443D01*
X140047739Y-78090824D01*
X140142977Y-78043205D01*
X140238215Y-78043205D01*
X140333453Y-78090824D01*
X140381072Y-78138443D01*
X140428691Y-78233681D01*
X140428691Y-78567015D01*
X140952501Y-77043205D02*
X140952501Y-77614634D01*
X140952501Y-77328920D02*
X139952501Y-77328920D01*
X140095358Y-77424158D01*
X140190596Y-77519396D01*
X140238215Y-77614634D01*
X137952261Y-109337746D02*
X137476070Y-109671080D01*
X137952261Y-109909175D02*
X136952261Y-109909175D01*
X136952261Y-109528222D01*
X136999880Y-109432984D01*
X137047499Y-109385365D01*
X137142737Y-109337746D01*
X137285594Y-109337746D01*
X137380832Y-109385365D01*
X137428451Y-109432984D01*
X137476070Y-109528222D01*
X137476070Y-109909175D01*
X137428451Y-108575841D02*
X137476070Y-108432984D01*
X137523690Y-108385365D01*
X137618928Y-108337746D01*
X137761785Y-108337746D01*
X137857023Y-108385365D01*
X137904642Y-108432984D01*
X137952261Y-108528222D01*
X137952261Y-108909175D01*
X136952261Y-108909175D01*
X136952261Y-108575841D01*
X136999880Y-108480603D01*
X137047499Y-108432984D01*
X137142737Y-108385365D01*
X137237975Y-108385365D01*
X137333213Y-108432984D01*
X137380832Y-108480603D01*
X137428451Y-108575841D01*
X137428451Y-108909175D01*
X137047499Y-107956794D02*
X136999880Y-107909175D01*
X136952261Y-107813937D01*
X136952261Y-107575841D01*
X136999880Y-107480603D01*
X137047499Y-107432984D01*
X137142737Y-107385365D01*
X137237975Y-107385365D01*
X137380832Y-107432984D01*
X137952261Y-108004413D01*
X137952261Y-107385365D01*
X132952501Y-100995586D02*
X132476310Y-101328920D01*
X132952501Y-101567015D02*
X131952501Y-101567015D01*
X131952501Y-101186062D01*
X132000120Y-101090824D01*
X132047739Y-101043205D01*
X132142977Y-100995586D01*
X132285834Y-100995586D01*
X132381072Y-101043205D01*
X132428691Y-101090824D01*
X132476310Y-101186062D01*
X132476310Y-101567015D01*
X132952501Y-100567015D02*
X131952501Y-100567015D01*
X131952501Y-100328920D01*
X132000120Y-100186062D01*
X132095358Y-100090824D01*
X132190596Y-100043205D01*
X132381072Y-99995586D01*
X132523930Y-99995586D01*
X132714406Y-100043205D01*
X132809644Y-100090824D01*
X132904882Y-100186062D01*
X132952501Y-100328920D01*
X132952501Y-100567015D01*
X132952501Y-99043205D02*
X132952501Y-99614634D01*
X132952501Y-99328920D02*
X131952501Y-99328920D01*
X132095358Y-99424158D01*
X132190596Y-99519396D01*
X132238215Y-99614634D01*
X157952501Y-103995586D02*
X157476310Y-104328920D01*
X157952501Y-104567015D02*
X156952501Y-104567015D01*
X156952501Y-104186062D01*
X157000120Y-104090824D01*
X157047739Y-104043205D01*
X157142977Y-103995586D01*
X157285834Y-103995586D01*
X157381072Y-104043205D01*
X157428691Y-104090824D01*
X157476310Y-104186062D01*
X157476310Y-104567015D01*
X157952501Y-103567015D02*
X156952501Y-103567015D01*
X156952501Y-103328920D01*
X157000120Y-103186062D01*
X157095358Y-103090824D01*
X157190596Y-103043205D01*
X157381072Y-102995586D01*
X157523930Y-102995586D01*
X157714406Y-103043205D01*
X157809644Y-103090824D01*
X157904882Y-103186062D01*
X157952501Y-103328920D01*
X157952501Y-103567015D01*
X157047739Y-102614634D02*
X157000120Y-102567015D01*
X156952501Y-102471777D01*
X156952501Y-102233681D01*
X157000120Y-102138443D01*
X157047739Y-102090824D01*
X157142977Y-102043205D01*
X157238215Y-102043205D01*
X157381072Y-102090824D01*
X157952501Y-102662253D01*
X157952501Y-102043205D01*
X130952501Y-58971777D02*
X130476310Y-59305111D01*
X130952501Y-59543206D02*
X129952501Y-59543206D01*
X129952501Y-59162253D01*
X130000120Y-59067015D01*
X130047739Y-59019396D01*
X130142977Y-58971777D01*
X130285834Y-58971777D01*
X130381072Y-59019396D01*
X130428691Y-59067015D01*
X130476310Y-59162253D01*
X130476310Y-59543206D01*
X130904882Y-58590825D02*
X130952501Y-58447968D01*
X130952501Y-58209872D01*
X130904882Y-58114634D01*
X130857263Y-58067015D01*
X130762025Y-58019396D01*
X130666787Y-58019396D01*
X130571549Y-58067015D01*
X130523930Y-58114634D01*
X130476310Y-58209872D01*
X130428691Y-58400349D01*
X130381072Y-58495587D01*
X130333453Y-58543206D01*
X130238215Y-58590825D01*
X130142977Y-58590825D01*
X130047739Y-58543206D01*
X130000120Y-58495587D01*
X129952501Y-58400349D01*
X129952501Y-58162253D01*
X130000120Y-58019396D01*
X130952501Y-57067015D02*
X130952501Y-57638444D01*
X130952501Y-57352730D02*
X129952501Y-57352730D01*
X130095358Y-57447968D01*
X130190596Y-57543206D01*
X130238215Y-57638444D01*
X142028223Y-134952501D02*
X141694889Y-134476310D01*
X141456794Y-134952501D02*
X141456794Y-133952501D01*
X141837747Y-133952501D01*
X141932985Y-134000120D01*
X141980604Y-134047739D01*
X142028223Y-134142977D01*
X142028223Y-134285834D01*
X141980604Y-134381072D01*
X141932985Y-134428691D01*
X141837747Y-134476310D01*
X141456794Y-134476310D01*
X142409175Y-134904882D02*
X142552032Y-134952501D01*
X142790128Y-134952501D01*
X142885366Y-134904882D01*
X142932985Y-134857263D01*
X142980604Y-134762025D01*
X142980604Y-134666787D01*
X142932985Y-134571549D01*
X142885366Y-134523930D01*
X142790128Y-134476310D01*
X142599651Y-134428691D01*
X142504413Y-134381072D01*
X142456794Y-134333453D01*
X142409175Y-134238215D01*
X142409175Y-134142977D01*
X142456794Y-134047739D01*
X142504413Y-134000120D01*
X142599651Y-133952501D01*
X142837747Y-133952501D01*
X142980604Y-134000120D01*
X143361556Y-134047739D02*
X143409175Y-134000120D01*
X143504413Y-133952501D01*
X143742509Y-133952501D01*
X143837747Y-134000120D01*
X143885366Y-134047739D01*
X143932985Y-134142977D01*
X143932985Y-134238215D01*
X143885366Y-134381072D01*
X143313937Y-134952501D01*
X143932985Y-134952501D01*
X102252381Y-58761905D02*
X103061905Y-58761905D01*
X103157143Y-58714286D01*
X103204762Y-58666667D01*
X103252381Y-58571429D01*
X103252381Y-58380952D01*
X103204762Y-58285714D01*
X103157143Y-58238095D01*
X103061905Y-58190476D01*
X102252381Y-58190476D01*
X103252381Y-57190476D02*
X103252381Y-57761905D01*
X103252381Y-57476191D02*
X102252381Y-57476191D01*
X102395238Y-57571429D01*
X102490476Y-57666667D01*
X102538095Y-57761905D01*
X140638095Y-100652381D02*
X140638095Y-101461905D01*
X140685714Y-101557143D01*
X140733333Y-101604762D01*
X140828571Y-101652381D01*
X141019048Y-101652381D01*
X141114286Y-101604762D01*
X141161905Y-101557143D01*
X141209524Y-101461905D01*
X141209524Y-100652381D01*
X141638095Y-100747619D02*
X141685714Y-100700000D01*
X141780952Y-100652381D01*
X142019048Y-100652381D01*
X142114286Y-100700000D01*
X142161905Y-100747619D01*
X142209524Y-100842857D01*
X142209524Y-100938095D01*
X142161905Y-101080952D01*
X141590476Y-101652381D01*
X142209524Y-101652381D01*
X122952381Y-94142857D02*
X121952381Y-94142857D01*
X121952381Y-93761904D01*
X122000000Y-93666666D01*
X122047619Y-93619047D01*
X122142857Y-93571428D01*
X122285714Y-93571428D01*
X122380952Y-93619047D01*
X122428571Y-93666666D01*
X122476190Y-93761904D01*
X122476190Y-94142857D01*
X121952381Y-92952381D02*
X121952381Y-92761904D01*
X122000000Y-92666666D01*
X122095238Y-92571428D01*
X122285714Y-92523809D01*
X122619048Y-92523809D01*
X122809524Y-92571428D01*
X122904762Y-92666666D01*
X122952381Y-92761904D01*
X122952381Y-92952381D01*
X122904762Y-93047619D01*
X122809524Y-93142857D01*
X122619048Y-93190476D01*
X122285714Y-93190476D01*
X122095238Y-93142857D01*
X122000000Y-93047619D01*
X121952381Y-92952381D01*
X121952381Y-92238095D02*
X121952381Y-91666666D01*
X122952381Y-91952381D02*
X121952381Y-91952381D01*
X122952381Y-90809523D02*
X122952381Y-91380952D01*
X122952381Y-91095238D02*
X121952381Y-91095238D01*
X122095238Y-91190476D01*
X122190476Y-91285714D01*
X122238095Y-91380952D01*
X166952381Y-94142857D02*
X165952381Y-94142857D01*
X165952381Y-93761904D01*
X166000000Y-93666666D01*
X166047619Y-93619047D01*
X166142857Y-93571428D01*
X166285714Y-93571428D01*
X166380952Y-93619047D01*
X166428571Y-93666666D01*
X166476190Y-93761904D01*
X166476190Y-94142857D01*
X165952381Y-92952381D02*
X165952381Y-92761904D01*
X166000000Y-92666666D01*
X166095238Y-92571428D01*
X166285714Y-92523809D01*
X166619048Y-92523809D01*
X166809524Y-92571428D01*
X166904762Y-92666666D01*
X166952381Y-92761904D01*
X166952381Y-92952381D01*
X166904762Y-93047619D01*
X166809524Y-93142857D01*
X166619048Y-93190476D01*
X166285714Y-93190476D01*
X166095238Y-93142857D01*
X166000000Y-93047619D01*
X165952381Y-92952381D01*
X165952381Y-92238095D02*
X165952381Y-91666666D01*
X166952381Y-91952381D02*
X165952381Y-91952381D01*
X166047619Y-91380952D02*
X166000000Y-91333333D01*
X165952381Y-91238095D01*
X165952381Y-90999999D01*
X166000000Y-90904761D01*
X166047619Y-90857142D01*
X166142857Y-90809523D01*
X166238095Y-90809523D01*
X166380952Y-90857142D01*
X166952381Y-91428571D01*
X166952381Y-90809523D01*
X83666667Y-50404762D02*
X83809524Y-50452381D01*
X84047620Y-50452381D01*
X84142858Y-50404762D01*
X84190477Y-50357143D01*
X84238096Y-50261905D01*
X84238096Y-50166667D01*
X84190477Y-50071429D01*
X84142858Y-50023810D01*
X84047620Y-49976190D01*
X83857143Y-49928571D01*
X83761905Y-49880952D01*
X83714286Y-49833333D01*
X83666667Y-49738095D01*
X83666667Y-49642857D01*
X83714286Y-49547619D01*
X83761905Y-49500000D01*
X83857143Y-49452381D01*
X84095239Y-49452381D01*
X84238096Y-49500000D01*
X84571429Y-49452381D02*
X84809524Y-50452381D01*
X85000001Y-49738095D01*
X85190477Y-50452381D01*
X85428572Y-49452381D01*
X86333334Y-50452381D02*
X85761905Y-50452381D01*
X86047619Y-50452381D02*
X86047619Y-49452381D01*
X85952381Y-49595238D01*
X85857143Y-49690476D01*
X85761905Y-49738095D01*
M02*
