G04 #@! TF.FileFunction,Copper,L1,Top,Signal*
%FSLAX46Y46*%
G04 Gerber Fmt 4.6, Leading zero omitted, Abs format (unit mm)*
G04 Created by KiCad (PCBNEW 4.0.2+dfsg1-stable) date Fri 18 May 2018 16:31:02 BST*
%MOMM*%
G01*
G04 APERTURE LIST*
%ADD10C,0.100000*%
%ADD11C,5.000000*%
%ADD12O,1.998980X1.998980*%
%ADD13R,1.998980X1.998980*%
%ADD14C,1.600000*%
%ADD15C,1.998980*%
%ADD16O,2.300000X1.600000*%
%ADD17C,1.510000*%
%ADD18R,1.510000X1.510000*%
%ADD19C,1.900000*%
%ADD20C,0.750000*%
%ADD21C,0.254000*%
G04 APERTURE END LIST*
D10*
D11*
X179650000Y-102615000D03*
X201620000Y-116405000D03*
X179650000Y-130705000D03*
D12*
X186540000Y-71000000D03*
D13*
X184000000Y-71000000D03*
D12*
X97540000Y-71000000D03*
D13*
X95000000Y-71000000D03*
D12*
X138540000Y-139000000D03*
D13*
X136000000Y-139000000D03*
D12*
X147460000Y-51000000D03*
D13*
X150000000Y-51000000D03*
D12*
X136460000Y-51000000D03*
D13*
X139000000Y-51000000D03*
D12*
X150540000Y-139000000D03*
D13*
X148000000Y-139000000D03*
D14*
X134460000Y-65000000D03*
X137000000Y-62460000D03*
X139540000Y-65000000D03*
X138460000Y-122000000D03*
X141000000Y-119460000D03*
X143540000Y-122000000D03*
D15*
X137000000Y-73000000D03*
X137000000Y-83160000D03*
X141000000Y-114000000D03*
X141000000Y-103840000D03*
X129000000Y-95000000D03*
X129000000Y-105160000D03*
X154000000Y-98000000D03*
X154000000Y-108160000D03*
X127000000Y-53000000D03*
X127000000Y-63160000D03*
X148000000Y-131000000D03*
X137840000Y-131000000D03*
D14*
X98000000Y-62800000D03*
X98000000Y-60800000D03*
X98000000Y-58000000D03*
X98000000Y-54000000D03*
D16*
X137000000Y-90000000D03*
X137000000Y-92540000D03*
X137000000Y-95080000D03*
X137000000Y-97620000D03*
X144620000Y-97620000D03*
X144620000Y-95080000D03*
X144620000Y-92540000D03*
X144620000Y-90000000D03*
D17*
X119000000Y-95080000D03*
D18*
X119000000Y-90000000D03*
D17*
X119000000Y-92540000D03*
X163000000Y-95080000D03*
D18*
X163000000Y-90000000D03*
D17*
X163000000Y-92540000D03*
D19*
X87540000Y-55000000D03*
X85000000Y-55000000D03*
X82460000Y-55000000D03*
D11*
X81770000Y-102605000D03*
X103740000Y-116395000D03*
X81770000Y-130695000D03*
D20*
X97540000Y-71000000D02*
X97540000Y-74540000D01*
X188000000Y-71000000D02*
X186540000Y-71000000D01*
X189000000Y-72000000D02*
X188000000Y-71000000D01*
X189000000Y-75156494D02*
X189000000Y-72000000D01*
X187156494Y-77000000D02*
X189000000Y-75156494D01*
X100000000Y-77000000D02*
X187156494Y-77000000D01*
X97540000Y-74540000D02*
X100000000Y-77000000D01*
X97540000Y-71000000D02*
X97540000Y-67460000D01*
X98000000Y-67000000D02*
X98000000Y-62800000D01*
X97540000Y-67460000D02*
X98000000Y-67000000D01*
X85000000Y-55000000D02*
X85000000Y-56000000D01*
X95000000Y-63500000D02*
X95000000Y-71000000D01*
X94000000Y-62500000D02*
X95000000Y-63500000D01*
X93500000Y-62500000D02*
X94000000Y-62500000D01*
X90500000Y-59500000D02*
X93500000Y-62500000D01*
X90500000Y-57500000D02*
X90500000Y-59500000D01*
X90000000Y-57000000D02*
X90500000Y-57500000D01*
X86000000Y-57000000D02*
X90000000Y-57000000D01*
X85000000Y-56000000D02*
X86000000Y-57000000D01*
X95000000Y-71000000D02*
X95000000Y-76000000D01*
X95000000Y-76000000D02*
X97000000Y-78000000D01*
X97000000Y-78000000D02*
X187500000Y-78000000D01*
X187500000Y-78000000D02*
X190000000Y-75500000D01*
X190000000Y-75500000D02*
X190000000Y-71500000D01*
X190000000Y-71500000D02*
X187000000Y-68500000D01*
X187000000Y-68500000D02*
X184500000Y-68500000D01*
X184500000Y-68500000D02*
X184000000Y-69000000D01*
X184000000Y-69000000D02*
X184000000Y-71000000D01*
X137000000Y-73000000D02*
X137000000Y-62460000D01*
X141000000Y-114000000D02*
X141000000Y-119460000D01*
X87540000Y-55000000D02*
X90000000Y-55000000D01*
X93800000Y-60800000D02*
X98000000Y-60800000D01*
X92000000Y-59000000D02*
X93800000Y-60800000D01*
X92000000Y-57000000D02*
X92000000Y-59000000D01*
X90000000Y-55000000D02*
X92000000Y-57000000D01*
X138540000Y-139000000D02*
X138540000Y-137540000D01*
X124000000Y-95000000D02*
X129000000Y-95000000D01*
X118000000Y-101000000D02*
X124000000Y-95000000D01*
X118000000Y-134000000D02*
X118000000Y-101000000D01*
X120000000Y-136000000D02*
X118000000Y-134000000D01*
X137000000Y-136000000D02*
X120000000Y-136000000D01*
X138540000Y-137540000D02*
X137000000Y-136000000D01*
X137000000Y-95080000D02*
X129080000Y-95080000D01*
X129080000Y-95080000D02*
X129000000Y-95000000D01*
X163000000Y-90000000D02*
X144620000Y-90000000D01*
X98000000Y-58000000D02*
X95000000Y-58000000D01*
X79500000Y-90000000D02*
X119000000Y-90000000D01*
X76500000Y-87000000D02*
X79500000Y-90000000D01*
X76500000Y-54500000D02*
X76500000Y-87000000D01*
X79000000Y-52000000D02*
X76500000Y-54500000D01*
X91000000Y-52000000D02*
X79000000Y-52000000D01*
X95000000Y-56000000D02*
X91000000Y-52000000D01*
X95000000Y-58000000D02*
X95000000Y-56000000D01*
X127000000Y-63160000D02*
X127000000Y-72500000D01*
X150000000Y-72500000D02*
X150000000Y-51000000D01*
X147500000Y-75000000D02*
X150000000Y-72500000D01*
X129500000Y-75000000D02*
X147500000Y-75000000D01*
X127000000Y-72500000D02*
X129500000Y-75000000D01*
X119000000Y-90000000D02*
X119000000Y-83000000D01*
X119000000Y-83000000D02*
X121500000Y-80500000D01*
X121500000Y-80500000D02*
X160500000Y-80500000D01*
X160500000Y-80500000D02*
X163000000Y-83000000D01*
X163000000Y-83000000D02*
X163000000Y-90000000D01*
X136000000Y-139000000D02*
X136000000Y-141000000D01*
X137840000Y-132840000D02*
X137840000Y-131000000D01*
X141000000Y-136000000D02*
X137840000Y-132840000D01*
X141000000Y-138000000D02*
X141000000Y-136000000D01*
X142000000Y-139000000D02*
X141000000Y-138000000D01*
X142000000Y-141000000D02*
X142000000Y-139000000D01*
X141000000Y-142000000D02*
X142000000Y-141000000D01*
X137000000Y-142000000D02*
X141000000Y-142000000D01*
X136000000Y-141000000D02*
X137000000Y-142000000D01*
X136000000Y-139000000D02*
X120000000Y-139000000D01*
X120000000Y-139000000D02*
X116000000Y-135000000D01*
X116000000Y-135000000D02*
X116000000Y-92000000D01*
X116000000Y-92000000D02*
X118000000Y-90000000D01*
X118000000Y-90000000D02*
X119000000Y-90000000D01*
X98000000Y-58000000D02*
X110000000Y-58000000D01*
X115160000Y-63160000D02*
X127000000Y-63160000D01*
X110000000Y-58000000D02*
X115160000Y-63160000D01*
X154000000Y-98000000D02*
X191000000Y-98000000D01*
X147460000Y-48540000D02*
X147460000Y-51000000D01*
X149000000Y-47000000D02*
X147460000Y-48540000D01*
X191000000Y-47000000D02*
X149000000Y-47000000D01*
X193000000Y-49000000D02*
X191000000Y-47000000D01*
X193000000Y-96000000D02*
X193000000Y-49000000D01*
X191000000Y-98000000D02*
X193000000Y-96000000D01*
X153620000Y-97620000D02*
X154000000Y-98000000D01*
X144620000Y-97620000D02*
X153620000Y-97620000D01*
X136460000Y-51000000D02*
X128000000Y-51000000D01*
X127000000Y-52000000D02*
X127000000Y-53000000D01*
X128000000Y-51000000D02*
X127000000Y-52000000D01*
X139540000Y-65000000D02*
X139540000Y-57540000D01*
X139000000Y-57000000D02*
X139000000Y-51000000D01*
X139540000Y-57540000D02*
X139000000Y-57000000D01*
X148000000Y-131000000D02*
X150000000Y-131000000D01*
X150540000Y-131540000D02*
X150540000Y-139000000D01*
X150000000Y-131000000D02*
X150540000Y-131540000D01*
X143540000Y-122000000D02*
X143540000Y-137540000D01*
X145000000Y-139000000D02*
X148000000Y-139000000D01*
X143540000Y-137540000D02*
X145000000Y-139000000D01*
X137000000Y-92540000D02*
X119000000Y-92540000D01*
X152920000Y-95080000D02*
X144620000Y-95080000D01*
X163000000Y-92540000D02*
X155460000Y-92540000D01*
X155460000Y-92540000D02*
X152920000Y-95080000D01*
X137000000Y-83160000D02*
X137000000Y-90000000D01*
X142460000Y-92540000D02*
X144620000Y-92540000D01*
X141000000Y-103840000D02*
X141000000Y-94000000D01*
X141000000Y-94000000D02*
X142460000Y-92540000D01*
D21*
G36*
X218201600Y-85123900D02*
X218234103Y-85287306D01*
X218326665Y-85425835D01*
X218465194Y-85518397D01*
X218628600Y-85550900D01*
X243201600Y-85550900D01*
X243201600Y-104696900D01*
X218628600Y-104696900D01*
X218465194Y-104729403D01*
X218326665Y-104821965D01*
X218234103Y-104960494D01*
X218201600Y-105123900D01*
X218201600Y-144696900D01*
X69055600Y-144696900D01*
X69055600Y-105123900D01*
X69023097Y-104960494D01*
X68930535Y-104821965D01*
X68792006Y-104729403D01*
X68628600Y-104696900D01*
X44055600Y-104696900D01*
X44055600Y-85550900D01*
X68628600Y-85550900D01*
X68792006Y-85518397D01*
X68930535Y-85425835D01*
X69023097Y-85287306D01*
X69055600Y-85123900D01*
X69055600Y-54500000D01*
X75748000Y-54500000D01*
X75748000Y-87000000D01*
X75805243Y-87287778D01*
X75968256Y-87531744D01*
X78968256Y-90531745D01*
X79114503Y-90629464D01*
X79212222Y-90694757D01*
X79500000Y-90752000D01*
X116184512Y-90752000D01*
X115468256Y-91468256D01*
X115305243Y-91712222D01*
X115248000Y-92000000D01*
X115248000Y-135000000D01*
X115305243Y-135287778D01*
X115468256Y-135531744D01*
X119468256Y-139531744D01*
X119712222Y-139694757D01*
X120000000Y-139752000D01*
X134616125Y-139752000D01*
X134616125Y-139999490D01*
X134642413Y-140139198D01*
X134724980Y-140267510D01*
X134850963Y-140353591D01*
X135000510Y-140383875D01*
X135248000Y-140383875D01*
X135248000Y-141000000D01*
X135305243Y-141287778D01*
X135468256Y-141531744D01*
X136468256Y-142531745D01*
X136614503Y-142629464D01*
X136712222Y-142694757D01*
X137000000Y-142752000D01*
X141000000Y-142752000D01*
X141287778Y-142694757D01*
X141531744Y-142531744D01*
X142531745Y-141531744D01*
X142683087Y-141305243D01*
X142694757Y-141287778D01*
X142752000Y-141000000D01*
X142752000Y-139000000D01*
X142694757Y-138712222D01*
X142629464Y-138614503D01*
X142531745Y-138468256D01*
X141752000Y-137688512D01*
X141752000Y-136000000D01*
X141694757Y-135712222D01*
X141531744Y-135468256D01*
X138592000Y-132528512D01*
X138592000Y-132178644D01*
X138618700Y-132167612D01*
X139006251Y-131780737D01*
X139216251Y-131275002D01*
X139216728Y-130727400D01*
X139007612Y-130221300D01*
X138620737Y-129833749D01*
X138115002Y-129623749D01*
X137567400Y-129623272D01*
X137061300Y-129832388D01*
X136673749Y-130219263D01*
X136463749Y-130724998D01*
X136463272Y-131272600D01*
X136672388Y-131778700D01*
X137059263Y-132166251D01*
X137088000Y-132178184D01*
X137088000Y-132840000D01*
X137145243Y-133127778D01*
X137308256Y-133371744D01*
X140248000Y-136311488D01*
X140248000Y-138000000D01*
X140305243Y-138287778D01*
X140468256Y-138531744D01*
X141248000Y-139311489D01*
X141248000Y-140688511D01*
X140688512Y-141248000D01*
X137311489Y-141248000D01*
X136752000Y-140688512D01*
X136752000Y-140383875D01*
X136999490Y-140383875D01*
X137139198Y-140357587D01*
X137267510Y-140275020D01*
X137353591Y-140149037D01*
X137383875Y-139999490D01*
X137383875Y-139740105D01*
X137539708Y-139973325D01*
X137986273Y-140271711D01*
X138513033Y-140376490D01*
X138566967Y-140376490D01*
X139093727Y-140271711D01*
X139540292Y-139973325D01*
X139838678Y-139526760D01*
X139943457Y-139000000D01*
X139838678Y-138473240D01*
X139540292Y-138026675D01*
X139292000Y-137860771D01*
X139292000Y-137540000D01*
X139234757Y-137252222D01*
X139071744Y-137008256D01*
X137531744Y-135468256D01*
X137287778Y-135305243D01*
X137000000Y-135248000D01*
X120311488Y-135248000D01*
X118752000Y-133688512D01*
X118752000Y-123160727D01*
X137864958Y-123160727D01*
X137956374Y-123373703D01*
X138520403Y-123461865D01*
X138963626Y-123373703D01*
X139055042Y-123160727D01*
X138460000Y-122565685D01*
X137864958Y-123160727D01*
X118752000Y-123160727D01*
X118752000Y-122060403D01*
X136998135Y-122060403D01*
X137086297Y-122503626D01*
X137299273Y-122595042D01*
X137894315Y-122000000D01*
X139025685Y-122000000D01*
X139620727Y-122595042D01*
X139833703Y-122503626D01*
X139875989Y-122233093D01*
X142362796Y-122233093D01*
X142541606Y-122665846D01*
X142788000Y-122912671D01*
X142788000Y-137540000D01*
X142845243Y-137827778D01*
X143008256Y-138071744D01*
X144468256Y-139531744D01*
X144712222Y-139694757D01*
X145000000Y-139752000D01*
X146616125Y-139752000D01*
X146616125Y-139999490D01*
X146642413Y-140139198D01*
X146724980Y-140267510D01*
X146850963Y-140353591D01*
X147000510Y-140383875D01*
X148999490Y-140383875D01*
X149139198Y-140357587D01*
X149267510Y-140275020D01*
X149353591Y-140149037D01*
X149383875Y-139999490D01*
X149383875Y-139740105D01*
X149539708Y-139973325D01*
X149986273Y-140271711D01*
X150513033Y-140376490D01*
X150566967Y-140376490D01*
X151093727Y-140271711D01*
X151540292Y-139973325D01*
X151838678Y-139526760D01*
X151943457Y-139000000D01*
X151838678Y-138473240D01*
X151540292Y-138026675D01*
X151292000Y-137860771D01*
X151292000Y-131540000D01*
X151234757Y-131252222D01*
X151071744Y-131008255D01*
X150531744Y-130468256D01*
X150287778Y-130305243D01*
X150000000Y-130248000D01*
X149178644Y-130248000D01*
X149167612Y-130221300D01*
X148780737Y-129833749D01*
X148275002Y-129623749D01*
X147727400Y-129623272D01*
X147221300Y-129832388D01*
X146833749Y-130219263D01*
X146623749Y-130724998D01*
X146623272Y-131272600D01*
X146832388Y-131778700D01*
X147219263Y-132166251D01*
X147724998Y-132376251D01*
X148272600Y-132376728D01*
X148778700Y-132167612D01*
X149166251Y-131780737D01*
X149178184Y-131752000D01*
X149688512Y-131752000D01*
X149788000Y-131851489D01*
X149788000Y-137860771D01*
X149539708Y-138026675D01*
X149383875Y-138259895D01*
X149383875Y-138000510D01*
X149357587Y-137860802D01*
X149275020Y-137732490D01*
X149149037Y-137646409D01*
X148999490Y-137616125D01*
X147000510Y-137616125D01*
X146860802Y-137642413D01*
X146732490Y-137724980D01*
X146646409Y-137850963D01*
X146616125Y-138000510D01*
X146616125Y-138248000D01*
X145311488Y-138248000D01*
X144292000Y-137228512D01*
X144292000Y-122912390D01*
X144537230Y-122667588D01*
X144716795Y-122235147D01*
X144717204Y-121766907D01*
X144538394Y-121334154D01*
X144207588Y-121002770D01*
X143775147Y-120823205D01*
X143306907Y-120822796D01*
X142874154Y-121001606D01*
X142542770Y-121332412D01*
X142363205Y-121764853D01*
X142362796Y-122233093D01*
X139875989Y-122233093D01*
X139921865Y-121939597D01*
X139833703Y-121496374D01*
X139620727Y-121404958D01*
X139025685Y-122000000D01*
X137894315Y-122000000D01*
X137299273Y-121404958D01*
X137086297Y-121496374D01*
X136998135Y-122060403D01*
X118752000Y-122060403D01*
X118752000Y-120839273D01*
X137864958Y-120839273D01*
X138460000Y-121434315D01*
X139055042Y-120839273D01*
X138963626Y-120626297D01*
X138399597Y-120538135D01*
X137956374Y-120626297D01*
X137864958Y-120839273D01*
X118752000Y-120839273D01*
X118752000Y-114272600D01*
X139623272Y-114272600D01*
X139832388Y-114778700D01*
X140219263Y-115166251D01*
X140248000Y-115178184D01*
X140248000Y-118547610D01*
X140002770Y-118792412D01*
X139823205Y-119224853D01*
X139822796Y-119693093D01*
X140001606Y-120125846D01*
X140332412Y-120457230D01*
X140764853Y-120636795D01*
X141233093Y-120637204D01*
X141665846Y-120458394D01*
X141997230Y-120127588D01*
X142176795Y-119695147D01*
X142177204Y-119226907D01*
X141998394Y-118794154D01*
X141752000Y-118547329D01*
X141752000Y-115178644D01*
X141778700Y-115167612D01*
X142166251Y-114780737D01*
X142376251Y-114275002D01*
X142376728Y-113727400D01*
X142167612Y-113221300D01*
X141780737Y-112833749D01*
X141275002Y-112623749D01*
X140727400Y-112623272D01*
X140221300Y-112832388D01*
X139833749Y-113219263D01*
X139623749Y-113724998D01*
X139623272Y-114272600D01*
X118752000Y-114272600D01*
X118752000Y-109519256D01*
X153347490Y-109519256D01*
X153469831Y-109739931D01*
X154114801Y-109822553D01*
X154530169Y-109739931D01*
X154652510Y-109519256D01*
X154000000Y-108866746D01*
X153347490Y-109519256D01*
X118752000Y-109519256D01*
X118752000Y-108274801D01*
X152337447Y-108274801D01*
X152420069Y-108690169D01*
X152640744Y-108812510D01*
X153293254Y-108160000D01*
X154706746Y-108160000D01*
X155359256Y-108812510D01*
X155579931Y-108690169D01*
X155662553Y-108045199D01*
X155579931Y-107629831D01*
X155359256Y-107507490D01*
X154706746Y-108160000D01*
X153293254Y-108160000D01*
X152640744Y-107507490D01*
X152420069Y-107629831D01*
X152337447Y-108274801D01*
X118752000Y-108274801D01*
X118752000Y-106519256D01*
X128347490Y-106519256D01*
X128469831Y-106739931D01*
X129114801Y-106822553D01*
X129224442Y-106800744D01*
X153347490Y-106800744D01*
X154000000Y-107453254D01*
X154652510Y-106800744D01*
X154530169Y-106580069D01*
X153885199Y-106497447D01*
X153469831Y-106580069D01*
X153347490Y-106800744D01*
X129224442Y-106800744D01*
X129530169Y-106739931D01*
X129652510Y-106519256D01*
X129000000Y-105866746D01*
X128347490Y-106519256D01*
X118752000Y-106519256D01*
X118752000Y-105274801D01*
X127337447Y-105274801D01*
X127420069Y-105690169D01*
X127640744Y-105812510D01*
X128293254Y-105160000D01*
X129706746Y-105160000D01*
X130359256Y-105812510D01*
X130579931Y-105690169D01*
X130662553Y-105045199D01*
X130579931Y-104629831D01*
X130359256Y-104507490D01*
X129706746Y-105160000D01*
X128293254Y-105160000D01*
X127640744Y-104507490D01*
X127420069Y-104629831D01*
X127337447Y-105274801D01*
X118752000Y-105274801D01*
X118752000Y-103800744D01*
X128347490Y-103800744D01*
X129000000Y-104453254D01*
X129340654Y-104112600D01*
X139623272Y-104112600D01*
X139832388Y-104618700D01*
X140219263Y-105006251D01*
X140724998Y-105216251D01*
X141272600Y-105216728D01*
X141778700Y-105007612D01*
X142166251Y-104620737D01*
X142376251Y-104115002D01*
X142376728Y-103567400D01*
X142167612Y-103061300D01*
X141780737Y-102673749D01*
X141752000Y-102661816D01*
X141752000Y-95080000D01*
X143063084Y-95080000D01*
X143152678Y-95530418D01*
X143407819Y-95912265D01*
X143789666Y-96167406D01*
X144240084Y-96257000D01*
X144999916Y-96257000D01*
X145307412Y-96195835D01*
X162418031Y-96195835D01*
X162502471Y-96407032D01*
X163048176Y-96496413D01*
X163497529Y-96407032D01*
X163581969Y-96195835D01*
X163000000Y-95613866D01*
X162418031Y-96195835D01*
X145307412Y-96195835D01*
X145450334Y-96167406D01*
X145832181Y-95912265D01*
X145885812Y-95832000D01*
X152920000Y-95832000D01*
X153207778Y-95774757D01*
X153451744Y-95611744D01*
X153935312Y-95128176D01*
X161583587Y-95128176D01*
X161672968Y-95577529D01*
X161884165Y-95661969D01*
X162466134Y-95080000D01*
X163533866Y-95080000D01*
X164115835Y-95661969D01*
X164327032Y-95577529D01*
X164416413Y-95031824D01*
X164327032Y-94582471D01*
X164115835Y-94498031D01*
X163533866Y-95080000D01*
X162466134Y-95080000D01*
X161884165Y-94498031D01*
X161672968Y-94582471D01*
X161583587Y-95128176D01*
X153935312Y-95128176D01*
X155771489Y-93292000D01*
X162151194Y-93292000D01*
X162357936Y-93499103D01*
X162773843Y-93671803D01*
X162909922Y-93671922D01*
X162502471Y-93752968D01*
X162418031Y-93964165D01*
X163000000Y-94546134D01*
X163581969Y-93964165D01*
X163497529Y-93752968D01*
X163003208Y-93672003D01*
X163224181Y-93672196D01*
X163640389Y-93500222D01*
X163959103Y-93182064D01*
X164131803Y-92766157D01*
X164132196Y-92315819D01*
X163960222Y-91899611D01*
X163642064Y-91580897D01*
X163226157Y-91408197D01*
X162775819Y-91407804D01*
X162359611Y-91579778D01*
X162151025Y-91788000D01*
X155460000Y-91788000D01*
X155172222Y-91845243D01*
X154928255Y-92008256D01*
X152608512Y-94328000D01*
X145885812Y-94328000D01*
X145832181Y-94247735D01*
X145450334Y-93992594D01*
X144999916Y-93903000D01*
X144240084Y-93903000D01*
X143789666Y-93992594D01*
X143407819Y-94247735D01*
X143152678Y-94629582D01*
X143063084Y-95080000D01*
X141752000Y-95080000D01*
X141752000Y-94311488D01*
X142771488Y-93292000D01*
X143354188Y-93292000D01*
X143407819Y-93372265D01*
X143789666Y-93627406D01*
X144240084Y-93717000D01*
X144999916Y-93717000D01*
X145450334Y-93627406D01*
X145832181Y-93372265D01*
X146087322Y-92990418D01*
X146176916Y-92540000D01*
X146087322Y-92089582D01*
X145832181Y-91707735D01*
X145450334Y-91452594D01*
X144999916Y-91363000D01*
X144240084Y-91363000D01*
X143789666Y-91452594D01*
X143407819Y-91707735D01*
X143354188Y-91788000D01*
X142460000Y-91788000D01*
X142172222Y-91845243D01*
X142090855Y-91899611D01*
X141928256Y-92008256D01*
X140468256Y-93468256D01*
X140305243Y-93712222D01*
X140248000Y-94000000D01*
X140248000Y-102661356D01*
X140221300Y-102672388D01*
X139833749Y-103059263D01*
X139623749Y-103564998D01*
X139623272Y-104112600D01*
X129340654Y-104112600D01*
X129652510Y-103800744D01*
X129530169Y-103580069D01*
X128885199Y-103497447D01*
X128469831Y-103580069D01*
X128347490Y-103800744D01*
X118752000Y-103800744D01*
X118752000Y-101311488D01*
X121832827Y-98230661D01*
X135351417Y-98230661D01*
X135393854Y-98254527D01*
X135732296Y-98686933D01*
X136210450Y-98956908D01*
X136425000Y-98850459D01*
X136425000Y-98020000D01*
X137575000Y-98020000D01*
X137575000Y-98850459D01*
X137789550Y-98956908D01*
X138267704Y-98686933D01*
X138606146Y-98254527D01*
X138648583Y-98230661D01*
X138561946Y-98020000D01*
X137575000Y-98020000D01*
X136425000Y-98020000D01*
X135438054Y-98020000D01*
X135351417Y-98230661D01*
X121832827Y-98230661D01*
X124311489Y-95752000D01*
X127821356Y-95752000D01*
X127832388Y-95778700D01*
X128219263Y-96166251D01*
X128724998Y-96376251D01*
X129272600Y-96376728D01*
X129778700Y-96167612D01*
X130114898Y-95832000D01*
X135734188Y-95832000D01*
X135787819Y-95912265D01*
X136169666Y-96167406D01*
X136258117Y-96185000D01*
X135626998Y-96185000D01*
X135626998Y-96687600D01*
X135393854Y-96985473D01*
X135351417Y-97009339D01*
X135438054Y-97220000D01*
X136425000Y-97220000D01*
X136425000Y-96820000D01*
X137575000Y-96820000D01*
X137575000Y-97220000D01*
X138561946Y-97220000D01*
X138648583Y-97009339D01*
X138606146Y-96985473D01*
X138373002Y-96687600D01*
X138373002Y-96185000D01*
X137741883Y-96185000D01*
X137830334Y-96167406D01*
X138212181Y-95912265D01*
X138467322Y-95530418D01*
X138556916Y-95080000D01*
X138467322Y-94629582D01*
X138212181Y-94247735D01*
X137830334Y-93992594D01*
X137379916Y-93903000D01*
X136620084Y-93903000D01*
X136169666Y-93992594D01*
X135787819Y-94247735D01*
X135734188Y-94328000D01*
X130211699Y-94328000D01*
X130167612Y-94221300D01*
X129780737Y-93833749D01*
X129275002Y-93623749D01*
X128727400Y-93623272D01*
X128221300Y-93832388D01*
X127833749Y-94219263D01*
X127821816Y-94248000D01*
X124000000Y-94248000D01*
X123712222Y-94305243D01*
X123468255Y-94468256D01*
X117468256Y-100468256D01*
X117305243Y-100712222D01*
X117248000Y-101000000D01*
X117248000Y-134000000D01*
X117305243Y-134287778D01*
X117468256Y-134531744D01*
X119468256Y-136531744D01*
X119712222Y-136694757D01*
X120000000Y-136752000D01*
X136688512Y-136752000D01*
X137788000Y-137851488D01*
X137788000Y-137860771D01*
X137539708Y-138026675D01*
X137383875Y-138259895D01*
X137383875Y-138000510D01*
X137357587Y-137860802D01*
X137275020Y-137732490D01*
X137149037Y-137646409D01*
X136999490Y-137616125D01*
X135000510Y-137616125D01*
X134860802Y-137642413D01*
X134732490Y-137724980D01*
X134646409Y-137850963D01*
X134616125Y-138000510D01*
X134616125Y-138248000D01*
X120311488Y-138248000D01*
X116752000Y-134688512D01*
X116752000Y-96195835D01*
X118418031Y-96195835D01*
X118502471Y-96407032D01*
X119048176Y-96496413D01*
X119497529Y-96407032D01*
X119581969Y-96195835D01*
X119000000Y-95613866D01*
X118418031Y-96195835D01*
X116752000Y-96195835D01*
X116752000Y-95128176D01*
X117583587Y-95128176D01*
X117672968Y-95577529D01*
X117884165Y-95661969D01*
X118466134Y-95080000D01*
X119533866Y-95080000D01*
X120115835Y-95661969D01*
X120327032Y-95577529D01*
X120416413Y-95031824D01*
X120327032Y-94582471D01*
X120115835Y-94498031D01*
X119533866Y-95080000D01*
X118466134Y-95080000D01*
X117884165Y-94498031D01*
X117672968Y-94582471D01*
X117583587Y-95128176D01*
X116752000Y-95128176D01*
X116752000Y-92764181D01*
X117867804Y-92764181D01*
X118039778Y-93180389D01*
X118357936Y-93499103D01*
X118773843Y-93671803D01*
X118909922Y-93671922D01*
X118502471Y-93752968D01*
X118418031Y-93964165D01*
X119000000Y-94546134D01*
X119581969Y-93964165D01*
X119497529Y-93752968D01*
X119003208Y-93672003D01*
X119224181Y-93672196D01*
X119640389Y-93500222D01*
X119848975Y-93292000D01*
X135734188Y-93292000D01*
X135787819Y-93372265D01*
X136169666Y-93627406D01*
X136620084Y-93717000D01*
X137379916Y-93717000D01*
X137830334Y-93627406D01*
X138212181Y-93372265D01*
X138467322Y-92990418D01*
X138556916Y-92540000D01*
X138467322Y-92089582D01*
X138212181Y-91707735D01*
X137830334Y-91452594D01*
X137379916Y-91363000D01*
X136620084Y-91363000D01*
X136169666Y-91452594D01*
X135787819Y-91707735D01*
X135734188Y-91788000D01*
X119848806Y-91788000D01*
X119642064Y-91580897D01*
X119226157Y-91408197D01*
X118775819Y-91407804D01*
X118359611Y-91579778D01*
X118040897Y-91897936D01*
X117868197Y-92313843D01*
X117867804Y-92764181D01*
X116752000Y-92764181D01*
X116752000Y-92311488D01*
X118011648Y-91051840D01*
X118095453Y-91109101D01*
X118245000Y-91139385D01*
X119755000Y-91139385D01*
X119894708Y-91113097D01*
X120023020Y-91030530D01*
X120109101Y-90904547D01*
X120139385Y-90755000D01*
X120139385Y-90000000D01*
X135443084Y-90000000D01*
X135532678Y-90450418D01*
X135787819Y-90832265D01*
X136169666Y-91087406D01*
X136620084Y-91177000D01*
X137379916Y-91177000D01*
X137830334Y-91087406D01*
X138212181Y-90832265D01*
X138467322Y-90450418D01*
X138556916Y-90000000D01*
X138467322Y-89549582D01*
X138212181Y-89167735D01*
X137830334Y-88912594D01*
X137752000Y-88897012D01*
X137752000Y-84338644D01*
X137778700Y-84327612D01*
X138166251Y-83940737D01*
X138376251Y-83435002D01*
X138376728Y-82887400D01*
X138167612Y-82381300D01*
X137780737Y-81993749D01*
X137275002Y-81783749D01*
X136727400Y-81783272D01*
X136221300Y-81992388D01*
X135833749Y-82379263D01*
X135623749Y-82884998D01*
X135623272Y-83432600D01*
X135832388Y-83938700D01*
X136219263Y-84326251D01*
X136248000Y-84338184D01*
X136248000Y-88897012D01*
X136169666Y-88912594D01*
X135787819Y-89167735D01*
X135532678Y-89549582D01*
X135443084Y-90000000D01*
X120139385Y-90000000D01*
X120139385Y-89245000D01*
X120113097Y-89105292D01*
X120030530Y-88976980D01*
X119904547Y-88890899D01*
X119755000Y-88860615D01*
X119752000Y-88860615D01*
X119752000Y-83311488D01*
X121811488Y-81252000D01*
X160188512Y-81252000D01*
X162248000Y-83311488D01*
X162248000Y-88860615D01*
X162245000Y-88860615D01*
X162105292Y-88886903D01*
X161976980Y-88969470D01*
X161890899Y-89095453D01*
X161860615Y-89245000D01*
X161860615Y-89248000D01*
X145885812Y-89248000D01*
X145832181Y-89167735D01*
X145450334Y-88912594D01*
X144999916Y-88823000D01*
X144240084Y-88823000D01*
X143789666Y-88912594D01*
X143407819Y-89167735D01*
X143152678Y-89549582D01*
X143063084Y-90000000D01*
X143152678Y-90450418D01*
X143407819Y-90832265D01*
X143789666Y-91087406D01*
X144240084Y-91177000D01*
X144999916Y-91177000D01*
X145450334Y-91087406D01*
X145832181Y-90832265D01*
X145885812Y-90752000D01*
X161860615Y-90752000D01*
X161860615Y-90755000D01*
X161886903Y-90894708D01*
X161969470Y-91023020D01*
X162095453Y-91109101D01*
X162245000Y-91139385D01*
X163755000Y-91139385D01*
X163894708Y-91113097D01*
X164023020Y-91030530D01*
X164109101Y-90904547D01*
X164139385Y-90755000D01*
X164139385Y-89245000D01*
X164113097Y-89105292D01*
X164030530Y-88976980D01*
X163904547Y-88890899D01*
X163755000Y-88860615D01*
X163752000Y-88860615D01*
X163752000Y-83000000D01*
X163694757Y-82712222D01*
X163531744Y-82468256D01*
X161031744Y-79968256D01*
X160787778Y-79805243D01*
X160500000Y-79748000D01*
X121500000Y-79748000D01*
X121212222Y-79805243D01*
X120968256Y-79968256D01*
X118468256Y-82468256D01*
X118305243Y-82712222D01*
X118248000Y-83000000D01*
X118248000Y-88860615D01*
X118245000Y-88860615D01*
X118105292Y-88886903D01*
X117976980Y-88969470D01*
X117890899Y-89095453D01*
X117860615Y-89245000D01*
X117860615Y-89248000D01*
X79811489Y-89248000D01*
X77252000Y-86688512D01*
X77252000Y-55262798D01*
X81132771Y-55262798D01*
X81334369Y-55750703D01*
X81707334Y-56124319D01*
X82194885Y-56326769D01*
X82722798Y-56327229D01*
X83210703Y-56125631D01*
X83584319Y-55752666D01*
X83730109Y-55401567D01*
X83874369Y-55750703D01*
X84247334Y-56124319D01*
X84275015Y-56135813D01*
X84305243Y-56287778D01*
X84468256Y-56531744D01*
X85468256Y-57531745D01*
X85614503Y-57629464D01*
X85712222Y-57694757D01*
X86000000Y-57752000D01*
X89688512Y-57752000D01*
X89748000Y-57811488D01*
X89748000Y-59500000D01*
X89805243Y-59787778D01*
X89968256Y-60031744D01*
X92968256Y-63031745D01*
X93109089Y-63125846D01*
X93212222Y-63194757D01*
X93500000Y-63252000D01*
X93688512Y-63252000D01*
X94248000Y-63811489D01*
X94248000Y-69616125D01*
X94000510Y-69616125D01*
X93860802Y-69642413D01*
X93732490Y-69724980D01*
X93646409Y-69850963D01*
X93616125Y-70000510D01*
X93616125Y-71999490D01*
X93642413Y-72139198D01*
X93724980Y-72267510D01*
X93850963Y-72353591D01*
X94000510Y-72383875D01*
X94248000Y-72383875D01*
X94248000Y-76000000D01*
X94305243Y-76287778D01*
X94468256Y-76531744D01*
X96468256Y-78531744D01*
X96712222Y-78694757D01*
X97000000Y-78752000D01*
X187500000Y-78752000D01*
X187787778Y-78694757D01*
X188031744Y-78531744D01*
X190531744Y-76031744D01*
X190694757Y-75787778D01*
X190752000Y-75500000D01*
X190752000Y-71500000D01*
X190694757Y-71212222D01*
X190552955Y-71000000D01*
X190531745Y-70968256D01*
X187531744Y-67968256D01*
X187287778Y-67805243D01*
X187000000Y-67748000D01*
X184500000Y-67748000D01*
X184212222Y-67805243D01*
X183968256Y-67968256D01*
X183468256Y-68468256D01*
X183305243Y-68712222D01*
X183248000Y-69000000D01*
X183248000Y-69616125D01*
X183000510Y-69616125D01*
X182860802Y-69642413D01*
X182732490Y-69724980D01*
X182646409Y-69850963D01*
X182616125Y-70000510D01*
X182616125Y-71999490D01*
X182642413Y-72139198D01*
X182724980Y-72267510D01*
X182850963Y-72353591D01*
X183000510Y-72383875D01*
X184999490Y-72383875D01*
X185139198Y-72357587D01*
X185267510Y-72275020D01*
X185353591Y-72149037D01*
X185383875Y-71999490D01*
X185383875Y-71740105D01*
X185539708Y-71973325D01*
X185986273Y-72271711D01*
X186513033Y-72376490D01*
X186566967Y-72376490D01*
X187093727Y-72271711D01*
X187540292Y-71973325D01*
X187688177Y-71752000D01*
X187688512Y-71752000D01*
X188248000Y-72311489D01*
X188248000Y-74845006D01*
X186845006Y-76248000D01*
X100311489Y-76248000D01*
X98292000Y-74228512D01*
X98292000Y-72139229D01*
X98540292Y-71973325D01*
X98838678Y-71526760D01*
X98943457Y-71000000D01*
X98838678Y-70473240D01*
X98540292Y-70026675D01*
X98292000Y-69860771D01*
X98292000Y-67771488D01*
X98531744Y-67531744D01*
X98694757Y-67287778D01*
X98752000Y-67000000D01*
X98752000Y-63712390D01*
X98997230Y-63467588D01*
X99176795Y-63035147D01*
X99177204Y-62566907D01*
X98998394Y-62134154D01*
X98667588Y-61802770D01*
X98661437Y-61800216D01*
X98665846Y-61798394D01*
X98997230Y-61467588D01*
X99176795Y-61035147D01*
X99177204Y-60566907D01*
X98998394Y-60134154D01*
X98667588Y-59802770D01*
X98235147Y-59623205D01*
X97766907Y-59622796D01*
X97334154Y-59801606D01*
X97087329Y-60048000D01*
X94111489Y-60048000D01*
X92752000Y-58688512D01*
X92752000Y-57000000D01*
X92694757Y-56712222D01*
X92531744Y-56468256D01*
X90531744Y-54468256D01*
X90287778Y-54305243D01*
X90000000Y-54248000D01*
X88664336Y-54248000D01*
X88292666Y-53875681D01*
X87805115Y-53673231D01*
X87277202Y-53672771D01*
X86789297Y-53874369D01*
X86415681Y-54247334D01*
X86269891Y-54598433D01*
X86125631Y-54249297D01*
X85752666Y-53875681D01*
X85265115Y-53673231D01*
X84737202Y-53672771D01*
X84249297Y-53874369D01*
X83875681Y-54247334D01*
X83729891Y-54598433D01*
X83585631Y-54249297D01*
X83212666Y-53875681D01*
X82725115Y-53673231D01*
X82197202Y-53672771D01*
X81709297Y-53874369D01*
X81335681Y-54247334D01*
X81133231Y-54734885D01*
X81132771Y-55262798D01*
X77252000Y-55262798D01*
X77252000Y-54811488D01*
X79311488Y-52752000D01*
X90688512Y-52752000D01*
X94248000Y-56311488D01*
X94248000Y-58000000D01*
X94305243Y-58287778D01*
X94468256Y-58531744D01*
X94712222Y-58694757D01*
X95000000Y-58752000D01*
X97087610Y-58752000D01*
X97332412Y-58997230D01*
X97764853Y-59176795D01*
X98233093Y-59177204D01*
X98665846Y-58998394D01*
X98912671Y-58752000D01*
X109688512Y-58752000D01*
X114628256Y-63691744D01*
X114872222Y-63854757D01*
X115160000Y-63912000D01*
X125821356Y-63912000D01*
X125832388Y-63938700D01*
X126219263Y-64326251D01*
X126248000Y-64338184D01*
X126248000Y-72500000D01*
X126305243Y-72787778D01*
X126468256Y-73031744D01*
X128968256Y-75531744D01*
X129212222Y-75694757D01*
X129500000Y-75752000D01*
X147500000Y-75752000D01*
X147787778Y-75694757D01*
X148031744Y-75531744D01*
X150531744Y-73031744D01*
X150694757Y-72787778D01*
X150752000Y-72500000D01*
X150752000Y-52383875D01*
X150999490Y-52383875D01*
X151139198Y-52357587D01*
X151267510Y-52275020D01*
X151353591Y-52149037D01*
X151383875Y-51999490D01*
X151383875Y-50000510D01*
X151357587Y-49860802D01*
X151275020Y-49732490D01*
X151149037Y-49646409D01*
X150999490Y-49616125D01*
X149000510Y-49616125D01*
X148860802Y-49642413D01*
X148732490Y-49724980D01*
X148646409Y-49850963D01*
X148616125Y-50000510D01*
X148616125Y-50259895D01*
X148460292Y-50026675D01*
X148212000Y-49860771D01*
X148212000Y-48851488D01*
X149311488Y-47752000D01*
X190688512Y-47752000D01*
X192248000Y-49311488D01*
X192248000Y-95688512D01*
X190688512Y-97248000D01*
X155178644Y-97248000D01*
X155167612Y-97221300D01*
X154780737Y-96833749D01*
X154275002Y-96623749D01*
X153727400Y-96623272D01*
X153221300Y-96832388D01*
X153185626Y-96868000D01*
X145885812Y-96868000D01*
X145832181Y-96787735D01*
X145450334Y-96532594D01*
X144999916Y-96443000D01*
X144240084Y-96443000D01*
X143789666Y-96532594D01*
X143407819Y-96787735D01*
X143152678Y-97169582D01*
X143063084Y-97620000D01*
X143152678Y-98070418D01*
X143407819Y-98452265D01*
X143789666Y-98707406D01*
X144240084Y-98797000D01*
X144999916Y-98797000D01*
X145450334Y-98707406D01*
X145832181Y-98452265D01*
X145885812Y-98372000D01*
X152664343Y-98372000D01*
X152832388Y-98778700D01*
X153219263Y-99166251D01*
X153724998Y-99376251D01*
X154272600Y-99376728D01*
X154778700Y-99167612D01*
X155166251Y-98780737D01*
X155178184Y-98752000D01*
X191000000Y-98752000D01*
X191287778Y-98694757D01*
X191531744Y-98531744D01*
X193531744Y-96531744D01*
X193694757Y-96287778D01*
X193700879Y-96257000D01*
X193752000Y-96000000D01*
X193752000Y-49000000D01*
X193694757Y-48712222D01*
X193531744Y-48468256D01*
X191531744Y-46468256D01*
X191287778Y-46305243D01*
X191000000Y-46248000D01*
X149000000Y-46248000D01*
X148712222Y-46305243D01*
X148468256Y-46468256D01*
X146928256Y-48008256D01*
X146765243Y-48252222D01*
X146708000Y-48540000D01*
X146708000Y-49860771D01*
X146459708Y-50026675D01*
X146161322Y-50473240D01*
X146056543Y-51000000D01*
X146161322Y-51526760D01*
X146459708Y-51973325D01*
X146906273Y-52271711D01*
X147433033Y-52376490D01*
X147486967Y-52376490D01*
X148013727Y-52271711D01*
X148460292Y-51973325D01*
X148616125Y-51740105D01*
X148616125Y-51999490D01*
X148642413Y-52139198D01*
X148724980Y-52267510D01*
X148850963Y-52353591D01*
X149000510Y-52383875D01*
X149248000Y-52383875D01*
X149248000Y-72188512D01*
X147188512Y-74248000D01*
X137584146Y-74248000D01*
X137778700Y-74167612D01*
X138166251Y-73780737D01*
X138376251Y-73275002D01*
X138376728Y-72727400D01*
X138167612Y-72221300D01*
X137780737Y-71833749D01*
X137752000Y-71821816D01*
X137752000Y-63372390D01*
X137997230Y-63127588D01*
X138176795Y-62695147D01*
X138177204Y-62226907D01*
X137998394Y-61794154D01*
X137667588Y-61462770D01*
X137235147Y-61283205D01*
X136766907Y-61282796D01*
X136334154Y-61461606D01*
X136002770Y-61792412D01*
X135823205Y-62224853D01*
X135822796Y-62693093D01*
X136001606Y-63125846D01*
X136248000Y-63372671D01*
X136248000Y-71821356D01*
X136221300Y-71832388D01*
X135833749Y-72219263D01*
X135623749Y-72724998D01*
X135623272Y-73272600D01*
X135832388Y-73778700D01*
X136219263Y-74166251D01*
X136416136Y-74248000D01*
X129811488Y-74248000D01*
X127752000Y-72188512D01*
X127752000Y-66160727D01*
X133864958Y-66160727D01*
X133956374Y-66373703D01*
X134520403Y-66461865D01*
X134963626Y-66373703D01*
X135055042Y-66160727D01*
X134460000Y-65565685D01*
X133864958Y-66160727D01*
X127752000Y-66160727D01*
X127752000Y-65060403D01*
X132998135Y-65060403D01*
X133086297Y-65503626D01*
X133299273Y-65595042D01*
X133894315Y-65000000D01*
X135025685Y-65000000D01*
X135620727Y-65595042D01*
X135833703Y-65503626D01*
X135921865Y-64939597D01*
X135833703Y-64496374D01*
X135620727Y-64404958D01*
X135025685Y-65000000D01*
X133894315Y-65000000D01*
X133299273Y-64404958D01*
X133086297Y-64496374D01*
X132998135Y-65060403D01*
X127752000Y-65060403D01*
X127752000Y-64338644D01*
X127778700Y-64327612D01*
X128166251Y-63940737D01*
X128208382Y-63839273D01*
X133864958Y-63839273D01*
X134460000Y-64434315D01*
X135055042Y-63839273D01*
X134963626Y-63626297D01*
X134399597Y-63538135D01*
X133956374Y-63626297D01*
X133864958Y-63839273D01*
X128208382Y-63839273D01*
X128376251Y-63435002D01*
X128376728Y-62887400D01*
X128167612Y-62381300D01*
X127780737Y-61993749D01*
X127275002Y-61783749D01*
X126727400Y-61783272D01*
X126221300Y-61992388D01*
X125833749Y-62379263D01*
X125821816Y-62408000D01*
X115471488Y-62408000D01*
X110531744Y-57468256D01*
X110287778Y-57305243D01*
X110000000Y-57248000D01*
X98912390Y-57248000D01*
X98667588Y-57002770D01*
X98235147Y-56823205D01*
X97766907Y-56822796D01*
X97334154Y-57001606D01*
X97087329Y-57248000D01*
X95752000Y-57248000D01*
X95752000Y-56000000D01*
X95694757Y-55712222D01*
X95531744Y-55468256D01*
X95224215Y-55160727D01*
X97404958Y-55160727D01*
X97496374Y-55373703D01*
X98060403Y-55461865D01*
X98503626Y-55373703D01*
X98595042Y-55160727D01*
X98000000Y-54565685D01*
X97404958Y-55160727D01*
X95224215Y-55160727D01*
X94123891Y-54060403D01*
X96538135Y-54060403D01*
X96626297Y-54503626D01*
X96839273Y-54595042D01*
X97434315Y-54000000D01*
X98565685Y-54000000D01*
X99160727Y-54595042D01*
X99373703Y-54503626D01*
X99461865Y-53939597D01*
X99373703Y-53496374D01*
X99160727Y-53404958D01*
X98565685Y-54000000D01*
X97434315Y-54000000D01*
X96839273Y-53404958D01*
X96626297Y-53496374D01*
X96538135Y-54060403D01*
X94123891Y-54060403D01*
X92902761Y-52839273D01*
X97404958Y-52839273D01*
X98000000Y-53434315D01*
X98161715Y-53272600D01*
X125623272Y-53272600D01*
X125832388Y-53778700D01*
X126219263Y-54166251D01*
X126724998Y-54376251D01*
X127272600Y-54376728D01*
X127778700Y-54167612D01*
X128166251Y-53780737D01*
X128376251Y-53275002D01*
X128376728Y-52727400D01*
X128167612Y-52221300D01*
X128005042Y-52058446D01*
X128311489Y-51752000D01*
X135311823Y-51752000D01*
X135459708Y-51973325D01*
X135906273Y-52271711D01*
X136433033Y-52376490D01*
X136486967Y-52376490D01*
X137013727Y-52271711D01*
X137460292Y-51973325D01*
X137616125Y-51740105D01*
X137616125Y-51999490D01*
X137642413Y-52139198D01*
X137724980Y-52267510D01*
X137850963Y-52353591D01*
X138000510Y-52383875D01*
X138248000Y-52383875D01*
X138248000Y-57000000D01*
X138305243Y-57287778D01*
X138468256Y-57531744D01*
X138788000Y-57851489D01*
X138788000Y-64087610D01*
X138542770Y-64332412D01*
X138363205Y-64764853D01*
X138362796Y-65233093D01*
X138541606Y-65665846D01*
X138872412Y-65997230D01*
X139304853Y-66176795D01*
X139773093Y-66177204D01*
X140205846Y-65998394D01*
X140537230Y-65667588D01*
X140716795Y-65235147D01*
X140717204Y-64766907D01*
X140538394Y-64334154D01*
X140292000Y-64087329D01*
X140292000Y-57540000D01*
X140234757Y-57252222D01*
X140208030Y-57212222D01*
X140071744Y-57008255D01*
X139752000Y-56688512D01*
X139752000Y-52383875D01*
X139999490Y-52383875D01*
X140139198Y-52357587D01*
X140267510Y-52275020D01*
X140353591Y-52149037D01*
X140383875Y-51999490D01*
X140383875Y-50000510D01*
X140357587Y-49860802D01*
X140275020Y-49732490D01*
X140149037Y-49646409D01*
X139999490Y-49616125D01*
X138000510Y-49616125D01*
X137860802Y-49642413D01*
X137732490Y-49724980D01*
X137646409Y-49850963D01*
X137616125Y-50000510D01*
X137616125Y-50259895D01*
X137460292Y-50026675D01*
X137013727Y-49728289D01*
X136486967Y-49623510D01*
X136433033Y-49623510D01*
X135906273Y-49728289D01*
X135459708Y-50026675D01*
X135311823Y-50248000D01*
X128000000Y-50248000D01*
X127712222Y-50305243D01*
X127614503Y-50370536D01*
X127468256Y-50468255D01*
X126468256Y-51468256D01*
X126305243Y-51712222D01*
X126286717Y-51805358D01*
X126221300Y-51832388D01*
X125833749Y-52219263D01*
X125623749Y-52724998D01*
X125623272Y-53272600D01*
X98161715Y-53272600D01*
X98595042Y-52839273D01*
X98503626Y-52626297D01*
X97939597Y-52538135D01*
X97496374Y-52626297D01*
X97404958Y-52839273D01*
X92902761Y-52839273D01*
X91531744Y-51468256D01*
X91287778Y-51305243D01*
X91000000Y-51248000D01*
X79000000Y-51248000D01*
X78712222Y-51305243D01*
X78468256Y-51468256D01*
X75968256Y-53968256D01*
X75805243Y-54212222D01*
X75748000Y-54500000D01*
X69055600Y-54500000D01*
X69055600Y-45550900D01*
X218201600Y-45550900D01*
X218201600Y-85123900D01*
X218201600Y-85123900D01*
G37*
X218201600Y-85123900D02*
X218234103Y-85287306D01*
X218326665Y-85425835D01*
X218465194Y-85518397D01*
X218628600Y-85550900D01*
X243201600Y-85550900D01*
X243201600Y-104696900D01*
X218628600Y-104696900D01*
X218465194Y-104729403D01*
X218326665Y-104821965D01*
X218234103Y-104960494D01*
X218201600Y-105123900D01*
X218201600Y-144696900D01*
X69055600Y-144696900D01*
X69055600Y-105123900D01*
X69023097Y-104960494D01*
X68930535Y-104821965D01*
X68792006Y-104729403D01*
X68628600Y-104696900D01*
X44055600Y-104696900D01*
X44055600Y-85550900D01*
X68628600Y-85550900D01*
X68792006Y-85518397D01*
X68930535Y-85425835D01*
X69023097Y-85287306D01*
X69055600Y-85123900D01*
X69055600Y-54500000D01*
X75748000Y-54500000D01*
X75748000Y-87000000D01*
X75805243Y-87287778D01*
X75968256Y-87531744D01*
X78968256Y-90531745D01*
X79114503Y-90629464D01*
X79212222Y-90694757D01*
X79500000Y-90752000D01*
X116184512Y-90752000D01*
X115468256Y-91468256D01*
X115305243Y-91712222D01*
X115248000Y-92000000D01*
X115248000Y-135000000D01*
X115305243Y-135287778D01*
X115468256Y-135531744D01*
X119468256Y-139531744D01*
X119712222Y-139694757D01*
X120000000Y-139752000D01*
X134616125Y-139752000D01*
X134616125Y-139999490D01*
X134642413Y-140139198D01*
X134724980Y-140267510D01*
X134850963Y-140353591D01*
X135000510Y-140383875D01*
X135248000Y-140383875D01*
X135248000Y-141000000D01*
X135305243Y-141287778D01*
X135468256Y-141531744D01*
X136468256Y-142531745D01*
X136614503Y-142629464D01*
X136712222Y-142694757D01*
X137000000Y-142752000D01*
X141000000Y-142752000D01*
X141287778Y-142694757D01*
X141531744Y-142531744D01*
X142531745Y-141531744D01*
X142683087Y-141305243D01*
X142694757Y-141287778D01*
X142752000Y-141000000D01*
X142752000Y-139000000D01*
X142694757Y-138712222D01*
X142629464Y-138614503D01*
X142531745Y-138468256D01*
X141752000Y-137688512D01*
X141752000Y-136000000D01*
X141694757Y-135712222D01*
X141531744Y-135468256D01*
X138592000Y-132528512D01*
X138592000Y-132178644D01*
X138618700Y-132167612D01*
X139006251Y-131780737D01*
X139216251Y-131275002D01*
X139216728Y-130727400D01*
X139007612Y-130221300D01*
X138620737Y-129833749D01*
X138115002Y-129623749D01*
X137567400Y-129623272D01*
X137061300Y-129832388D01*
X136673749Y-130219263D01*
X136463749Y-130724998D01*
X136463272Y-131272600D01*
X136672388Y-131778700D01*
X137059263Y-132166251D01*
X137088000Y-132178184D01*
X137088000Y-132840000D01*
X137145243Y-133127778D01*
X137308256Y-133371744D01*
X140248000Y-136311488D01*
X140248000Y-138000000D01*
X140305243Y-138287778D01*
X140468256Y-138531744D01*
X141248000Y-139311489D01*
X141248000Y-140688511D01*
X140688512Y-141248000D01*
X137311489Y-141248000D01*
X136752000Y-140688512D01*
X136752000Y-140383875D01*
X136999490Y-140383875D01*
X137139198Y-140357587D01*
X137267510Y-140275020D01*
X137353591Y-140149037D01*
X137383875Y-139999490D01*
X137383875Y-139740105D01*
X137539708Y-139973325D01*
X137986273Y-140271711D01*
X138513033Y-140376490D01*
X138566967Y-140376490D01*
X139093727Y-140271711D01*
X139540292Y-139973325D01*
X139838678Y-139526760D01*
X139943457Y-139000000D01*
X139838678Y-138473240D01*
X139540292Y-138026675D01*
X139292000Y-137860771D01*
X139292000Y-137540000D01*
X139234757Y-137252222D01*
X139071744Y-137008256D01*
X137531744Y-135468256D01*
X137287778Y-135305243D01*
X137000000Y-135248000D01*
X120311488Y-135248000D01*
X118752000Y-133688512D01*
X118752000Y-123160727D01*
X137864958Y-123160727D01*
X137956374Y-123373703D01*
X138520403Y-123461865D01*
X138963626Y-123373703D01*
X139055042Y-123160727D01*
X138460000Y-122565685D01*
X137864958Y-123160727D01*
X118752000Y-123160727D01*
X118752000Y-122060403D01*
X136998135Y-122060403D01*
X137086297Y-122503626D01*
X137299273Y-122595042D01*
X137894315Y-122000000D01*
X139025685Y-122000000D01*
X139620727Y-122595042D01*
X139833703Y-122503626D01*
X139875989Y-122233093D01*
X142362796Y-122233093D01*
X142541606Y-122665846D01*
X142788000Y-122912671D01*
X142788000Y-137540000D01*
X142845243Y-137827778D01*
X143008256Y-138071744D01*
X144468256Y-139531744D01*
X144712222Y-139694757D01*
X145000000Y-139752000D01*
X146616125Y-139752000D01*
X146616125Y-139999490D01*
X146642413Y-140139198D01*
X146724980Y-140267510D01*
X146850963Y-140353591D01*
X147000510Y-140383875D01*
X148999490Y-140383875D01*
X149139198Y-140357587D01*
X149267510Y-140275020D01*
X149353591Y-140149037D01*
X149383875Y-139999490D01*
X149383875Y-139740105D01*
X149539708Y-139973325D01*
X149986273Y-140271711D01*
X150513033Y-140376490D01*
X150566967Y-140376490D01*
X151093727Y-140271711D01*
X151540292Y-139973325D01*
X151838678Y-139526760D01*
X151943457Y-139000000D01*
X151838678Y-138473240D01*
X151540292Y-138026675D01*
X151292000Y-137860771D01*
X151292000Y-131540000D01*
X151234757Y-131252222D01*
X151071744Y-131008255D01*
X150531744Y-130468256D01*
X150287778Y-130305243D01*
X150000000Y-130248000D01*
X149178644Y-130248000D01*
X149167612Y-130221300D01*
X148780737Y-129833749D01*
X148275002Y-129623749D01*
X147727400Y-129623272D01*
X147221300Y-129832388D01*
X146833749Y-130219263D01*
X146623749Y-130724998D01*
X146623272Y-131272600D01*
X146832388Y-131778700D01*
X147219263Y-132166251D01*
X147724998Y-132376251D01*
X148272600Y-132376728D01*
X148778700Y-132167612D01*
X149166251Y-131780737D01*
X149178184Y-131752000D01*
X149688512Y-131752000D01*
X149788000Y-131851489D01*
X149788000Y-137860771D01*
X149539708Y-138026675D01*
X149383875Y-138259895D01*
X149383875Y-138000510D01*
X149357587Y-137860802D01*
X149275020Y-137732490D01*
X149149037Y-137646409D01*
X148999490Y-137616125D01*
X147000510Y-137616125D01*
X146860802Y-137642413D01*
X146732490Y-137724980D01*
X146646409Y-137850963D01*
X146616125Y-138000510D01*
X146616125Y-138248000D01*
X145311488Y-138248000D01*
X144292000Y-137228512D01*
X144292000Y-122912390D01*
X144537230Y-122667588D01*
X144716795Y-122235147D01*
X144717204Y-121766907D01*
X144538394Y-121334154D01*
X144207588Y-121002770D01*
X143775147Y-120823205D01*
X143306907Y-120822796D01*
X142874154Y-121001606D01*
X142542770Y-121332412D01*
X142363205Y-121764853D01*
X142362796Y-122233093D01*
X139875989Y-122233093D01*
X139921865Y-121939597D01*
X139833703Y-121496374D01*
X139620727Y-121404958D01*
X139025685Y-122000000D01*
X137894315Y-122000000D01*
X137299273Y-121404958D01*
X137086297Y-121496374D01*
X136998135Y-122060403D01*
X118752000Y-122060403D01*
X118752000Y-120839273D01*
X137864958Y-120839273D01*
X138460000Y-121434315D01*
X139055042Y-120839273D01*
X138963626Y-120626297D01*
X138399597Y-120538135D01*
X137956374Y-120626297D01*
X137864958Y-120839273D01*
X118752000Y-120839273D01*
X118752000Y-114272600D01*
X139623272Y-114272600D01*
X139832388Y-114778700D01*
X140219263Y-115166251D01*
X140248000Y-115178184D01*
X140248000Y-118547610D01*
X140002770Y-118792412D01*
X139823205Y-119224853D01*
X139822796Y-119693093D01*
X140001606Y-120125846D01*
X140332412Y-120457230D01*
X140764853Y-120636795D01*
X141233093Y-120637204D01*
X141665846Y-120458394D01*
X141997230Y-120127588D01*
X142176795Y-119695147D01*
X142177204Y-119226907D01*
X141998394Y-118794154D01*
X141752000Y-118547329D01*
X141752000Y-115178644D01*
X141778700Y-115167612D01*
X142166251Y-114780737D01*
X142376251Y-114275002D01*
X142376728Y-113727400D01*
X142167612Y-113221300D01*
X141780737Y-112833749D01*
X141275002Y-112623749D01*
X140727400Y-112623272D01*
X140221300Y-112832388D01*
X139833749Y-113219263D01*
X139623749Y-113724998D01*
X139623272Y-114272600D01*
X118752000Y-114272600D01*
X118752000Y-109519256D01*
X153347490Y-109519256D01*
X153469831Y-109739931D01*
X154114801Y-109822553D01*
X154530169Y-109739931D01*
X154652510Y-109519256D01*
X154000000Y-108866746D01*
X153347490Y-109519256D01*
X118752000Y-109519256D01*
X118752000Y-108274801D01*
X152337447Y-108274801D01*
X152420069Y-108690169D01*
X152640744Y-108812510D01*
X153293254Y-108160000D01*
X154706746Y-108160000D01*
X155359256Y-108812510D01*
X155579931Y-108690169D01*
X155662553Y-108045199D01*
X155579931Y-107629831D01*
X155359256Y-107507490D01*
X154706746Y-108160000D01*
X153293254Y-108160000D01*
X152640744Y-107507490D01*
X152420069Y-107629831D01*
X152337447Y-108274801D01*
X118752000Y-108274801D01*
X118752000Y-106519256D01*
X128347490Y-106519256D01*
X128469831Y-106739931D01*
X129114801Y-106822553D01*
X129224442Y-106800744D01*
X153347490Y-106800744D01*
X154000000Y-107453254D01*
X154652510Y-106800744D01*
X154530169Y-106580069D01*
X153885199Y-106497447D01*
X153469831Y-106580069D01*
X153347490Y-106800744D01*
X129224442Y-106800744D01*
X129530169Y-106739931D01*
X129652510Y-106519256D01*
X129000000Y-105866746D01*
X128347490Y-106519256D01*
X118752000Y-106519256D01*
X118752000Y-105274801D01*
X127337447Y-105274801D01*
X127420069Y-105690169D01*
X127640744Y-105812510D01*
X128293254Y-105160000D01*
X129706746Y-105160000D01*
X130359256Y-105812510D01*
X130579931Y-105690169D01*
X130662553Y-105045199D01*
X130579931Y-104629831D01*
X130359256Y-104507490D01*
X129706746Y-105160000D01*
X128293254Y-105160000D01*
X127640744Y-104507490D01*
X127420069Y-104629831D01*
X127337447Y-105274801D01*
X118752000Y-105274801D01*
X118752000Y-103800744D01*
X128347490Y-103800744D01*
X129000000Y-104453254D01*
X129340654Y-104112600D01*
X139623272Y-104112600D01*
X139832388Y-104618700D01*
X140219263Y-105006251D01*
X140724998Y-105216251D01*
X141272600Y-105216728D01*
X141778700Y-105007612D01*
X142166251Y-104620737D01*
X142376251Y-104115002D01*
X142376728Y-103567400D01*
X142167612Y-103061300D01*
X141780737Y-102673749D01*
X141752000Y-102661816D01*
X141752000Y-95080000D01*
X143063084Y-95080000D01*
X143152678Y-95530418D01*
X143407819Y-95912265D01*
X143789666Y-96167406D01*
X144240084Y-96257000D01*
X144999916Y-96257000D01*
X145307412Y-96195835D01*
X162418031Y-96195835D01*
X162502471Y-96407032D01*
X163048176Y-96496413D01*
X163497529Y-96407032D01*
X163581969Y-96195835D01*
X163000000Y-95613866D01*
X162418031Y-96195835D01*
X145307412Y-96195835D01*
X145450334Y-96167406D01*
X145832181Y-95912265D01*
X145885812Y-95832000D01*
X152920000Y-95832000D01*
X153207778Y-95774757D01*
X153451744Y-95611744D01*
X153935312Y-95128176D01*
X161583587Y-95128176D01*
X161672968Y-95577529D01*
X161884165Y-95661969D01*
X162466134Y-95080000D01*
X163533866Y-95080000D01*
X164115835Y-95661969D01*
X164327032Y-95577529D01*
X164416413Y-95031824D01*
X164327032Y-94582471D01*
X164115835Y-94498031D01*
X163533866Y-95080000D01*
X162466134Y-95080000D01*
X161884165Y-94498031D01*
X161672968Y-94582471D01*
X161583587Y-95128176D01*
X153935312Y-95128176D01*
X155771489Y-93292000D01*
X162151194Y-93292000D01*
X162357936Y-93499103D01*
X162773843Y-93671803D01*
X162909922Y-93671922D01*
X162502471Y-93752968D01*
X162418031Y-93964165D01*
X163000000Y-94546134D01*
X163581969Y-93964165D01*
X163497529Y-93752968D01*
X163003208Y-93672003D01*
X163224181Y-93672196D01*
X163640389Y-93500222D01*
X163959103Y-93182064D01*
X164131803Y-92766157D01*
X164132196Y-92315819D01*
X163960222Y-91899611D01*
X163642064Y-91580897D01*
X163226157Y-91408197D01*
X162775819Y-91407804D01*
X162359611Y-91579778D01*
X162151025Y-91788000D01*
X155460000Y-91788000D01*
X155172222Y-91845243D01*
X154928255Y-92008256D01*
X152608512Y-94328000D01*
X145885812Y-94328000D01*
X145832181Y-94247735D01*
X145450334Y-93992594D01*
X144999916Y-93903000D01*
X144240084Y-93903000D01*
X143789666Y-93992594D01*
X143407819Y-94247735D01*
X143152678Y-94629582D01*
X143063084Y-95080000D01*
X141752000Y-95080000D01*
X141752000Y-94311488D01*
X142771488Y-93292000D01*
X143354188Y-93292000D01*
X143407819Y-93372265D01*
X143789666Y-93627406D01*
X144240084Y-93717000D01*
X144999916Y-93717000D01*
X145450334Y-93627406D01*
X145832181Y-93372265D01*
X146087322Y-92990418D01*
X146176916Y-92540000D01*
X146087322Y-92089582D01*
X145832181Y-91707735D01*
X145450334Y-91452594D01*
X144999916Y-91363000D01*
X144240084Y-91363000D01*
X143789666Y-91452594D01*
X143407819Y-91707735D01*
X143354188Y-91788000D01*
X142460000Y-91788000D01*
X142172222Y-91845243D01*
X142090855Y-91899611D01*
X141928256Y-92008256D01*
X140468256Y-93468256D01*
X140305243Y-93712222D01*
X140248000Y-94000000D01*
X140248000Y-102661356D01*
X140221300Y-102672388D01*
X139833749Y-103059263D01*
X139623749Y-103564998D01*
X139623272Y-104112600D01*
X129340654Y-104112600D01*
X129652510Y-103800744D01*
X129530169Y-103580069D01*
X128885199Y-103497447D01*
X128469831Y-103580069D01*
X128347490Y-103800744D01*
X118752000Y-103800744D01*
X118752000Y-101311488D01*
X121832827Y-98230661D01*
X135351417Y-98230661D01*
X135393854Y-98254527D01*
X135732296Y-98686933D01*
X136210450Y-98956908D01*
X136425000Y-98850459D01*
X136425000Y-98020000D01*
X137575000Y-98020000D01*
X137575000Y-98850459D01*
X137789550Y-98956908D01*
X138267704Y-98686933D01*
X138606146Y-98254527D01*
X138648583Y-98230661D01*
X138561946Y-98020000D01*
X137575000Y-98020000D01*
X136425000Y-98020000D01*
X135438054Y-98020000D01*
X135351417Y-98230661D01*
X121832827Y-98230661D01*
X124311489Y-95752000D01*
X127821356Y-95752000D01*
X127832388Y-95778700D01*
X128219263Y-96166251D01*
X128724998Y-96376251D01*
X129272600Y-96376728D01*
X129778700Y-96167612D01*
X130114898Y-95832000D01*
X135734188Y-95832000D01*
X135787819Y-95912265D01*
X136169666Y-96167406D01*
X136258117Y-96185000D01*
X135626998Y-96185000D01*
X135626998Y-96687600D01*
X135393854Y-96985473D01*
X135351417Y-97009339D01*
X135438054Y-97220000D01*
X136425000Y-97220000D01*
X136425000Y-96820000D01*
X137575000Y-96820000D01*
X137575000Y-97220000D01*
X138561946Y-97220000D01*
X138648583Y-97009339D01*
X138606146Y-96985473D01*
X138373002Y-96687600D01*
X138373002Y-96185000D01*
X137741883Y-96185000D01*
X137830334Y-96167406D01*
X138212181Y-95912265D01*
X138467322Y-95530418D01*
X138556916Y-95080000D01*
X138467322Y-94629582D01*
X138212181Y-94247735D01*
X137830334Y-93992594D01*
X137379916Y-93903000D01*
X136620084Y-93903000D01*
X136169666Y-93992594D01*
X135787819Y-94247735D01*
X135734188Y-94328000D01*
X130211699Y-94328000D01*
X130167612Y-94221300D01*
X129780737Y-93833749D01*
X129275002Y-93623749D01*
X128727400Y-93623272D01*
X128221300Y-93832388D01*
X127833749Y-94219263D01*
X127821816Y-94248000D01*
X124000000Y-94248000D01*
X123712222Y-94305243D01*
X123468255Y-94468256D01*
X117468256Y-100468256D01*
X117305243Y-100712222D01*
X117248000Y-101000000D01*
X117248000Y-134000000D01*
X117305243Y-134287778D01*
X117468256Y-134531744D01*
X119468256Y-136531744D01*
X119712222Y-136694757D01*
X120000000Y-136752000D01*
X136688512Y-136752000D01*
X137788000Y-137851488D01*
X137788000Y-137860771D01*
X137539708Y-138026675D01*
X137383875Y-138259895D01*
X137383875Y-138000510D01*
X137357587Y-137860802D01*
X137275020Y-137732490D01*
X137149037Y-137646409D01*
X136999490Y-137616125D01*
X135000510Y-137616125D01*
X134860802Y-137642413D01*
X134732490Y-137724980D01*
X134646409Y-137850963D01*
X134616125Y-138000510D01*
X134616125Y-138248000D01*
X120311488Y-138248000D01*
X116752000Y-134688512D01*
X116752000Y-96195835D01*
X118418031Y-96195835D01*
X118502471Y-96407032D01*
X119048176Y-96496413D01*
X119497529Y-96407032D01*
X119581969Y-96195835D01*
X119000000Y-95613866D01*
X118418031Y-96195835D01*
X116752000Y-96195835D01*
X116752000Y-95128176D01*
X117583587Y-95128176D01*
X117672968Y-95577529D01*
X117884165Y-95661969D01*
X118466134Y-95080000D01*
X119533866Y-95080000D01*
X120115835Y-95661969D01*
X120327032Y-95577529D01*
X120416413Y-95031824D01*
X120327032Y-94582471D01*
X120115835Y-94498031D01*
X119533866Y-95080000D01*
X118466134Y-95080000D01*
X117884165Y-94498031D01*
X117672968Y-94582471D01*
X117583587Y-95128176D01*
X116752000Y-95128176D01*
X116752000Y-92764181D01*
X117867804Y-92764181D01*
X118039778Y-93180389D01*
X118357936Y-93499103D01*
X118773843Y-93671803D01*
X118909922Y-93671922D01*
X118502471Y-93752968D01*
X118418031Y-93964165D01*
X119000000Y-94546134D01*
X119581969Y-93964165D01*
X119497529Y-93752968D01*
X119003208Y-93672003D01*
X119224181Y-93672196D01*
X119640389Y-93500222D01*
X119848975Y-93292000D01*
X135734188Y-93292000D01*
X135787819Y-93372265D01*
X136169666Y-93627406D01*
X136620084Y-93717000D01*
X137379916Y-93717000D01*
X137830334Y-93627406D01*
X138212181Y-93372265D01*
X138467322Y-92990418D01*
X138556916Y-92540000D01*
X138467322Y-92089582D01*
X138212181Y-91707735D01*
X137830334Y-91452594D01*
X137379916Y-91363000D01*
X136620084Y-91363000D01*
X136169666Y-91452594D01*
X135787819Y-91707735D01*
X135734188Y-91788000D01*
X119848806Y-91788000D01*
X119642064Y-91580897D01*
X119226157Y-91408197D01*
X118775819Y-91407804D01*
X118359611Y-91579778D01*
X118040897Y-91897936D01*
X117868197Y-92313843D01*
X117867804Y-92764181D01*
X116752000Y-92764181D01*
X116752000Y-92311488D01*
X118011648Y-91051840D01*
X118095453Y-91109101D01*
X118245000Y-91139385D01*
X119755000Y-91139385D01*
X119894708Y-91113097D01*
X120023020Y-91030530D01*
X120109101Y-90904547D01*
X120139385Y-90755000D01*
X120139385Y-90000000D01*
X135443084Y-90000000D01*
X135532678Y-90450418D01*
X135787819Y-90832265D01*
X136169666Y-91087406D01*
X136620084Y-91177000D01*
X137379916Y-91177000D01*
X137830334Y-91087406D01*
X138212181Y-90832265D01*
X138467322Y-90450418D01*
X138556916Y-90000000D01*
X138467322Y-89549582D01*
X138212181Y-89167735D01*
X137830334Y-88912594D01*
X137752000Y-88897012D01*
X137752000Y-84338644D01*
X137778700Y-84327612D01*
X138166251Y-83940737D01*
X138376251Y-83435002D01*
X138376728Y-82887400D01*
X138167612Y-82381300D01*
X137780737Y-81993749D01*
X137275002Y-81783749D01*
X136727400Y-81783272D01*
X136221300Y-81992388D01*
X135833749Y-82379263D01*
X135623749Y-82884998D01*
X135623272Y-83432600D01*
X135832388Y-83938700D01*
X136219263Y-84326251D01*
X136248000Y-84338184D01*
X136248000Y-88897012D01*
X136169666Y-88912594D01*
X135787819Y-89167735D01*
X135532678Y-89549582D01*
X135443084Y-90000000D01*
X120139385Y-90000000D01*
X120139385Y-89245000D01*
X120113097Y-89105292D01*
X120030530Y-88976980D01*
X119904547Y-88890899D01*
X119755000Y-88860615D01*
X119752000Y-88860615D01*
X119752000Y-83311488D01*
X121811488Y-81252000D01*
X160188512Y-81252000D01*
X162248000Y-83311488D01*
X162248000Y-88860615D01*
X162245000Y-88860615D01*
X162105292Y-88886903D01*
X161976980Y-88969470D01*
X161890899Y-89095453D01*
X161860615Y-89245000D01*
X161860615Y-89248000D01*
X145885812Y-89248000D01*
X145832181Y-89167735D01*
X145450334Y-88912594D01*
X144999916Y-88823000D01*
X144240084Y-88823000D01*
X143789666Y-88912594D01*
X143407819Y-89167735D01*
X143152678Y-89549582D01*
X143063084Y-90000000D01*
X143152678Y-90450418D01*
X143407819Y-90832265D01*
X143789666Y-91087406D01*
X144240084Y-91177000D01*
X144999916Y-91177000D01*
X145450334Y-91087406D01*
X145832181Y-90832265D01*
X145885812Y-90752000D01*
X161860615Y-90752000D01*
X161860615Y-90755000D01*
X161886903Y-90894708D01*
X161969470Y-91023020D01*
X162095453Y-91109101D01*
X162245000Y-91139385D01*
X163755000Y-91139385D01*
X163894708Y-91113097D01*
X164023020Y-91030530D01*
X164109101Y-90904547D01*
X164139385Y-90755000D01*
X164139385Y-89245000D01*
X164113097Y-89105292D01*
X164030530Y-88976980D01*
X163904547Y-88890899D01*
X163755000Y-88860615D01*
X163752000Y-88860615D01*
X163752000Y-83000000D01*
X163694757Y-82712222D01*
X163531744Y-82468256D01*
X161031744Y-79968256D01*
X160787778Y-79805243D01*
X160500000Y-79748000D01*
X121500000Y-79748000D01*
X121212222Y-79805243D01*
X120968256Y-79968256D01*
X118468256Y-82468256D01*
X118305243Y-82712222D01*
X118248000Y-83000000D01*
X118248000Y-88860615D01*
X118245000Y-88860615D01*
X118105292Y-88886903D01*
X117976980Y-88969470D01*
X117890899Y-89095453D01*
X117860615Y-89245000D01*
X117860615Y-89248000D01*
X79811489Y-89248000D01*
X77252000Y-86688512D01*
X77252000Y-55262798D01*
X81132771Y-55262798D01*
X81334369Y-55750703D01*
X81707334Y-56124319D01*
X82194885Y-56326769D01*
X82722798Y-56327229D01*
X83210703Y-56125631D01*
X83584319Y-55752666D01*
X83730109Y-55401567D01*
X83874369Y-55750703D01*
X84247334Y-56124319D01*
X84275015Y-56135813D01*
X84305243Y-56287778D01*
X84468256Y-56531744D01*
X85468256Y-57531745D01*
X85614503Y-57629464D01*
X85712222Y-57694757D01*
X86000000Y-57752000D01*
X89688512Y-57752000D01*
X89748000Y-57811488D01*
X89748000Y-59500000D01*
X89805243Y-59787778D01*
X89968256Y-60031744D01*
X92968256Y-63031745D01*
X93109089Y-63125846D01*
X93212222Y-63194757D01*
X93500000Y-63252000D01*
X93688512Y-63252000D01*
X94248000Y-63811489D01*
X94248000Y-69616125D01*
X94000510Y-69616125D01*
X93860802Y-69642413D01*
X93732490Y-69724980D01*
X93646409Y-69850963D01*
X93616125Y-70000510D01*
X93616125Y-71999490D01*
X93642413Y-72139198D01*
X93724980Y-72267510D01*
X93850963Y-72353591D01*
X94000510Y-72383875D01*
X94248000Y-72383875D01*
X94248000Y-76000000D01*
X94305243Y-76287778D01*
X94468256Y-76531744D01*
X96468256Y-78531744D01*
X96712222Y-78694757D01*
X97000000Y-78752000D01*
X187500000Y-78752000D01*
X187787778Y-78694757D01*
X188031744Y-78531744D01*
X190531744Y-76031744D01*
X190694757Y-75787778D01*
X190752000Y-75500000D01*
X190752000Y-71500000D01*
X190694757Y-71212222D01*
X190552955Y-71000000D01*
X190531745Y-70968256D01*
X187531744Y-67968256D01*
X187287778Y-67805243D01*
X187000000Y-67748000D01*
X184500000Y-67748000D01*
X184212222Y-67805243D01*
X183968256Y-67968256D01*
X183468256Y-68468256D01*
X183305243Y-68712222D01*
X183248000Y-69000000D01*
X183248000Y-69616125D01*
X183000510Y-69616125D01*
X182860802Y-69642413D01*
X182732490Y-69724980D01*
X182646409Y-69850963D01*
X182616125Y-70000510D01*
X182616125Y-71999490D01*
X182642413Y-72139198D01*
X182724980Y-72267510D01*
X182850963Y-72353591D01*
X183000510Y-72383875D01*
X184999490Y-72383875D01*
X185139198Y-72357587D01*
X185267510Y-72275020D01*
X185353591Y-72149037D01*
X185383875Y-71999490D01*
X185383875Y-71740105D01*
X185539708Y-71973325D01*
X185986273Y-72271711D01*
X186513033Y-72376490D01*
X186566967Y-72376490D01*
X187093727Y-72271711D01*
X187540292Y-71973325D01*
X187688177Y-71752000D01*
X187688512Y-71752000D01*
X188248000Y-72311489D01*
X188248000Y-74845006D01*
X186845006Y-76248000D01*
X100311489Y-76248000D01*
X98292000Y-74228512D01*
X98292000Y-72139229D01*
X98540292Y-71973325D01*
X98838678Y-71526760D01*
X98943457Y-71000000D01*
X98838678Y-70473240D01*
X98540292Y-70026675D01*
X98292000Y-69860771D01*
X98292000Y-67771488D01*
X98531744Y-67531744D01*
X98694757Y-67287778D01*
X98752000Y-67000000D01*
X98752000Y-63712390D01*
X98997230Y-63467588D01*
X99176795Y-63035147D01*
X99177204Y-62566907D01*
X98998394Y-62134154D01*
X98667588Y-61802770D01*
X98661437Y-61800216D01*
X98665846Y-61798394D01*
X98997230Y-61467588D01*
X99176795Y-61035147D01*
X99177204Y-60566907D01*
X98998394Y-60134154D01*
X98667588Y-59802770D01*
X98235147Y-59623205D01*
X97766907Y-59622796D01*
X97334154Y-59801606D01*
X97087329Y-60048000D01*
X94111489Y-60048000D01*
X92752000Y-58688512D01*
X92752000Y-57000000D01*
X92694757Y-56712222D01*
X92531744Y-56468256D01*
X90531744Y-54468256D01*
X90287778Y-54305243D01*
X90000000Y-54248000D01*
X88664336Y-54248000D01*
X88292666Y-53875681D01*
X87805115Y-53673231D01*
X87277202Y-53672771D01*
X86789297Y-53874369D01*
X86415681Y-54247334D01*
X86269891Y-54598433D01*
X86125631Y-54249297D01*
X85752666Y-53875681D01*
X85265115Y-53673231D01*
X84737202Y-53672771D01*
X84249297Y-53874369D01*
X83875681Y-54247334D01*
X83729891Y-54598433D01*
X83585631Y-54249297D01*
X83212666Y-53875681D01*
X82725115Y-53673231D01*
X82197202Y-53672771D01*
X81709297Y-53874369D01*
X81335681Y-54247334D01*
X81133231Y-54734885D01*
X81132771Y-55262798D01*
X77252000Y-55262798D01*
X77252000Y-54811488D01*
X79311488Y-52752000D01*
X90688512Y-52752000D01*
X94248000Y-56311488D01*
X94248000Y-58000000D01*
X94305243Y-58287778D01*
X94468256Y-58531744D01*
X94712222Y-58694757D01*
X95000000Y-58752000D01*
X97087610Y-58752000D01*
X97332412Y-58997230D01*
X97764853Y-59176795D01*
X98233093Y-59177204D01*
X98665846Y-58998394D01*
X98912671Y-58752000D01*
X109688512Y-58752000D01*
X114628256Y-63691744D01*
X114872222Y-63854757D01*
X115160000Y-63912000D01*
X125821356Y-63912000D01*
X125832388Y-63938700D01*
X126219263Y-64326251D01*
X126248000Y-64338184D01*
X126248000Y-72500000D01*
X126305243Y-72787778D01*
X126468256Y-73031744D01*
X128968256Y-75531744D01*
X129212222Y-75694757D01*
X129500000Y-75752000D01*
X147500000Y-75752000D01*
X147787778Y-75694757D01*
X148031744Y-75531744D01*
X150531744Y-73031744D01*
X150694757Y-72787778D01*
X150752000Y-72500000D01*
X150752000Y-52383875D01*
X150999490Y-52383875D01*
X151139198Y-52357587D01*
X151267510Y-52275020D01*
X151353591Y-52149037D01*
X151383875Y-51999490D01*
X151383875Y-50000510D01*
X151357587Y-49860802D01*
X151275020Y-49732490D01*
X151149037Y-49646409D01*
X150999490Y-49616125D01*
X149000510Y-49616125D01*
X148860802Y-49642413D01*
X148732490Y-49724980D01*
X148646409Y-49850963D01*
X148616125Y-50000510D01*
X148616125Y-50259895D01*
X148460292Y-50026675D01*
X148212000Y-49860771D01*
X148212000Y-48851488D01*
X149311488Y-47752000D01*
X190688512Y-47752000D01*
X192248000Y-49311488D01*
X192248000Y-95688512D01*
X190688512Y-97248000D01*
X155178644Y-97248000D01*
X155167612Y-97221300D01*
X154780737Y-96833749D01*
X154275002Y-96623749D01*
X153727400Y-96623272D01*
X153221300Y-96832388D01*
X153185626Y-96868000D01*
X145885812Y-96868000D01*
X145832181Y-96787735D01*
X145450334Y-96532594D01*
X144999916Y-96443000D01*
X144240084Y-96443000D01*
X143789666Y-96532594D01*
X143407819Y-96787735D01*
X143152678Y-97169582D01*
X143063084Y-97620000D01*
X143152678Y-98070418D01*
X143407819Y-98452265D01*
X143789666Y-98707406D01*
X144240084Y-98797000D01*
X144999916Y-98797000D01*
X145450334Y-98707406D01*
X145832181Y-98452265D01*
X145885812Y-98372000D01*
X152664343Y-98372000D01*
X152832388Y-98778700D01*
X153219263Y-99166251D01*
X153724998Y-99376251D01*
X154272600Y-99376728D01*
X154778700Y-99167612D01*
X155166251Y-98780737D01*
X155178184Y-98752000D01*
X191000000Y-98752000D01*
X191287778Y-98694757D01*
X191531744Y-98531744D01*
X193531744Y-96531744D01*
X193694757Y-96287778D01*
X193700879Y-96257000D01*
X193752000Y-96000000D01*
X193752000Y-49000000D01*
X193694757Y-48712222D01*
X193531744Y-48468256D01*
X191531744Y-46468256D01*
X191287778Y-46305243D01*
X191000000Y-46248000D01*
X149000000Y-46248000D01*
X148712222Y-46305243D01*
X148468256Y-46468256D01*
X146928256Y-48008256D01*
X146765243Y-48252222D01*
X146708000Y-48540000D01*
X146708000Y-49860771D01*
X146459708Y-50026675D01*
X146161322Y-50473240D01*
X146056543Y-51000000D01*
X146161322Y-51526760D01*
X146459708Y-51973325D01*
X146906273Y-52271711D01*
X147433033Y-52376490D01*
X147486967Y-52376490D01*
X148013727Y-52271711D01*
X148460292Y-51973325D01*
X148616125Y-51740105D01*
X148616125Y-51999490D01*
X148642413Y-52139198D01*
X148724980Y-52267510D01*
X148850963Y-52353591D01*
X149000510Y-52383875D01*
X149248000Y-52383875D01*
X149248000Y-72188512D01*
X147188512Y-74248000D01*
X137584146Y-74248000D01*
X137778700Y-74167612D01*
X138166251Y-73780737D01*
X138376251Y-73275002D01*
X138376728Y-72727400D01*
X138167612Y-72221300D01*
X137780737Y-71833749D01*
X137752000Y-71821816D01*
X137752000Y-63372390D01*
X137997230Y-63127588D01*
X138176795Y-62695147D01*
X138177204Y-62226907D01*
X137998394Y-61794154D01*
X137667588Y-61462770D01*
X137235147Y-61283205D01*
X136766907Y-61282796D01*
X136334154Y-61461606D01*
X136002770Y-61792412D01*
X135823205Y-62224853D01*
X135822796Y-62693093D01*
X136001606Y-63125846D01*
X136248000Y-63372671D01*
X136248000Y-71821356D01*
X136221300Y-71832388D01*
X135833749Y-72219263D01*
X135623749Y-72724998D01*
X135623272Y-73272600D01*
X135832388Y-73778700D01*
X136219263Y-74166251D01*
X136416136Y-74248000D01*
X129811488Y-74248000D01*
X127752000Y-72188512D01*
X127752000Y-66160727D01*
X133864958Y-66160727D01*
X133956374Y-66373703D01*
X134520403Y-66461865D01*
X134963626Y-66373703D01*
X135055042Y-66160727D01*
X134460000Y-65565685D01*
X133864958Y-66160727D01*
X127752000Y-66160727D01*
X127752000Y-65060403D01*
X132998135Y-65060403D01*
X133086297Y-65503626D01*
X133299273Y-65595042D01*
X133894315Y-65000000D01*
X135025685Y-65000000D01*
X135620727Y-65595042D01*
X135833703Y-65503626D01*
X135921865Y-64939597D01*
X135833703Y-64496374D01*
X135620727Y-64404958D01*
X135025685Y-65000000D01*
X133894315Y-65000000D01*
X133299273Y-64404958D01*
X133086297Y-64496374D01*
X132998135Y-65060403D01*
X127752000Y-65060403D01*
X127752000Y-64338644D01*
X127778700Y-64327612D01*
X128166251Y-63940737D01*
X128208382Y-63839273D01*
X133864958Y-63839273D01*
X134460000Y-64434315D01*
X135055042Y-63839273D01*
X134963626Y-63626297D01*
X134399597Y-63538135D01*
X133956374Y-63626297D01*
X133864958Y-63839273D01*
X128208382Y-63839273D01*
X128376251Y-63435002D01*
X128376728Y-62887400D01*
X128167612Y-62381300D01*
X127780737Y-61993749D01*
X127275002Y-61783749D01*
X126727400Y-61783272D01*
X126221300Y-61992388D01*
X125833749Y-62379263D01*
X125821816Y-62408000D01*
X115471488Y-62408000D01*
X110531744Y-57468256D01*
X110287778Y-57305243D01*
X110000000Y-57248000D01*
X98912390Y-57248000D01*
X98667588Y-57002770D01*
X98235147Y-56823205D01*
X97766907Y-56822796D01*
X97334154Y-57001606D01*
X97087329Y-57248000D01*
X95752000Y-57248000D01*
X95752000Y-56000000D01*
X95694757Y-55712222D01*
X95531744Y-55468256D01*
X95224215Y-55160727D01*
X97404958Y-55160727D01*
X97496374Y-55373703D01*
X98060403Y-55461865D01*
X98503626Y-55373703D01*
X98595042Y-55160727D01*
X98000000Y-54565685D01*
X97404958Y-55160727D01*
X95224215Y-55160727D01*
X94123891Y-54060403D01*
X96538135Y-54060403D01*
X96626297Y-54503626D01*
X96839273Y-54595042D01*
X97434315Y-54000000D01*
X98565685Y-54000000D01*
X99160727Y-54595042D01*
X99373703Y-54503626D01*
X99461865Y-53939597D01*
X99373703Y-53496374D01*
X99160727Y-53404958D01*
X98565685Y-54000000D01*
X97434315Y-54000000D01*
X96839273Y-53404958D01*
X96626297Y-53496374D01*
X96538135Y-54060403D01*
X94123891Y-54060403D01*
X92902761Y-52839273D01*
X97404958Y-52839273D01*
X98000000Y-53434315D01*
X98161715Y-53272600D01*
X125623272Y-53272600D01*
X125832388Y-53778700D01*
X126219263Y-54166251D01*
X126724998Y-54376251D01*
X127272600Y-54376728D01*
X127778700Y-54167612D01*
X128166251Y-53780737D01*
X128376251Y-53275002D01*
X128376728Y-52727400D01*
X128167612Y-52221300D01*
X128005042Y-52058446D01*
X128311489Y-51752000D01*
X135311823Y-51752000D01*
X135459708Y-51973325D01*
X135906273Y-52271711D01*
X136433033Y-52376490D01*
X136486967Y-52376490D01*
X137013727Y-52271711D01*
X137460292Y-51973325D01*
X137616125Y-51740105D01*
X137616125Y-51999490D01*
X137642413Y-52139198D01*
X137724980Y-52267510D01*
X137850963Y-52353591D01*
X138000510Y-52383875D01*
X138248000Y-52383875D01*
X138248000Y-57000000D01*
X138305243Y-57287778D01*
X138468256Y-57531744D01*
X138788000Y-57851489D01*
X138788000Y-64087610D01*
X138542770Y-64332412D01*
X138363205Y-64764853D01*
X138362796Y-65233093D01*
X138541606Y-65665846D01*
X138872412Y-65997230D01*
X139304853Y-66176795D01*
X139773093Y-66177204D01*
X140205846Y-65998394D01*
X140537230Y-65667588D01*
X140716795Y-65235147D01*
X140717204Y-64766907D01*
X140538394Y-64334154D01*
X140292000Y-64087329D01*
X140292000Y-57540000D01*
X140234757Y-57252222D01*
X140208030Y-57212222D01*
X140071744Y-57008255D01*
X139752000Y-56688512D01*
X139752000Y-52383875D01*
X139999490Y-52383875D01*
X140139198Y-52357587D01*
X140267510Y-52275020D01*
X140353591Y-52149037D01*
X140383875Y-51999490D01*
X140383875Y-50000510D01*
X140357587Y-49860802D01*
X140275020Y-49732490D01*
X140149037Y-49646409D01*
X139999490Y-49616125D01*
X138000510Y-49616125D01*
X137860802Y-49642413D01*
X137732490Y-49724980D01*
X137646409Y-49850963D01*
X137616125Y-50000510D01*
X137616125Y-50259895D01*
X137460292Y-50026675D01*
X137013727Y-49728289D01*
X136486967Y-49623510D01*
X136433033Y-49623510D01*
X135906273Y-49728289D01*
X135459708Y-50026675D01*
X135311823Y-50248000D01*
X128000000Y-50248000D01*
X127712222Y-50305243D01*
X127614503Y-50370536D01*
X127468256Y-50468255D01*
X126468256Y-51468256D01*
X126305243Y-51712222D01*
X126286717Y-51805358D01*
X126221300Y-51832388D01*
X125833749Y-52219263D01*
X125623749Y-52724998D01*
X125623272Y-53272600D01*
X98161715Y-53272600D01*
X98595042Y-52839273D01*
X98503626Y-52626297D01*
X97939597Y-52538135D01*
X97496374Y-52626297D01*
X97404958Y-52839273D01*
X92902761Y-52839273D01*
X91531744Y-51468256D01*
X91287778Y-51305243D01*
X91000000Y-51248000D01*
X79000000Y-51248000D01*
X78712222Y-51305243D01*
X78468256Y-51468256D01*
X75968256Y-53968256D01*
X75805243Y-54212222D01*
X75748000Y-54500000D01*
X69055600Y-54500000D01*
X69055600Y-45550900D01*
X218201600Y-45550900D01*
X218201600Y-85123900D01*
M02*
