M48
;DRILL file {KiCad 4.0.2+dfsg1-stable} date Fri 18 May 2018 14:33:21 BST
;FORMAT={-:-/ absolute / inch / decimal}
FMAT,2
INCH,TZ
T1C0.024
T2C0.028
T3C0.030
T4C0.031
T5C0.035
T6C0.039
T7C0.043
%
G90
G05
M72
T1
X4.685Y-3.5433
X4.685Y-3.6433
X4.685Y-3.7433
X6.4173Y-3.5433
X6.4173Y-3.6433
X6.4173Y-3.7433
T2
X5.2937Y-2.5591
X5.3937Y-2.4591
X5.4512Y-4.8031
X5.4937Y-2.5591
X5.5512Y-4.7031
X5.6512Y-4.8031
T3
X3.8583Y-2.126
X3.8583Y-2.2835
X3.8583Y-2.3937
X3.8583Y-2.4724
T4
X5.3937Y-3.5433
X5.3937Y-3.6433
X5.3937Y-3.7433
X5.3937Y-3.8433
X5.6937Y-3.5433
X5.6937Y-3.6433
X5.6937Y-3.7433
X5.6937Y-3.8433
T5
X3.2465Y-2.1654
X3.3465Y-2.1654
X3.4465Y-2.1654
T6
X5.Y-2.0866
X5.Y-2.4866
X5.0787Y-3.7402
X5.0787Y-4.1402
X5.3937Y-2.874
X5.3937Y-3.274
X5.4268Y-5.1575
X5.5512Y-4.0882
X5.5512Y-4.4882
X5.8268Y-5.1575
X6.063Y-3.8583
X6.063Y-4.2583
T7
X3.7402Y-2.7953
X3.8402Y-2.7953
X5.3543Y-5.4724
X5.3724Y-2.0079
X5.4543Y-5.4724
X5.4724Y-2.0079
X5.8055Y-2.0079
X5.8268Y-5.4724
X5.9055Y-2.0079
X5.9268Y-5.4724
X7.2441Y-2.7953
X7.3441Y-2.7953
T0
M30
